<svg width="164" height="30" viewBox="0 0 164 30" fill="none" xmlns="http://www.w3.org/2000/svg">
<g clip-path="url(#clip0_562_116)">
<path d="M79.2461 11.9814C80.6413 11.9814 81.7722 10.85 81.7722 9.45444C81.7722 8.05888 80.6413 6.9275 79.2461 6.9275C77.8508 6.9275 76.7198 8.05888 76.7198 9.45444C76.7198 10.85 77.8508 11.9814 79.2461 11.9814ZM162.618 20.615C162.233 20.3447 161.937 20.3 161.69 20.8249C157.448 30.0142 150.297 25.4287 151.008 25.8323C152.594 25.1067 156.765 21.7614 156.135 17.1425C155.752 14.3196 153.329 13.0674 150.757 13.5158C146.268 14.2983 144.617 19.1401 145.457 23.427C145.605 24.163 145.867 24.7703 146.13 25.365C141.057 29.4902 139.043 21.672 138.814 20.7379C138.805 20.688 142.731 17.4155 143.823 9.61754C144.967 1.44492 142.36 -0.0430055 139.694 0.00336989C134.761 0.0893468 133.428 10.3967 135.219 18.9871C135.069 19.0261 134.371 19.4128 133.249 19.456C132.442 16.9165 128.993 14.6903 128.09 15.548C125.831 17.6942 128.638 21.8894 130.613 22.2186C129.427 29.526 122.007 27.7161 123.388 18.5611C125.805 14.0744 127.642 7.40272 127.314 3.3751C127.198 1.94905 126.144 0.0385422 123.759 0.132987C119.173 0.31458 118.675 10.6248 119.213 17.9423C119.186 17.7621 118.931 18.8314 117.052 19.3631C116.607 16.8956 112.634 14.419 111.699 15.6097C109.948 17.8384 112.982 21.8118 114.419 22.0891C113.233 29.3964 105.813 27.5864 107.195 18.4315C109.611 13.9448 111.448 7.2731 111.12 3.24548C111.004 1.81944 109.95 -0.0910744 107.565 0.00336989C102.979 0.185094 102.481 10.4952 103.019 17.8127C102.992 17.6298 102.731 18.7341 100.775 19.2572C100.709 16.056 96.7217 14.5883 95.7638 15.6097C94.0568 17.4302 96.1547 21.1661 98.0957 22.0891C96.9094 29.3964 89.4898 27.5864 90.8711 18.4315C93.2872 13.9448 95.1247 7.2731 94.7967 3.24548C94.6806 1.81944 93.6265 -0.0910744 91.2418 0.00336989C86.656 0.185094 86.2871 11.0135 86.8248 18.331C85.3144 24.8026 80.2489 32.8846 80.9069 16.6947C80.9719 15.5592 81.0429 15.1277 80.4767 14.7027C80.0523 14.3721 79.0876 14.531 78.5604 14.5443C77.9193 14.5699 77.7586 14.9451 77.617 15.5119C77.2869 16.9757 77.2277 18.3947 77.1806 20.3309C77.1496 21.2367 77.0769 21.6592 76.7283 22.8942C76.3797 24.1291 74.3926 26.3859 73.3043 26.0088C71.7949 25.4894 72.2898 21.2282 72.5729 18.3003C72.8086 15.9863 72.054 14.9475 70.12 14.5695C68.9879 14.3335 68.2999 14.3698 67.121 13.9982C66.006 13.6467 65.7537 11.5376 63.3759 12.2405C62.0749 12.6252 62.9111 15.3812 62.5986 17.424C61.0617 27.4717 57.8638 27.7476 56.3802 22.8666C63.0619 6.50244 58.3131 0.051048 55.5337 0.051048C52.6383 0.051048 49.3287 2.04519 50.7302 14.8052C50.0487 14.6064 49.8393 14.4993 49.0934 14.4993C44.8745 14.4993 42 17.9099 42 22.117C42 26.3241 44.8745 29.7347 49.0934 29.7347C51.5839 29.7347 53.3323 28.6021 54.6567 26.8499C55.5206 28.0873 56.5728 29.7538 58.4969 29.6788C64.2318 29.4555 65.8999 17.6914 66.0966 17.0353C66.7097 17.1297 67.2898 17.3086 67.8558 17.403C68.7992 17.5447 68.8676 17.9181 68.8464 18.867C68.5966 26.8678 70.0729 29.6692 73.4218 29.6692C75.2878 29.6692 76.951 27.836 78.0967 26.525C78.9525 28.2912 80.316 29.6152 82.1452 29.6692C86.578 29.7792 88.275 22.7144 88.1203 23.6441C87.9989 24.3736 89.5584 29.6293 94.1216 29.6485C99.7744 29.672 100.825 23.4559 100.95 22.4147C100.966 22.2074 100.973 22.2292 100.95 22.4147C100.949 22.434 100.947 22.4545 100.946 22.4779C102.74 22.1441 103.667 21.1819 103.667 21.1819C103.667 21.1819 105.107 29.7451 110.445 29.6485C115.988 29.548 117.033 23.9292 117.17 22.8334C117.188 22.5733 117.199 22.6038 117.17 22.8334C117.17 22.8442 117.169 22.8537 117.168 22.8655C119.3 22.0899 119.86 21.3116 119.86 21.3116C119.86 21.3116 121.006 29.7045 126.639 29.7779C131.659 29.8435 133.519 24.703 133.53 22.5512C134.377 22.5602 135.943 22.049 135.907 22.0197C135.907 22.0197 137.745 29.3578 142.88 29.7347C145.291 29.9116 147.1 28.3782 148.131 27.6785C150.554 29.6408 158.622 32.1469 163.716 23.51C164.435 22.2705 162.889 20.8061 162.618 20.615ZM48.8897 26.8855C46.4283 26.8855 44.85 24.6096 44.85 22.1556C44.85 19.7016 46.2987 17.4257 48.7601 17.4257C49.8679 17.4257 50.4838 17.5476 51.3466 18.2979C51.5032 18.9142 51.9464 20.3362 52.1622 20.982C52.4511 21.8459 52.7949 22.5814 53.1417 23.3819C52.6463 25.4351 51.0229 26.8855 48.8897 26.8855ZM54.8878 18.3701C54.7855 18.207 54.8068 18.3072 54.6923 18.1531C54.2412 16.9258 53.3716 14.1862 53.2709 11.0743C53.1571 7.55448 53.7438 3.42864 55.4734 3.42864C56.6452 3.42864 57.8907 11.7904 54.8878 18.3701ZM89.5453 14.7027C89.2676 12.6138 89.2531 3.30189 91.4887 3.55825C92.7228 4.05822 90.706 12.8453 89.5453 14.7027ZM105.869 14.7027C105.591 12.6138 105.577 3.30189 107.812 3.55825C109.046 4.05822 107.03 12.8453 105.869 14.7027ZM122.063 14.8323C121.785 12.7434 121.771 3.4315 124.006 3.68787C125.24 4.18784 123.223 12.9749 122.063 14.8323ZM139.941 3.01321C141.985 2.8014 141.9 11.7267 137.798 17.3613C137.269 15.3248 136.458 3.71262 139.941 3.01321ZM148.532 22.2186C147.875 18.9026 149.571 16.7247 151.32 16.4859C151.931 16.3882 152.817 16.7842 152.993 17.5244C153.284 18.9195 152.951 20.9886 149.038 23.6142C149.043 23.6366 148.678 22.957 148.532 22.2186Z" fill="black"/>
</g>
<path d="M15 0.996094C22.7344 0.996094 28.9922 7.25391 28.9922 14.9766C28.9922 22.6992 22.7344 28.9687 15 28.9687C7.26563 28.9687 1.00781 22.7109 1.00781 14.9883C1.00781 7.26562 7.26563 0.996094 15 0.996094Z" fill="#E74D89"/>
<path d="M15 29.9648C6.72656 29.9648 0 23.25 0 14.9883C0 6.71484 6.72656 0 15 0C23.2734 0 30 6.71484 30 14.9766C30 23.2383 23.2734 29.9648 15 29.9648ZM27.6445 17.0273C27.2109 16.8867 23.6836 15.8438 19.6641 16.4766C21.3398 21.0703 22.0195 24.8203 22.1484 25.5937C25.0313 23.6602 27.082 20.5898 27.6445 17.0273ZM20.0039 26.7773C19.8164 25.6523 19.0664 21.7383 17.2734 17.0742C17.25 17.0859 17.2148 17.0977 17.1914 17.0977C9.96094 19.6172 7.37109 24.6211 7.13672 25.0898C9.30469 26.7773 12.0352 27.7852 15 27.7852C16.7695 27.7969 18.4687 27.4336 20.0039 26.7773ZM5.48437 23.5547C5.77734 23.0625 9.29297 17.25 15.9023 15.1055C16.0664 15.0469 16.2422 15 16.4062 14.9531C16.0898 14.2266 15.7383 13.5 15.3633 12.7852C8.96484 14.6953 2.75391 14.6133 2.19141 14.6016C2.19141 14.7305 2.17969 14.8594 2.17969 14.9883C2.19141 18.2813 3.43359 21.2813 5.48437 23.5547ZM2.46094 12.375C3.03516 12.3867 8.30859 12.4102 14.3086 10.8164C12.1875 7.04297 9.89062 3.87891 9.5625 3.42188C5.96484 5.10938 3.29297 8.41406 2.46094 12.375ZM12 2.55469C12.3516 3.02344 14.6836 6.1875 16.7812 10.043C21.3398 8.33203 23.2617 5.75391 23.4961 5.42578C21.2344 3.42187 18.2578 2.20312 15 2.20312C13.9687 2.20312 12.9609 2.33203 12 2.55469ZM24.9141 6.90234C24.6445 7.26563 22.5 10.0195 17.7656 11.9531C18.0586 12.5625 18.3516 13.1836 18.6211 13.8047C18.7148 14.0273 18.8086 14.25 18.9023 14.4609C23.168 13.9219 27.3984 14.7891 27.8203 14.8711C27.7852 11.8594 26.707 9.08203 24.9141 6.90234Z" fill="#B2215A"/>
<defs>
<clipPath id="clip0_562_116">
<rect width="121.905" height="30" fill="white" transform="translate(42)"/>
</clipPath>
</defs>
</svg>
