<svg width="29" height="30" viewBox="0 0 29 30" fill="none" xmlns="http://www.w3.org/2000/svg">
<path fill-rule="evenodd" clip-rule="evenodd" d="M14.501 1C6.77214 1 0.500977 7.27116 0.500977 15C0.500977 22.7288 6.77214 29 14.501 29C22.2146 29 28.501 22.7288 28.501 15C28.501 7.27116 22.2146 1 14.501 1ZM23.7483 7.45336C25.4185 9.48806 26.4207 12.0846 26.4511 14.8937C26.0563 14.8178 22.1084 14.013 18.1301 14.5141C18.0389 14.3167 17.963 14.1041 17.8719 13.8915C17.629 13.3145 17.3556 12.7223 17.0823 12.1605C21.4858 10.3688 23.4901 7.78742 23.7483 7.45336ZM14.501 3.06508C17.5379 3.06508 20.3166 4.2039 22.4272 6.07158C22.2146 6.37527 20.4077 8.7896 16.1561 10.3839C14.1973 6.78525 12.0259 3.83948 11.6919 3.38395C12.5877 3.17137 13.5292 3.06508 14.501 3.06508ZM9.41422 4.18872C9.73308 4.61388 11.8589 7.57485 13.848 11.0976C8.2602 12.5857 3.32528 12.5553 2.79382 12.5553C3.56821 8.85033 6.07365 5.7679 9.41422 4.18872ZM2.53568 15.0152C2.53568 14.8937 2.53568 14.7722 2.53568 14.6508C3.05195 14.6659 8.8524 14.7419 14.8198 12.9501C15.1691 13.6182 15.4879 14.3015 15.7916 14.9848C15.6398 15.0304 15.4728 15.0759 15.3209 15.1215C9.15608 17.1106 5.87625 22.5466 5.60294 23.0022C3.70488 20.8915 2.53568 18.0824 2.53568 15.0152ZM14.501 26.9653C11.7374 26.9653 9.18644 26.0239 7.16691 24.4447C7.37951 24.0044 9.80902 19.3275 16.5509 16.974C16.5812 16.9588 16.5964 16.9588 16.6268 16.9436C18.3123 21.3015 18.9956 24.9609 19.1778 26.0087C17.7353 26.6312 16.1561 26.9653 14.501 26.9653ZM21.1669 24.9154C21.0454 24.1865 20.4077 20.6941 18.8437 16.397C22.5943 15.8048 25.8741 16.7766 26.284 16.9132C25.7678 20.2386 23.8545 23.1085 21.1669 24.9154Z" fill="#A2A2A2" stroke="#A2A2A2" stroke-width="0.5"/>
</svg>
