<svg width="30" height="30" viewBox="0 0 30 30" fill="none" xmlns="http://www.w3.org/2000/svg">
<path fill-rule="evenodd" clip-rule="evenodd" d="M15 1C7.27116 1 1 7.27116 1 15C1 22.7288 7.27116 29 15 29C22.7136 29 29 22.7288 29 15C29 7.27116 22.7136 1 15 1ZM24.2473 7.45336C25.9175 9.48806 26.9197 12.0846 26.9501 14.8937C26.5553 14.8178 22.6074 14.013 18.6291 14.5141C18.5379 14.3167 18.462 14.1041 18.3709 13.8915C18.128 13.3145 17.8546 12.7223 17.5813 12.1605C21.9848 10.3688 23.9891 7.78742 24.2473 7.45336ZM15 3.06508C18.0369 3.06508 20.8156 4.2039 22.9262 6.07158C22.7136 6.37527 20.9067 8.7896 16.6551 10.3839C14.6963 6.78525 12.5249 3.83948 12.1909 3.38395C13.0867 3.17137 14.0282 3.06508 15 3.06508ZM9.91324 4.18872C10.2321 4.61388 12.3579 7.57485 14.347 11.0976C8.75922 12.5857 3.8243 12.5553 3.29284 12.5553C4.06723 8.85033 6.57267 5.7679 9.91324 4.18872ZM3.0347 15.0152C3.0347 14.8937 3.0347 14.7722 3.0347 14.6508C3.55097 14.6659 9.35142 14.7419 15.3188 12.9501C15.6681 13.6182 15.9869 14.3015 16.2906 14.9848C16.1388 15.0304 15.9718 15.0759 15.8199 15.1215C9.6551 17.1106 6.37527 22.5466 6.10196 23.0022C4.2039 20.8915 3.0347 18.0824 3.0347 15.0152ZM15 26.9653C12.2364 26.9653 9.68546 26.0239 7.66593 24.4447C7.87853 24.0044 10.308 19.3275 17.0499 16.974C17.0802 16.9588 17.0954 16.9588 17.1258 16.9436C18.8113 21.3015 19.4946 24.9609 19.6768 26.0087C18.2343 26.6312 16.6551 26.9653 15 26.9653ZM21.6659 24.9154C21.5444 24.1865 20.9067 20.6941 19.3427 16.397C23.0933 15.8048 26.3731 16.7766 26.783 16.9132C26.2668 20.2386 24.3535 23.1085 21.6659 24.9154Z" fill="url(#paint0_linear_753_1901)" stroke="url(#paint1_linear_753_1901)" stroke-width="0.5"/>
<defs>
<linearGradient id="paint0_linear_753_1901" x1="15" y1="1" x2="15" y2="29" gradientUnits="userSpaceOnUse">
<stop stop-color="#E74D89"/>
<stop offset="1" stop-color="#B2215A"/>
</linearGradient>
<linearGradient id="paint1_linear_753_1901" x1="15" y1="1" x2="15" y2="29" gradientUnits="userSpaceOnUse">
<stop stop-color="#E74D89"/>
<stop offset="1" stop-color="#B2215A"/>
</linearGradient>
</defs>
</svg>
