<svg width="30" height="30" viewBox="0 0 30 30" fill="none" xmlns="http://www.w3.org/2000/svg">
<path fill-rule="evenodd" clip-rule="evenodd" d="M8.06421 14.9441C8.06421 10.9755 11.3709 7.78955 15.3618 7.78955C19.3527 7.78955 22.6594 11.0314 22.6594 14.9441C22.6594 18.8567 19.4097 22.0986 15.3618 22.0986C11.3139 22.0986 8.06421 18.9126 8.06421 14.9441ZM10.6869 14.9441C10.6869 17.4594 12.7963 19.5275 15.3619 19.5275C17.9275 19.5275 20.0369 17.4594 20.0369 14.9441C20.0369 12.4289 17.9275 10.3608 15.3619 10.3608C12.7963 10.3608 10.6869 12.4289 10.6869 14.9441Z" fill="#A2A2A2"/>
<path d="M15.3618 7.53955C11.2388 7.53955 7.81421 10.8316 7.81421 14.9441H8.31421C8.31421 11.1195 11.503 8.03955 15.3618 8.03955V7.53955ZM22.9094 14.9441C22.9094 10.8887 19.4861 7.53955 15.3618 7.53955V8.03955C19.2193 8.03955 22.4094 11.1742 22.4094 14.9441H22.9094ZM15.3618 22.3486C19.5444 22.3486 22.9094 18.9982 22.9094 14.9441H22.4094C22.4094 18.7152 19.275 21.8486 15.3618 21.8486V22.3486ZM7.81421 14.9441C7.81421 19.0553 11.1805 22.3486 15.3618 22.3486V21.8486C11.4473 21.8486 8.31421 18.7699 8.31421 14.9441H7.81421ZM15.3619 19.2775C12.9297 19.2775 10.9369 17.3167 10.9369 14.9441H10.4369C10.4369 17.6021 12.6629 19.7775 15.3619 19.7775V19.2775ZM19.7869 14.9441C19.7869 17.3167 17.7941 19.2775 15.3619 19.2775V19.7775C18.0608 19.7775 20.2869 17.6021 20.2869 14.9441H19.7869ZM15.3619 10.6108C17.7941 10.6108 19.7869 12.5716 19.7869 14.9441H20.2869C20.2869 12.2861 18.0608 10.1108 15.3619 10.1108V10.6108ZM10.9369 14.9441C10.9369 12.5716 12.9297 10.6108 15.3619 10.6108V10.1108C12.6629 10.1108 10.4369 12.2861 10.4369 14.9441H10.9369Z" fill="#A2A2A2"/>
<path d="M22.9446 9.24287C23.8578 9.24287 24.598 8.51715 24.598 7.62192C24.598 6.7267 23.8578 6.00098 22.9446 6.00098C22.0315 6.00098 21.2913 6.7267 21.2913 7.62192C21.2913 8.51715 22.0315 9.24287 22.9446 9.24287Z" fill="#A2A2A2"/>
<path fill-rule="evenodd" clip-rule="evenodd" d="M21.2341 1.13818C23.6286 1.13818 25.7381 1.92071 27.2204 3.42986C28.7027 4.88313 29.5009 6.89533 29.5009 9.24291V20.7572C29.5009 23.1607 28.7027 25.2288 27.1634 26.682C25.681 28.0794 23.6286 28.8619 21.1771 28.8619H9.54649C7.20898 28.8619 5.15652 28.1353 3.61718 26.682C2.02083 25.1729 1.22266 23.1048 1.22266 20.7013V9.24291C1.22266 4.38007 4.52938 1.13818 9.48948 1.13818H21.2341ZM25.3385 24.8376C26.3647 23.8874 26.9919 22.49 26.9919 20.7573V9.243C26.9919 7.62206 26.4217 6.22469 25.4525 5.21859C24.4263 4.21248 23.001 3.70943 21.2906 3.70943H9.54601C7.83564 3.70943 6.35331 4.21248 5.3841 5.16269C4.35787 6.1688 3.84476 7.56616 3.84476 9.243V20.7014C3.84476 22.4341 4.35787 23.8315 5.3841 24.8376C6.41032 25.7878 7.83564 26.2909 9.54601 26.2909H21.1766C22.8869 26.2909 24.3123 25.7878 25.3385 24.8376Z" fill="#A2A2A2"/>
<path d="M27.2204 3.42986L27.042 3.60508L27.0454 3.60838L27.2204 3.42986ZM27.1634 26.682L27.3349 26.864L27.335 26.8638L27.1634 26.682ZM3.61718 26.682L3.44544 26.8637L3.44556 26.8638L3.61718 26.682ZM25.4525 5.21859L25.6326 5.04507L25.6275 5.04007L25.4525 5.21859ZM5.3841 5.16269L5.55911 5.34121L5.55911 5.34121L5.3841 5.16269ZM5.3841 24.8376L5.20901 25.0162L5.21424 25.0211L5.3841 24.8376ZM27.3987 3.25468C25.8611 1.68919 23.6828 0.888184 21.2341 0.888184V1.38818C23.5744 1.38818 25.615 2.15223 27.042 3.60505L27.3987 3.25468ZM29.7509 9.24291C29.7509 6.83665 28.9314 4.75725 27.3954 3.25135L27.0454 3.60838C28.474 5.00901 29.2509 6.95402 29.2509 9.24291H29.7509ZM29.7509 20.7572V9.24291H29.2509V20.7572H29.7509ZM27.335 26.8638C28.9328 25.3554 29.7509 23.217 29.7509 20.7572H29.2509C29.2509 23.1044 28.4726 25.1022 26.9918 26.5003L27.335 26.8638ZM21.1771 29.1119C23.6831 29.1119 25.7999 28.311 27.3349 26.864L26.9919 26.5001C25.5622 27.8478 23.574 28.6119 21.1771 28.6119V29.1119ZM9.54649 29.1119H21.1771V28.6119H9.54649V29.1119ZM3.44556 26.8638C5.03862 28.3678 7.15598 29.1119 9.54649 29.1119V28.6119C7.26197 28.6119 5.27443 27.9028 3.7888 26.5003L3.44556 26.8638ZM0.972656 20.7013C0.972656 23.1626 1.79172 25.3003 3.44544 26.8637L3.78893 26.5004C2.24994 25.0455 1.47266 23.047 1.47266 20.7013H0.972656ZM0.972656 9.24291V20.7013H1.47266V9.24291H0.972656ZM9.48948 0.888184C6.95409 0.888184 4.82119 1.7177 3.32101 3.18846C1.82039 4.65966 0.972656 6.75317 0.972656 9.24291H1.47266C1.47266 6.86981 2.27828 4.91096 3.67105 3.5455C5.06426 2.17961 7.06477 1.38818 9.48948 1.38818V0.888184ZM21.2341 0.888184H9.48948V1.38818H21.2341V0.888184ZM26.7419 20.7573C26.7419 22.4269 26.1392 23.7555 25.1686 24.6542L25.5083 25.0211C26.5902 24.0193 27.2419 22.5532 27.2419 20.7573H26.7419ZM26.7419 9.243V20.7573H27.2419V9.243H26.7419ZM25.2725 5.39203C26.1938 6.34841 26.7419 7.68225 26.7419 9.243H27.2419C27.2419 7.56186 26.6497 6.10097 25.6326 5.04514L25.2725 5.39203ZM21.2906 3.95943C22.9515 3.95943 24.3083 4.44687 25.2775 5.3971L25.6275 5.04007C24.5443 3.97809 23.0505 3.45943 21.2906 3.45943V3.95943ZM9.54601 3.95943H21.2906V3.45943H9.54601V3.95943ZM5.55911 5.34121C6.46861 4.44955 7.88032 3.95943 9.54601 3.95943V3.45943C7.79095 3.45943 6.23801 3.97542 5.20908 4.98417L5.55911 5.34121ZM4.09476 9.243C4.09476 7.61852 4.59048 6.29085 5.55911 5.34121L5.20908 4.98417C4.12526 6.04674 3.59476 7.51381 3.59476 9.243H4.09476ZM4.09476 20.7014V9.243H3.59476V20.7014H4.09476ZM5.55911 24.6591C4.59125 23.7102 4.09476 22.3831 4.09476 20.7014H3.59476C3.59476 22.4852 4.12449 23.9528 5.20908 25.0161L5.55911 24.6591ZM9.54601 26.0409C7.88487 26.0409 6.52478 25.5531 5.55395 24.6542L5.21424 25.0211C6.29586 26.0226 7.7864 26.5409 9.54601 26.5409V26.0409ZM21.1766 26.0409H9.54601V26.5409H21.1766V26.0409ZM25.1686 24.6542C24.1978 25.5531 22.8377 26.0409 21.1766 26.0409V26.5409C22.9362 26.5409 24.4267 26.0226 25.5083 25.0211L25.1686 24.6542Z" fill="#A2A2A2"/>
</svg>
