<svg width="30" height="30" viewBox="0 0 30 30" fill="none" xmlns="http://www.w3.org/2000/svg">
<path fill-rule="evenodd" clip-rule="evenodd" d="M3.44544 26.8637C1.79172 25.3003 0.972656 23.1626 0.972656 20.7013V9.24291C0.972656 6.75317 1.82039 4.65966 3.32101 3.18846C4.82119 1.7177 6.95409 0.888184 9.48948 0.888184H21.2341C23.6815 0.888184 25.8587 1.68832 27.3962 3.25214C28.9317 4.75798 29.7509 6.83707 29.7509 9.24291V20.7572C29.7509 23.217 28.9328 25.3554 27.335 26.8638L27.3349 26.864L27.1882 26.7083L27.1634 26.682L27.3349 26.864C25.7999 28.311 23.6831 29.1119 21.1771 29.1119H9.54649C7.15598 29.1119 5.03862 28.3678 3.44556 26.8638L3.61256 26.6869L3.58278 26.7184L3.44556 26.8638L3.44544 26.8637ZM27.2217 3.42855L27.2204 3.42984C27.2204 3.42985 27.2204 3.42985 27.2204 3.42986L27.2217 3.42855ZM25.1686 24.6542C26.1392 23.7555 26.7419 22.4269 26.7419 20.7573V9.243C26.7419 7.68388 26.1949 6.35119 25.2754 5.39502C24.3063 4.44616 22.9503 3.95943 21.2906 3.95943H9.54601C7.88032 3.95943 6.46861 4.44955 5.55911 5.34121C4.59048 6.29085 4.09476 7.61852 4.09476 9.243V20.7014C4.09476 22.3818 4.59048 23.7081 5.55686 24.6569C6.5275 25.5541 7.88653 26.0409 9.54601 26.0409H21.1766C22.8377 26.0409 24.1978 25.5531 25.1686 24.6542ZM25.4517 5.21944L25.4525 5.21862C25.4525 5.21861 25.4525 5.2186 25.4525 5.21859L25.4517 5.21944ZM24.598 7.62192C24.598 8.51715 23.8578 9.24287 22.9446 9.24287C22.0315 9.24287 21.2913 8.51715 21.2913 7.62192C21.2913 6.7267 22.0315 6.00098 22.9446 6.00098C23.8578 6.00098 24.598 6.7267 24.598 7.62192ZM15.3618 7.53955C11.2388 7.53955 7.81421 10.8316 7.81421 14.9441C7.81421 19.0553 11.1805 22.3486 15.3618 22.3486C19.5444 22.3486 22.9094 18.9982 22.9094 14.9441C22.9094 10.8887 19.4861 7.53955 15.3618 7.53955ZM15.3619 19.2775C12.9297 19.2775 10.9369 17.3167 10.9369 14.9441C10.9369 12.5716 12.9297 10.6108 15.3619 10.6108C17.7941 10.6108 19.7869 12.5716 19.7869 14.9441C19.7869 17.3167 17.7941 19.2775 15.3619 19.2775Z" fill="url(#paint0_linear_753_1906)"/>
<defs>
<linearGradient id="paint0_linear_753_1906" x1="20" y1="0.999999" x2="4" y2="33.5" gradientUnits="userSpaceOnUse">
<stop stop-color="#8134AF"/>
<stop offset="0.28125" stop-color="#515BD4"/>
<stop offset="0.541667" stop-color="#DD2A7B"/>
<stop offset="0.770833" stop-color="#F58529"/>
<stop offset="1" stop-color="#FEDA77"/>
</linearGradient>
</defs>
</svg>
