<svg width="298" height="28" viewBox="0 0 298 28" fill="none" xmlns="http://www.w3.org/2000/svg">
<path d="M36.0642 13.7052C36.2171 13.6281 36.3623 13.6204 36.4999 13.6821C36.6528 13.7283 36.7598 13.8208 36.8209 13.9595C36.8821 14.0983 36.8897 14.2447 36.8438 14.3988C36.691 14.7996 36.2247 15.4085 35.4451 16.2254C34.6808 17.0578 33.7636 17.921 32.6936 18.815C31.6388 19.7091 30.4464 20.5645 29.1165 21.3815C27.7866 22.2139 26.5789 22.7996 25.4936 23.1387C23.6898 23.6936 22.2529 23.5857 21.1828 22.815C21.1522 22.7996 21.1293 22.7842 21.114 22.7688C20.7777 22.4451 20.5102 22.0674 20.3115 21.6358C20.128 21.2042 19.9904 20.7803 19.8987 20.3642C19.8223 19.9634 19.807 19.4778 19.8529 18.9075C19.8987 18.3372 19.9522 17.8439 20.0134 17.4277C20.0745 17.0116 20.1968 16.4798 20.3803 15.8324C20.5637 15.2004 20.7089 14.7148 20.8159 14.3757C20.9382 14.0366 21.1064 13.5588 21.3204 12.9422C21.8401 11.447 22.1 10.5376 22.1 10.2139C21.993 10.2447 21.8478 10.2987 21.6643 10.3757C20.1051 11.1002 16.7421 14.5067 11.5752 20.5954C11.3765 20.8112 11.1472 20.8574 10.8873 20.7341C10.6427 20.6108 10.5434 20.4027 10.5892 20.1098C10.8338 19 12.4465 15.0848 15.4274 8.36416C16.0542 6.96146 16.4516 6.05973 16.6198 5.65896C14.9994 7.15414 12.8287 9.72832 10.1077 13.3815C8.13575 16.0173 6.43895 18.5067 5.0173 20.8497C3.61094 23.1927 2.64024 25.1118 2.10522 26.6069C2.02878 26.8381 1.87592 26.9692 1.64662 27C1.63133 27 1.6084 27 1.57783 27C1.37911 27 1.22624 26.9075 1.11923 26.7225C1.05809 26.6455 1.01987 26.5684 1.00459 26.4913C0.989299 26.4143 1.01223 26.237 1.07338 25.9595C1.13452 25.6975 1.25681 25.3353 1.44025 24.8728C1.62369 24.4104 1.89885 23.7553 2.26572 22.9075C2.64789 22.0597 3.12941 21.0193 3.7103 19.7861C4.81093 17.4432 6.6606 13.6358 9.25931 8.36416C9.79434 7.28516 10.1689 6.51445 10.3829 6.05202C8.83893 8.24085 7.90645 9.61272 7.58544 10.1676C7.509 10.2909 7.39435 10.3757 7.24149 10.422C7.10391 10.4528 6.96633 10.4297 6.82875 10.3526C6.69117 10.2755 6.59945 10.1676 6.55359 10.0289C6.52302 9.87476 6.54595 9.72832 6.62238 9.5896C6.9434 9.03468 7.95231 7.56262 9.64912 5.17341C11.3459 2.7842 12.4007 1.43545 12.8134 1.12717C13.0427 0.95761 13.2644 0.95761 13.4784 1.12717C13.6924 1.29672 13.7535 1.50482 13.6618 1.75145C13.5548 2.10597 12.4236 4.47977 10.2682 8.87283C8.67842 12.0944 7.46314 14.5761 6.62238 16.3179C7.49372 15.0539 8.38798 13.7977 9.30517 12.5491C9.68733 12.0559 10.1306 11.4855 10.6351 10.8382C11.1548 10.1753 11.8809 9.2736 12.8134 8.13295C13.7612 6.97688 14.6325 6.01349 15.4274 5.24277C16.2376 4.45665 16.8261 4.03276 17.193 3.9711C17.4835 3.90944 17.7128 3.98651 17.8809 4.20231C18.1102 4.47977 18.0949 4.95761 17.835 5.63584C17.728 5.9133 17.2618 6.97688 16.4363 8.82659C14.6019 12.9576 13.3408 15.8863 12.6529 17.6127C14.8083 15.1464 16.5739 13.2505 17.9497 11.9249C19.3255 10.5838 20.4032 9.72832 21.1828 9.35838C21.9624 8.98844 22.528 8.97303 22.8796 9.31214C23.0478 9.46628 23.1548 9.65125 23.2006 9.86705C23.2465 10.0829 23.2235 10.3911 23.1318 10.7919C23.0554 11.1927 22.9637 11.5472 22.8567 11.8555C22.765 12.1638 22.6044 12.6493 22.3751 13.3121C22.1458 13.975 21.9701 14.4836 21.8478 14.8382C21.7408 15.2081 21.5879 15.7245 21.3892 16.3873C21.2057 17.0501 21.0911 17.5973 21.0452 18.0289C20.9994 18.4759 20.9688 18.9615 20.9535 19.4855C20.9535 20.0096 21.0299 20.4721 21.1828 20.8728C21.3357 21.2736 21.565 21.6204 21.8707 21.9133C22.635 22.4528 23.7356 22.5067 25.1726 22.0751C26.2274 21.736 27.3968 21.158 28.6808 20.341C29.9649 19.5395 31.0961 18.7148 32.0744 17.8671C33.0528 17.0193 33.8859 16.2254 34.5738 15.4856C35.277 14.7611 35.6821 14.2678 35.7891 14.0058C35.8349 13.8671 35.9267 13.7669 36.0642 13.7052Z" stroke="url(#paint0_linear_61_29)"/>
<path d="M54.5258 13.6819C54.6786 13.7435 54.778 13.8437 54.8238 13.9825C54.885 14.1212 54.885 14.2599 54.8238 14.3986C54.7627 14.5528 54.6633 14.6607 54.5258 14.7223C54.113 14.8765 53.6621 15.0306 53.1729 15.1848C52.6837 15.3543 51.9729 15.547 51.0404 15.7628C50.1079 15.9786 49.1678 16.1405 48.2201 16.2484C47.2876 16.3717 46.1793 16.4179 44.8952 16.3871C43.6265 16.3717 42.3806 16.2561 41.1577 16.0403C40.5768 15.9324 40.0571 15.7551 39.5985 15.5085C39.5985 15.5393 39.5985 15.5701 39.5985 15.601C39.5526 15.7705 39.4915 15.9709 39.415 16.2021C39.3386 16.4487 39.1552 16.811 38.8647 17.2888C38.5896 17.7667 38.2762 18.0981 37.9246 18.283C37.68 18.4372 37.4201 18.5143 37.145 18.5143C36.9921 18.5143 36.8392 18.4911 36.6864 18.4449C36.1819 18.2753 35.8303 17.9439 35.6316 17.4507C35.4176 16.9574 35.3717 16.3485 35.494 15.6241C35.6775 14.3447 36.1513 13.2734 36.9157 12.4102C37.68 11.5316 38.4138 11.1385 39.1169 11.231C39.3768 11.2618 39.5679 11.3852 39.6902 11.601C39.8278 11.8168 39.8965 12.0634 39.8965 12.3408C39.8965 12.4796 39.8507 12.6029 39.759 12.7108C39.6673 12.8033 39.5602 12.8649 39.438 12.8958C39.652 13.1886 39.759 13.6433 39.759 14.2599C40.1411 14.5836 40.6762 14.8071 41.3641 14.9304C42.3424 15.1154 43.3284 15.231 44.322 15.2773C45.3309 15.3235 46.2634 15.3081 47.1194 15.231C47.9755 15.1539 48.7704 15.0538 49.5041 14.9304C50.2379 14.8225 50.9258 14.6761 51.5678 14.4911C52.2098 14.3216 52.7143 14.1751 53.0812 14.0518C53.4633 13.9285 53.8073 13.8052 54.113 13.6819C54.2506 13.6202 54.3882 13.6202 54.5258 13.6819ZM38.1539 13.8437C38.001 13.3351 38.0622 12.9574 38.3373 12.7108C38.4749 12.5721 38.6354 12.5104 38.8188 12.5258C38.7883 12.4796 38.773 12.4256 38.773 12.364C38.3755 12.4873 37.9399 12.8649 37.466 13.4969C37.0074 14.1289 36.717 14.8919 36.5947 15.7859C36.5947 15.7859 36.5947 15.7936 36.5947 15.809C36.4418 16.7031 36.5794 17.2195 37.0074 17.3582C37.1297 17.4044 37.252 17.389 37.3743 17.3119C37.6189 17.1732 37.8405 16.9035 38.0392 16.5027C38.2532 16.1019 38.4061 15.7089 38.4978 15.3235C38.5437 15.1385 38.5819 14.9304 38.6125 14.6992C38.3985 14.4218 38.2456 14.1366 38.1539 13.8437Z" stroke="url(#paint1_linear_61_29)"/>
<path d="M71.475 13.8207C71.6278 13.8515 71.7425 13.9363 71.8189 14.075C71.8954 14.2138 71.9106 14.3525 71.8648 14.4912C71.8342 14.6454 71.7501 14.761 71.6126 14.8381C70.2368 15.655 68.7463 16.3718 67.1412 16.9883C65.5362 17.6049 64.0763 18.0519 62.7617 18.3294C61.4623 18.6223 60.3158 18.8303 59.3222 18.9537C58.3286 19.077 57.5948 19.1078 57.1209 19.0461C56.7693 18.9999 56.4713 18.8997 56.2267 18.7456C55.9821 18.6068 55.7987 18.4219 55.6764 18.1907C55.5694 17.9749 55.4929 17.7899 55.4471 17.6357C55.4165 17.497 55.3859 17.3197 55.3553 17.1039C54.9426 17.4585 54.2853 18.2138 53.3834 19.3698C53.2611 19.5086 53.1159 19.5779 52.9477 19.5779C52.9171 19.5779 52.8866 19.5779 52.856 19.5779C52.642 19.5471 52.4968 19.4238 52.4203 19.208C52.2675 18.8072 52.4433 17.8361 52.9477 16.2947C53.177 15.5856 53.4675 14.7841 53.819 13.8901C53.8343 13.8438 53.8496 13.7976 53.8649 13.7513C54.1248 13.0731 54.4076 12.3795 54.7133 11.6704C55.0496 10.8689 55.4088 10.0519 55.791 9.21952C56.1885 8.37174 56.7158 7.36981 57.3732 6.21374C58.0305 5.04226 58.5808 4.25613 59.0241 3.85536C59.4521 3.45459 59.8572 3.3544 60.2394 3.55478C60.3158 3.58561 60.3846 3.63956 60.4458 3.71663C61.4394 5.11933 60.8203 7.29274 58.5884 10.2369C57.9617 11.0693 57.2814 11.8785 56.5477 12.6646C55.8139 13.4508 55.2407 14.0211 54.828 14.3756C54.4458 15.3467 54.1324 16.2176 53.8878 16.9883C54.3311 16.4951 54.6827 16.1714 54.9426 16.0172C55.2025 15.8631 55.4471 15.8014 55.6764 15.8323C55.8751 15.8477 56.0356 15.9248 56.1579 16.0635C56.2802 16.2176 56.3566 16.3486 56.3872 16.4565C56.4178 16.5799 56.4407 16.7417 56.456 16.9421C56.5018 17.2812 56.5706 17.5201 56.6623 17.6589C56.7541 17.7976 56.9528 17.8901 57.2585 17.9363C57.6865 17.9826 58.3744 17.944 59.3222 17.8207C60.27 17.6974 61.3629 17.497 62.6012 17.2196C63.8546 16.9421 65.2457 16.5028 66.7744 15.9016C68.3183 15.3159 69.74 14.6377 71.0393 13.867C71.1769 13.7899 71.3221 13.7745 71.475 13.8207ZM56.0662 11.3698C56.0203 11.4623 55.9744 11.5625 55.9286 11.6704C56.6623 10.8689 57.3197 10.0828 57.9006 9.31201C58.4814 8.5413 58.9706 7.71663 59.3681 6.83802C59.7655 5.95941 59.8802 5.25806 59.712 4.73397C59.3757 5.07309 58.8865 5.80527 58.2445 6.93051C57.6025 8.04033 56.8764 9.5201 56.0662 11.3698Z" stroke="url(#paint2_linear_61_29)"/>
<path d="M90.9216 13.4972C91.0745 13.4972 91.2044 13.5512 91.3114 13.6591C91.4337 13.767 91.4948 13.898 91.4948 14.0521C91.4948 14.2063 91.4413 14.3373 91.3343 14.4452C89.4541 16.3874 87.2146 17.7284 84.6159 18.4683C83.4388 18.8228 82.3 19.0001 81.1994 19.0001C80.0682 19.0001 79.0822 18.8151 78.2414 18.4452C76.8809 17.8594 76.0402 16.9038 75.7191 15.5781C75.1841 16.0868 74.6262 16.5492 74.0453 16.9654C72.5166 18.029 71.4083 18.3296 70.7204 17.8672C70.5982 17.7747 70.4835 17.6591 70.3765 17.5203C70.2695 17.397 70.1701 17.2198 70.0784 16.9885C69.9867 16.7573 69.9714 16.4567 70.0326 16.0868C70.0937 15.7323 70.2466 15.3392 70.4912 14.9076C70.858 14.214 71.3931 13.528 72.0962 12.8498C72.7994 12.1562 73.5408 11.6167 74.3204 11.2313C75.1153 10.8305 75.7574 10.7458 76.2465 10.977C76.7051 11.1774 76.965 11.5011 77.0261 11.9481C77.1026 12.4876 76.858 13.081 76.2924 13.7284C76.2924 13.7438 76.3 13.7515 76.3153 13.7515C76.5752 13.8286 76.7051 14.0136 76.7051 14.3065C76.6593 15.7862 77.3166 16.819 78.6771 17.4047C79.3803 17.713 80.2134 17.8672 81.1764 17.8672C82.1548 17.8672 83.1713 17.7207 84.2261 17.4278C85.2962 17.1504 86.3891 16.6803 87.5051 16.0174C88.621 15.37 89.6299 14.5839 90.5318 13.6591C90.6388 13.5512 90.7687 13.4972 90.9216 13.4972ZM74.9395 13.4972C75.2605 13.2198 75.5051 12.95 75.6733 12.688C75.8567 12.4105 75.9408 12.2178 75.9255 12.1099C75.9255 12.0791 75.8797 12.0406 75.7879 11.9943C75.7421 11.9789 75.6886 11.9712 75.6274 11.9712C75.1688 11.9712 74.4733 12.3411 73.5408 13.081C72.6236 13.8055 71.9281 14.5993 71.4542 15.4625C71.0415 16.2178 71.0032 16.7034 71.3395 16.9192C71.416 16.9192 71.5077 16.9192 71.6147 16.9192C71.7217 16.9346 71.9434 16.8575 72.2797 16.688C72.616 16.5338 72.9905 16.318 73.4032 16.0406C74.0911 15.5627 74.7026 15.0463 75.2376 14.4914C75.0847 14.476 74.9548 14.4067 74.8478 14.2833C74.7561 14.16 74.7179 14.0213 74.7332 13.8672C74.7484 13.713 74.8172 13.5897 74.9395 13.4972Z" stroke="url(#paint3_linear_61_29)"/>
<path d="M112.993 13.7283C113.146 13.6975 113.284 13.7283 113.406 13.8208C113.544 13.8979 113.628 14.0135 113.658 14.1676C113.704 14.3218 113.681 14.4605 113.59 14.5838C113.269 15.0925 112.565 15.6243 111.48 16.1792C110.41 16.7495 109.241 17.2428 107.972 17.659C104.639 18.738 101.888 19 99.7171 18.4451C97.9592 17.9981 97.2025 16.7495 97.4471 14.6994C97.2789 14.8227 97.0267 15.0385 96.6904 15.3468C95.8191 16.1021 95.1923 16.58 94.8102 16.7803C94.6267 16.8728 94.4433 16.8728 94.2598 16.7803C93.7554 16.4875 93.6407 15.9326 93.9159 15.1156C93.977 14.9615 94.0535 14.7842 94.1452 14.5838C92.6471 16.1869 91.2178 17.8285 89.8573 19.5087C89.7503 19.6474 89.6051 19.7168 89.4217 19.7168C89.4064 19.7168 89.3834 19.7168 89.3529 19.7168C89.1541 19.7013 89.0089 19.6012 88.9172 19.4162C88.7949 19.1696 88.8561 18.7071 89.1006 18.0289C89.3299 17.3507 89.8803 16.1098 90.7516 14.3064C90.721 14.2909 90.6981 14.2755 90.6828 14.2601C90.5605 14.1522 90.4917 14.0212 90.4764 13.8671C90.4611 13.7129 90.507 13.5819 90.614 13.474C90.9044 13.1195 91.2866 12.7572 91.7605 12.3873C92.0051 12.2023 92.2344 12.2023 92.4484 12.3873C92.6777 12.5723 92.7312 12.8035 92.6089 13.0809C92.563 13.1734 92.4407 13.42 92.242 13.8208C91.7376 14.8227 91.3172 15.6936 90.9809 16.4335C91.4089 15.9249 91.8216 15.4547 92.2191 15.0231C93.0293 14.1137 93.6866 13.4123 94.1911 12.9191C94.6191 12.5029 94.9554 12.2254 95.2 12.0867C95.4445 11.948 95.6738 11.9249 95.8879 12.0173C96.1936 12.1407 96.3235 12.3873 96.2777 12.7572C96.2624 12.8035 96.2471 12.842 96.2318 12.8728C96.1554 13.0886 95.9643 13.4894 95.6586 14.0751C95.3834 14.5838 95.1923 14.9692 95.0853 15.2312C95.2688 15.0771 95.5592 14.8304 95.9566 14.4913C96.7668 13.7823 97.3324 13.3584 97.6535 13.2197C97.898 13.0193 98.1426 12.9807 98.3872 13.104C98.5706 13.2119 98.67 13.3738 98.6853 13.5896C98.7159 13.8054 98.7006 14.0212 98.6394 14.237C98.5783 14.6994 98.5324 15.131 98.5019 15.5318C98.4866 15.948 98.6012 16.3179 98.8458 16.6416C99.0904 16.9807 99.4725 17.2197 99.9923 17.3584C101.062 17.6204 102.278 17.659 103.638 17.474C104.999 17.3044 106.313 17.0116 107.582 16.5954C108.851 16.1946 109.959 15.7476 110.907 15.2543C111.855 14.7611 112.436 14.3372 112.65 13.9827C112.741 13.8439 112.856 13.7592 112.993 13.7283Z" stroke="url(#paint4_linear_61_29)"/>
<path d="M130.278 13.6819C130.431 13.6665 130.561 13.7127 130.668 13.8206C130.79 13.9285 130.851 14.0595 130.851 14.2137C130.866 14.3678 130.821 14.5065 130.714 14.6299C130.423 14.9381 130.01 15.2618 129.475 15.601C128.94 15.9401 128.321 16.2638 127.618 16.5721C126.93 16.8958 126.166 17.1963 125.325 17.4738C124.5 17.7667 123.651 18.021 122.78 18.2368C120.945 18.6838 119.295 18.9073 117.827 18.9073C115.947 18.9073 114.51 18.5297 113.516 17.7744C112.951 17.3582 112.568 16.8418 112.37 16.2252C112.171 15.6087 112.186 14.9767 112.416 14.3293C112.63 13.7127 112.974 13.1963 113.447 12.7801C113.921 12.364 114.395 12.1636 114.869 12.179C115.312 12.1944 115.679 12.3563 115.97 12.6645C116.23 12.9574 116.352 13.3274 116.337 13.7744C116.321 14.3447 116.092 14.838 115.649 15.2541C115.19 15.6857 114.716 15.8861 114.227 15.8553C113.906 15.8399 113.623 15.7705 113.379 15.6472C113.455 16.125 113.723 16.5335 114.181 16.8726C114.9 17.4121 115.993 17.705 117.46 17.7512C118.943 17.7975 120.632 17.5894 122.528 17.127C124.133 16.7416 125.638 16.2329 127.045 15.601C128.451 14.9844 129.399 14.4064 129.888 13.8669C129.995 13.7435 130.125 13.6819 130.278 13.6819ZM114.846 13.3119C114.647 13.3119 114.426 13.4198 114.181 13.6356C113.937 13.8514 113.738 14.1135 113.585 14.4218C113.738 14.6222 113.967 14.73 114.273 14.7455C114.456 14.7455 114.663 14.6376 114.892 14.4218C115.106 14.2214 115.221 13.9902 115.236 13.7281C115.236 13.5894 115.205 13.4892 115.144 13.4275C115.083 13.3505 114.984 13.3119 114.846 13.3119Z" stroke="url(#paint5_linear_61_29)"/>
<path d="M150.59 13.7053C150.743 13.7361 150.857 13.8209 150.934 13.9596C151.01 14.083 151.026 14.2217 150.98 14.3758C150.949 14.53 150.873 14.6456 150.75 14.7226C146.302 17.4356 142.779 19.054 140.18 19.5781C139.553 19.7014 138.98 19.7631 138.46 19.7631C136.962 19.7631 135.884 19.2467 135.227 18.214C134.6 17.2583 134.424 15.8941 134.7 14.1215C132.835 16.5724 131.398 18.029 130.389 18.4914C129.823 18.7535 129.349 18.7304 128.967 18.4221C128.402 17.9596 128.371 17.1504 128.875 15.9943C129.151 15.3469 129.594 14.6225 130.205 13.8209C130.802 13.004 131.474 12.2949 132.223 11.6937C132.972 11.0772 133.591 10.7997 134.08 10.8614C134.539 10.923 134.883 11.1774 135.112 11.6244C135.219 11.4548 135.334 11.2853 135.456 11.1157C135.502 10.9616 135.556 10.7997 135.617 10.6302C136.06 9.41244 136.572 8.26408 137.153 7.18508C137.749 6.09067 138.215 5.42786 138.552 5.19664C138.735 5.05791 138.926 5.0425 139.125 5.1504C139.339 5.2583 139.438 5.42786 139.423 5.65907C139.423 6.15233 139.14 6.94616 138.575 8.04057C138.024 9.13499 137.321 10.3296 136.465 11.6244C135.517 14.4914 135.426 16.4953 136.19 17.6359C136.893 18.7149 138.445 18.9153 140.845 18.2371C143.26 17.5743 146.371 16.0791 150.177 13.7515C150.299 13.6745 150.437 13.6591 150.59 13.7053ZM134.172 12.8498C134.203 12.5724 134.18 12.3411 134.103 12.1562C134.058 12.0483 133.996 11.9866 133.92 11.9712C133.844 11.9712 133.729 12.0097 133.576 12.0868C133.423 12.1639 133.201 12.318 132.911 12.5492C132.636 12.7804 132.338 13.0579 132.017 13.3816C131.038 14.4298 130.335 15.4548 129.907 16.4567C129.663 17.0117 129.586 17.3739 129.678 17.5435C129.892 17.528 130.221 17.3354 130.664 16.9654C131.642 16.1639 132.812 14.8305 134.172 12.9654C134.172 12.9192 134.172 12.8806 134.172 12.8498Z" stroke="url(#paint6_linear_61_29)"/>
<path d="M197.222 13.7052C197.375 13.6281 197.52 13.6204 197.658 13.6821C197.811 13.7283 197.918 13.8208 197.979 13.9595C198.04 14.0983 198.048 14.2447 198.002 14.3988C197.849 14.7996 197.383 15.4085 196.603 16.2254C195.839 17.0578 194.921 17.921 193.851 18.815C192.797 19.7091 191.604 20.5645 190.274 21.3815C188.944 22.2139 187.737 22.7996 186.651 23.1387C184.848 23.6936 183.411 23.5857 182.341 22.815C182.31 22.7996 182.287 22.7842 182.272 22.7688C181.936 22.4451 181.668 22.0674 181.469 21.6358C181.286 21.2042 181.148 20.7803 181.057 20.3642C180.98 19.9634 180.965 19.4778 181.011 18.9075C181.057 18.3372 181.11 17.8439 181.171 17.4277C181.232 17.0116 181.355 16.4798 181.538 15.8324C181.722 15.2004 181.867 14.7148 181.974 14.3757C182.096 14.0366 182.264 13.5588 182.478 12.9422C182.998 11.447 183.258 10.5376 183.258 10.2139C183.151 10.2447 183.006 10.2987 182.822 10.3757C181.263 11.1002 177.9 14.5067 172.733 20.5954C172.534 20.8112 172.305 20.8574 172.045 20.7341C171.801 20.6108 171.701 20.4027 171.747 20.1098C171.992 19 173.604 15.0848 176.585 8.36416C177.212 6.96146 177.609 6.05973 177.778 5.65896C176.157 7.15414 173.987 9.72832 171.266 13.3815C169.294 16.0173 167.597 18.5067 166.175 20.8497C164.769 23.1927 163.798 25.1118 163.263 26.6069C163.187 26.8381 163.034 26.9692 162.805 27C162.789 27 162.766 27 162.736 27C162.537 27 162.384 26.9075 162.277 26.7225C162.216 26.6455 162.178 26.5684 162.162 26.4913C162.147 26.4143 162.17 26.237 162.231 25.9595C162.292 25.6975 162.415 25.3353 162.598 24.8728C162.782 24.4104 163.057 23.7553 163.424 22.9075C163.806 22.0597 164.287 21.0193 164.868 19.7861C165.969 17.4432 167.818 13.6358 170.417 8.36416C170.952 7.28516 171.327 6.51445 171.541 6.05202C169.997 8.24085 169.064 9.61272 168.743 10.1676C168.667 10.2909 168.552 10.3757 168.399 10.422C168.262 10.4528 168.124 10.4297 167.987 10.3526C167.849 10.2755 167.757 10.1676 167.711 10.0289C167.681 9.87476 167.704 9.72832 167.78 9.5896C168.101 9.03468 169.11 7.56262 170.807 5.17341C172.504 2.7842 173.559 1.43545 173.971 1.12717C174.201 0.95761 174.422 0.95761 174.636 1.12717C174.85 1.29672 174.911 1.50482 174.82 1.75145C174.713 2.10597 173.582 4.47977 171.426 8.87283C169.836 12.0944 168.621 14.5761 167.78 16.3179C168.652 15.0539 169.546 13.7977 170.463 12.5491C170.845 12.0559 171.289 11.4855 171.793 10.8382C172.313 10.1753 173.039 9.2736 173.971 8.13295C174.919 6.97688 175.79 6.01349 176.585 5.24277C177.395 4.45665 177.984 4.03276 178.351 3.9711C178.641 3.90944 178.871 3.98651 179.039 4.20231C179.268 4.47977 179.253 4.95761 178.993 5.63584C178.886 5.9133 178.42 6.97688 177.594 8.82659C175.76 12.9576 174.499 15.8863 173.811 17.6127C175.966 15.1464 177.732 13.2505 179.108 11.9249C180.483 10.5838 181.561 9.72832 182.341 9.35838C183.12 8.98844 183.686 8.97303 184.037 9.31214C184.206 9.46628 184.313 9.65125 184.358 9.86705C184.404 10.0829 184.381 10.3911 184.29 10.7919C184.213 11.1927 184.122 11.5472 184.015 11.8555C183.923 12.1638 183.762 12.6493 183.533 13.3121C183.304 13.975 183.128 14.4836 183.006 14.8382C182.899 15.2081 182.746 15.7245 182.547 16.3873C182.364 17.0501 182.249 17.5973 182.203 18.0289C182.157 18.4759 182.127 18.9615 182.111 19.4855C182.111 20.0096 182.188 20.4721 182.341 20.8728C182.494 21.2736 182.723 21.6204 183.029 21.9133C183.793 22.4528 184.894 22.5067 186.33 22.0751C187.385 21.736 188.555 21.158 189.839 20.341C191.123 19.5395 192.254 18.7148 193.232 17.8671C194.211 17.0193 195.044 16.2254 195.732 15.4856C196.435 14.7611 196.84 14.2678 196.947 14.0058C196.993 13.8671 197.085 13.7669 197.222 13.7052Z" stroke="url(#paint7_linear_61_29)"/>
<path d="M216.991 13.4972C217.144 13.4972 217.273 13.5512 217.38 13.6591C217.503 13.767 217.564 13.898 217.564 14.0521C217.564 14.2063 217.51 14.3373 217.403 14.4452C215.523 16.3874 213.284 17.7284 210.685 18.4683C209.508 18.8228 208.369 19.0001 207.268 19.0001C206.137 19.0001 205.151 18.8151 204.31 18.4452C202.95 17.8594 202.109 16.9038 201.788 15.5781C201.253 16.0868 200.695 16.5492 200.114 16.9654C198.586 18.029 197.477 18.3296 196.789 17.8672C196.667 17.7747 196.553 17.6591 196.446 17.5203C196.339 17.397 196.239 17.2198 196.147 16.9885C196.056 16.7573 196.04 16.4567 196.102 16.0868C196.163 15.7323 196.316 15.3392 196.56 14.9076C196.927 14.214 197.462 13.528 198.165 12.8498C198.868 12.1562 199.61 11.6167 200.389 11.2313C201.184 10.8305 201.826 10.7458 202.316 10.977C202.774 11.1774 203.034 11.5011 203.095 11.9481C203.172 12.4876 202.927 13.081 202.361 13.7284C202.361 13.7438 202.369 13.7515 202.384 13.7515C202.644 13.8286 202.774 14.0136 202.774 14.3065C202.728 15.7862 203.386 16.819 204.746 17.4047C205.449 17.713 206.282 17.8672 207.245 17.8672C208.224 17.8672 209.24 17.7207 210.295 17.4278C211.365 17.1504 212.458 16.6803 213.574 16.0174C214.69 15.37 215.699 14.5839 216.601 13.6591C216.708 13.5512 216.838 13.4972 216.991 13.4972ZM201.009 13.4972C201.33 13.2198 201.574 12.95 201.742 12.688C201.926 12.4105 202.01 12.2178 201.995 12.1099C201.995 12.0791 201.949 12.0406 201.857 11.9943C201.811 11.9789 201.758 11.9712 201.696 11.9712C201.238 11.9712 200.542 12.3411 199.61 13.081C198.693 13.8055 197.997 14.5993 197.523 15.4625C197.111 16.2178 197.072 16.7034 197.409 16.9192C197.485 16.9192 197.577 16.9192 197.684 16.9192C197.791 16.9346 198.012 16.8575 198.349 16.688C198.685 16.5338 199.06 16.318 199.472 16.0406C200.16 15.5627 200.772 15.0463 201.307 14.4914C201.154 14.476 201.024 14.4067 200.917 14.2833C200.825 14.16 200.787 14.0213 200.802 13.8672C200.817 13.713 200.886 13.5897 201.009 13.4972Z" stroke="url(#paint8_linear_61_29)"/>
<path d="M237.916 13.7745C238.069 13.7745 238.199 13.8284 238.306 13.9363C238.413 14.0442 238.466 14.1752 238.466 14.3294C238.466 14.4835 238.413 14.6145 238.306 14.7224C237.985 15.0461 237.587 15.3544 237.113 15.6473C236.655 15.9556 236.089 16.2485 235.417 16.5259C234.759 16.8034 234.148 17.0423 233.582 17.2427C233.017 17.4585 232.26 17.6974 231.312 17.9594C230.364 18.2215 229.6 18.4219 229.019 18.5606C228.454 18.7147 227.613 18.9305 226.497 19.208C224.433 19.7321 222.905 20.1328 221.911 20.4103C221.193 21.4431 220.207 22.445 218.953 23.4161C218.372 23.8631 217.776 24.2716 217.165 24.6415C216.553 25.0115 216.018 25.2889 215.559 25.4739C215.101 25.6743 214.734 25.7976 214.459 25.8438C214.306 25.8592 214.176 25.867 214.069 25.867C213.641 25.867 213.32 25.7513 213.106 25.5201C212.907 25.2889 212.854 24.996 212.945 24.6415C213.052 24.0404 213.335 23.4777 213.794 22.9537C214.252 22.445 214.872 21.9826 215.651 21.5664C216.431 21.1502 217.256 20.7725 218.128 20.4334C219.014 20.1097 220.046 19.7783 221.223 19.4392C221.621 18.8072 221.888 18.1907 222.026 17.5895C222.072 17.4045 222.041 17.2504 221.934 17.1271C221.858 17.0346 221.728 16.996 221.544 17.0115C221.086 17.0577 220.474 17.1733 219.71 17.3583C218.961 17.5433 218.258 17.813 217.6 18.1675C217.34 18.2908 217.111 18.2446 216.912 18.0288C216.729 17.8284 216.714 17.6049 216.866 17.3583C217.096 17.0038 218.059 16.0249 219.756 14.4219C221.544 12.7263 222.729 11.5471 223.31 10.8843C222.377 11.1155 221.315 11.5009 220.123 12.0404C218.945 12.5644 218.051 13.0731 217.44 13.5664C217.333 13.6589 217.272 13.7591 217.256 13.867C217.256 13.9286 217.264 13.9671 217.279 13.9826C217.402 14.075 217.478 14.1907 217.509 14.3294C217.539 14.4835 217.509 14.6223 217.417 14.7456C217.34 14.8843 217.226 14.9691 217.073 14.9999C216.935 15.0307 216.798 15.0076 216.66 14.9305C216.339 14.7147 216.163 14.391 216.133 13.9594C216.117 13.4508 216.316 13.0269 216.729 12.6878C217.6 11.9941 218.892 11.3005 220.604 10.6068C222.331 9.89781 223.631 9.5664 224.502 9.61265C224.701 9.62806 224.854 9.72055 224.961 9.8901C225.068 10.0442 225.083 10.2138 225.007 10.3987C224.838 10.8149 224.403 11.393 223.7 12.1328C222.996 12.8573 221.934 13.8901 220.512 15.2311C220.038 15.6935 219.679 16.0404 219.435 16.2716C220.199 16.0712 220.864 15.9479 221.43 15.9016C222.01 15.84 222.461 16.0018 222.782 16.3872C223.134 16.8034 223.241 17.2966 223.103 17.867C223.012 18.2523 222.882 18.6377 222.714 19.023C223.478 18.8226 224.647 18.5221 226.222 18.1213C227.475 17.813 228.423 17.5741 229.065 17.4045C229.722 17.235 230.578 16.9883 231.633 16.6646C232.703 16.3564 233.544 16.0789 234.156 15.8323C234.782 15.5856 235.409 15.2928 236.036 14.9537C236.678 14.6145 237.167 14.2754 237.503 13.9363C237.626 13.8284 237.763 13.7745 237.916 13.7745ZM218.288 22.5144C218.915 22.0211 219.48 21.5124 219.985 20.9883C216.393 22.1598 214.421 23.4084 214.069 24.734C214.13 24.734 214.207 24.734 214.298 24.734C214.619 24.6878 215.17 24.4565 215.949 24.0404C216.714 23.6242 217.493 23.1155 218.288 22.5144Z" stroke="url(#paint9_linear_61_29)"/>
<path d="M255.968 13.6819C256.12 13.7435 256.22 13.8437 256.266 13.9825C256.327 14.1212 256.327 14.2599 256.266 14.3986C256.204 14.5528 256.105 14.6607 255.968 14.7223C255.555 14.8765 255.104 15.0306 254.615 15.1848C254.125 15.3543 253.415 15.547 252.482 15.7628C251.55 15.9786 250.61 16.1405 249.662 16.2484C248.729 16.3717 247.621 16.4179 246.337 16.3871C245.068 16.3717 243.822 16.2561 242.599 16.0403C242.019 15.9324 241.499 15.7551 241.04 15.5085C241.04 15.5393 241.04 15.5701 241.04 15.601C240.994 15.7705 240.933 15.9709 240.857 16.2021C240.78 16.4487 240.597 16.811 240.306 17.2888C240.031 17.7667 239.718 18.0981 239.366 18.283C239.122 18.4372 238.862 18.5143 238.587 18.5143C238.434 18.5143 238.281 18.4911 238.128 18.4449C237.624 18.2753 237.272 17.9439 237.073 17.4507C236.859 16.9574 236.813 16.3485 236.936 15.6241C237.119 14.3447 237.593 13.2734 238.357 12.4102C239.122 11.5316 239.856 11.1385 240.559 11.231C240.819 11.2618 241.01 11.3852 241.132 11.601C241.27 11.8168 241.338 12.0634 241.338 12.3408C241.338 12.4796 241.292 12.6029 241.201 12.7108C241.109 12.8033 241.002 12.8649 240.88 12.8958C241.094 13.1886 241.201 13.6433 241.201 14.2599C241.583 14.5836 242.118 14.8071 242.806 14.9304C243.784 15.1154 244.77 15.231 245.764 15.2773C246.773 15.3235 247.705 15.3081 248.561 15.231C249.417 15.1539 250.212 15.0538 250.946 14.9304C251.68 14.8225 252.368 14.6761 253.01 14.4911C253.652 14.3216 254.156 14.1751 254.523 14.0518C254.905 13.9285 255.249 13.8052 255.555 13.6819C255.692 13.6202 255.83 13.6202 255.968 13.6819ZM239.596 13.8437C239.443 13.3351 239.504 12.9574 239.779 12.7108C239.917 12.5721 240.077 12.5104 240.261 12.5258C240.23 12.4796 240.215 12.4256 240.215 12.364C239.817 12.4873 239.382 12.8649 238.908 13.4969C238.449 14.1289 238.159 14.8919 238.036 15.7859C238.036 15.7859 238.036 15.7936 238.036 15.809C237.884 16.7031 238.021 17.2195 238.449 17.3582C238.571 17.4044 238.694 17.389 238.816 17.3119C239.061 17.1732 239.282 16.9035 239.481 16.5027C239.695 16.1019 239.848 15.7089 239.94 15.3235C239.985 15.1385 240.024 14.9304 240.054 14.6992C239.84 14.4218 239.687 14.1366 239.596 13.8437Z" stroke="url(#paint10_linear_61_29)"/>
<path d="M275.577 13.7747C275.729 13.8055 275.844 13.8903 275.921 14.029C276.012 14.1523 276.043 14.2833 276.012 14.4221C275.982 14.5762 275.905 14.6995 275.783 14.792C274.484 15.686 272.512 16.4799 269.867 17.1735C267.238 17.8672 264.922 18.214 262.919 18.214C262.629 18.214 262.346 18.2063 262.071 18.1909C260.665 18.083 259.732 17.6359 259.274 16.8498C259.075 16.4953 258.975 16.0868 258.975 15.6244C257.921 16.9038 257.065 17.8209 256.407 18.3758C255.765 18.9462 255.238 19.2313 254.825 19.2313C254.672 19.2313 254.519 19.1851 254.367 19.0926C254.107 18.9539 253.954 18.7149 253.908 18.3758C253.847 17.9905 253.939 17.4278 254.183 16.688C254.412 15.9481 254.695 15.2313 255.032 14.5377C255.368 13.844 255.681 13.2352 255.972 12.7111C256.262 12.1716 256.446 11.8556 256.522 11.7631C256.614 11.6552 256.736 11.5935 256.889 11.5781C257.057 11.5627 257.195 11.609 257.302 11.7169C257.424 11.8093 257.485 11.9327 257.485 12.0868C257.5 12.2409 257.462 12.3797 257.37 12.503C257.049 12.95 256.568 13.8672 255.926 15.2544C255.33 16.5492 255.024 17.4741 255.009 18.029C255.437 17.8132 256.094 17.2198 256.981 16.2487C257.623 15.5242 258.456 14.5068 259.48 13.1966C259.724 12.9038 259.87 12.7265 259.916 12.6648C260.007 12.5569 260.122 12.4953 260.259 12.4799C260.397 12.449 260.527 12.4722 260.649 12.5492C260.772 12.6263 260.848 12.7342 260.879 12.8729C260.924 12.9962 260.917 13.1273 260.856 13.266C260.153 14.7612 259.946 15.7708 260.237 16.2949C260.496 16.7419 261.131 16.9962 262.14 17.0579C263.944 17.1966 266.237 16.9192 269.019 16.2255C271.801 15.5473 273.849 14.7612 275.164 13.8672C275.286 13.7747 275.424 13.7438 275.577 13.7747Z" stroke="url(#paint11_linear_61_29)"/>
<path d="M296.45 13.7745C296.603 13.7745 296.732 13.8284 296.839 13.9363C296.946 14.0442 297 14.1752 297 14.3294C297 14.4835 296.946 14.6145 296.839 14.7224C296.518 15.0461 296.121 15.3544 295.647 15.6473C295.189 15.9556 294.623 16.2485 293.95 16.5259C293.293 16.8034 292.682 17.0423 292.116 17.2427C291.55 17.4585 290.794 17.6974 289.846 17.9594C288.898 18.2215 288.134 18.4219 287.553 18.5606C286.987 18.7147 286.147 18.9305 285.031 19.208C282.967 19.7321 281.438 20.1328 280.445 20.4103C279.726 21.4431 278.74 22.445 277.487 23.4161C276.906 23.8631 276.31 24.2716 275.698 24.6415C275.087 25.0115 274.552 25.2889 274.093 25.4739C273.635 25.6743 273.268 25.7976 272.993 25.8438C272.84 25.8592 272.71 25.867 272.603 25.867C272.175 25.867 271.854 25.7513 271.64 25.5201C271.441 25.2889 271.387 24.996 271.479 24.6415C271.586 24.0404 271.869 23.4777 272.328 22.9537C272.786 22.445 273.405 21.9826 274.185 21.5664C274.964 21.1502 275.79 20.7725 276.661 20.4334C277.548 20.1097 278.58 19.7783 279.757 19.4392C280.154 18.8072 280.422 18.1907 280.559 17.5895C280.605 17.4045 280.575 17.2504 280.468 17.1271C280.391 17.0346 280.261 16.996 280.078 17.0115C279.619 17.0577 279.008 17.1733 278.243 17.3583C277.494 17.5433 276.791 17.813 276.134 18.1675C275.874 18.2908 275.645 18.2446 275.446 18.0288C275.263 17.8284 275.247 17.6049 275.4 17.3583C275.629 17.0038 276.592 16.0249 278.289 14.4219C280.078 12.7263 281.263 11.5471 281.843 10.8843C280.911 11.1155 279.849 11.5009 278.656 12.0404C277.479 12.5644 276.585 13.0731 275.973 13.5664C275.866 13.6589 275.805 13.7591 275.79 13.867C275.79 13.9286 275.798 13.9671 275.813 13.9826C275.935 14.075 276.012 14.1907 276.042 14.3294C276.073 14.4835 276.042 14.6223 275.95 14.7456C275.874 14.8843 275.759 14.9691 275.607 14.9999C275.469 15.0307 275.331 15.0076 275.194 14.9305C274.873 14.7147 274.697 14.391 274.666 13.9594C274.651 13.4508 274.85 13.0269 275.263 12.6878C276.134 11.9941 277.426 11.3005 279.138 10.6068C280.865 9.89781 282.164 9.5664 283.036 9.61265C283.234 9.62806 283.387 9.72055 283.494 9.8901C283.601 10.0442 283.617 10.2138 283.54 10.3987C283.372 10.8149 282.936 11.393 282.233 12.1328C281.53 12.8573 280.468 13.8901 279.046 15.2311C278.572 15.6935 278.213 16.0404 277.968 16.2716C278.733 16.0712 279.398 15.9479 279.963 15.9016C280.544 15.84 280.995 16.0018 281.316 16.3872C281.668 16.8034 281.775 17.2966 281.637 17.867C281.545 18.2523 281.415 18.6377 281.247 19.023C282.012 18.8226 283.181 18.5221 284.755 18.1213C286.009 17.813 286.957 17.5741 287.599 17.4045C288.256 17.235 289.112 16.9883 290.167 16.6646C291.237 16.3564 292.078 16.0789 292.689 15.8323C293.316 15.5856 293.943 15.2928 294.569 14.9537C295.211 14.6145 295.701 14.2754 296.037 13.9363C296.159 13.8284 296.297 13.7745 296.45 13.7745ZM276.822 22.5144C277.449 22.0211 278.014 21.5124 278.519 20.9883C274.926 22.1598 272.954 23.4084 272.603 24.734C272.664 24.734 272.74 24.734 272.832 24.734C273.153 24.6878 273.703 24.4565 274.483 24.0404C275.247 23.6242 276.027 23.1155 276.822 22.5144Z" stroke="url(#paint12_linear_61_29)"/>
<path d="M36.0642 13.7052C36.2171 13.6281 36.3623 13.6204 36.4999 13.6821C36.6528 13.7283 36.7598 13.8208 36.8209 13.9595C36.8821 14.0983 36.8897 14.2447 36.8438 14.3988C36.691 14.7996 36.2247 15.4085 35.4451 16.2254C34.6808 17.0578 33.7636 17.921 32.6936 18.815C31.6388 19.7091 30.4464 20.5645 29.1165 21.3815C27.7866 22.2139 26.5789 22.7996 25.4936 23.1387C23.6898 23.6936 22.2529 23.5857 21.1828 22.815C21.1522 22.7996 21.1293 22.7842 21.114 22.7688C20.7777 22.4451 20.5102 22.0674 20.3115 21.6358C20.128 21.2042 19.9904 20.7803 19.8987 20.3642C19.8223 19.9634 19.807 19.4778 19.8529 18.9075C19.8987 18.3372 19.9522 17.8439 20.0134 17.4277C20.0745 17.0116 20.1968 16.4798 20.3803 15.8324C20.5637 15.2004 20.7089 14.7148 20.8159 14.3757C20.9382 14.0366 21.1064 13.5588 21.3204 12.9422C21.8401 11.447 22.1 10.5376 22.1 10.2139C21.993 10.2447 21.8478 10.2987 21.6643 10.3757C20.1051 11.1002 16.7421 14.5067 11.5752 20.5954C11.3765 20.8112 11.1472 20.8574 10.8873 20.7341C10.6427 20.6108 10.5434 20.4027 10.5892 20.1098C10.8338 19 12.4465 15.0848 15.4274 8.36416C16.0542 6.96146 16.4516 6.05973 16.6198 5.65896C14.9994 7.15414 12.8287 9.72832 10.1077 13.3815C8.13575 16.0173 6.43895 18.5067 5.0173 20.8497C3.61094 23.1927 2.64024 25.1118 2.10522 26.6069C2.02878 26.8381 1.87592 26.9692 1.64662 27C1.63133 27 1.6084 27 1.57783 27C1.37911 27 1.22624 26.9075 1.11923 26.7225C1.05809 26.6455 1.01987 26.5684 1.00459 26.4913C0.989299 26.4143 1.01223 26.237 1.07338 25.9595C1.13452 25.6975 1.25681 25.3353 1.44025 24.8728C1.62369 24.4104 1.89885 23.7553 2.26572 22.9075C2.64789 22.0597 3.12941 21.0193 3.7103 19.7861C4.81093 17.4432 6.6606 13.6358 9.25931 8.36416C9.79434 7.28516 10.1689 6.51445 10.3829 6.05202C8.83893 8.24085 7.90645 9.61272 7.58544 10.1676C7.509 10.2909 7.39435 10.3757 7.24149 10.422C7.10391 10.4528 6.96633 10.4297 6.82875 10.3526C6.69117 10.2755 6.59945 10.1676 6.55359 10.0289C6.52302 9.87476 6.54595 9.72832 6.62238 9.5896C6.9434 9.03468 7.95231 7.56262 9.64912 5.17341C11.3459 2.7842 12.4007 1.43545 12.8134 1.12717C13.0427 0.95761 13.2644 0.95761 13.4784 1.12717C13.6924 1.29672 13.7535 1.50482 13.6618 1.75145C13.5548 2.10597 12.4236 4.47977 10.2682 8.87283C8.67842 12.0944 7.46314 14.5761 6.62238 16.3179C7.49372 15.0539 8.38798 13.7977 9.30517 12.5491C9.68733 12.0559 10.1306 11.4855 10.6351 10.8382C11.1548 10.1753 11.8809 9.2736 12.8134 8.13295C13.7612 6.97688 14.6325 6.01349 15.4274 5.24277C16.2376 4.45665 16.8261 4.03276 17.193 3.9711C17.4835 3.90944 17.7128 3.98651 17.8809 4.20231C18.1102 4.47977 18.0949 4.95761 17.835 5.63584C17.728 5.9133 17.2618 6.97688 16.4363 8.82659C14.6019 12.9576 13.3408 15.8863 12.6529 17.6127C14.8083 15.1464 16.5739 13.2505 17.9497 11.9249C19.3255 10.5838 20.4032 9.72832 21.1828 9.35838C21.9624 8.98844 22.528 8.97303 22.8796 9.31214C23.0478 9.46628 23.1548 9.65125 23.2006 9.86705C23.2465 10.0829 23.2235 10.3911 23.1318 10.7919C23.0554 11.1927 22.9637 11.5472 22.8567 11.8555C22.765 12.1638 22.6044 12.6493 22.3751 13.3121C22.1458 13.975 21.9701 14.4836 21.8478 14.8382C21.7408 15.2081 21.5879 15.7245 21.3892 16.3873C21.2057 17.0501 21.0911 17.5973 21.0452 18.0289C20.9994 18.4759 20.9688 18.9615 20.9535 19.4855C20.9535 20.0096 21.0299 20.4721 21.1828 20.8728C21.3357 21.2736 21.565 21.6204 21.8707 21.9133C22.635 22.4528 23.7356 22.5067 25.1726 22.0751C26.2274 21.736 27.3968 21.158 28.6808 20.341C29.9649 19.5395 31.0961 18.7148 32.0744 17.8671C33.0528 17.0193 33.8859 16.2254 34.5738 15.4856C35.277 14.7611 35.6821 14.2678 35.7891 14.0058C35.8349 13.8671 35.9267 13.7669 36.0642 13.7052Z" stroke="url(#paint13_linear_61_29)"/>
<path d="M54.5258 13.6819C54.6786 13.7435 54.778 13.8437 54.8238 13.9825C54.885 14.1212 54.885 14.2599 54.8238 14.3986C54.7627 14.5528 54.6633 14.6607 54.5258 14.7223C54.113 14.8765 53.6621 15.0306 53.1729 15.1848C52.6837 15.3543 51.9729 15.547 51.0404 15.7628C50.1079 15.9786 49.1678 16.1405 48.2201 16.2484C47.2876 16.3717 46.1793 16.4179 44.8952 16.3871C43.6265 16.3717 42.3806 16.2561 41.1577 16.0403C40.5768 15.9324 40.0571 15.7551 39.5985 15.5085C39.5985 15.5393 39.5985 15.5701 39.5985 15.601C39.5526 15.7705 39.4915 15.9709 39.415 16.2021C39.3386 16.4487 39.1552 16.811 38.8647 17.2888C38.5896 17.7667 38.2762 18.0981 37.9246 18.283C37.68 18.4372 37.4201 18.5143 37.145 18.5143C36.9921 18.5143 36.8392 18.4911 36.6864 18.4449C36.1819 18.2753 35.8303 17.9439 35.6316 17.4507C35.4176 16.9574 35.3717 16.3485 35.494 15.6241C35.6775 14.3447 36.1513 13.2734 36.9157 12.4102C37.68 11.5316 38.4138 11.1385 39.1169 11.231C39.3768 11.2618 39.5679 11.3852 39.6902 11.601C39.8278 11.8168 39.8965 12.0634 39.8965 12.3408C39.8965 12.4796 39.8507 12.6029 39.759 12.7108C39.6673 12.8033 39.5602 12.8649 39.438 12.8958C39.652 13.1886 39.759 13.6433 39.759 14.2599C40.1411 14.5836 40.6762 14.8071 41.3641 14.9304C42.3424 15.1154 43.3284 15.231 44.322 15.2773C45.3309 15.3235 46.2634 15.3081 47.1194 15.231C47.9755 15.1539 48.7704 15.0538 49.5041 14.9304C50.2379 14.8225 50.9258 14.6761 51.5678 14.4911C52.2098 14.3216 52.7143 14.1751 53.0812 14.0518C53.4633 13.9285 53.8073 13.8052 54.113 13.6819C54.2506 13.6202 54.3882 13.6202 54.5258 13.6819ZM38.1539 13.8437C38.001 13.3351 38.0622 12.9574 38.3373 12.7108C38.4749 12.5721 38.6354 12.5104 38.8188 12.5258C38.7883 12.4796 38.773 12.4256 38.773 12.364C38.3755 12.4873 37.9399 12.8649 37.466 13.4969C37.0074 14.1289 36.717 14.8919 36.5947 15.7859C36.5947 15.7859 36.5947 15.7936 36.5947 15.809C36.4418 16.7031 36.5794 17.2195 37.0074 17.3582C37.1297 17.4044 37.252 17.389 37.3743 17.3119C37.6189 17.1732 37.8405 16.9035 38.0392 16.5027C38.2532 16.1019 38.4061 15.7089 38.4978 15.3235C38.5437 15.1385 38.5819 14.9304 38.6125 14.6992C38.3985 14.4218 38.2456 14.1366 38.1539 13.8437Z" stroke="url(#paint14_linear_61_29)"/>
<path d="M71.475 13.8207C71.6278 13.8515 71.7425 13.9363 71.8189 14.075C71.8954 14.2138 71.9106 14.3525 71.8648 14.4912C71.8342 14.6454 71.7501 14.761 71.6126 14.8381C70.2368 15.655 68.7463 16.3718 67.1412 16.9883C65.5362 17.6049 64.0763 18.0519 62.7617 18.3294C61.4623 18.6223 60.3158 18.8303 59.3222 18.9537C58.3286 19.077 57.5948 19.1078 57.1209 19.0461C56.7693 18.9999 56.4713 18.8997 56.2267 18.7456C55.9821 18.6068 55.7987 18.4219 55.6764 18.1907C55.5694 17.9749 55.4929 17.7899 55.4471 17.6357C55.4165 17.497 55.3859 17.3197 55.3553 17.1039C54.9426 17.4585 54.2853 18.2138 53.3834 19.3698C53.2611 19.5086 53.1159 19.5779 52.9477 19.5779C52.9171 19.5779 52.8866 19.5779 52.856 19.5779C52.642 19.5471 52.4968 19.4238 52.4203 19.208C52.2675 18.8072 52.4433 17.8361 52.9477 16.2947C53.177 15.5856 53.4675 14.7841 53.819 13.8901C53.8343 13.8438 53.8496 13.7976 53.8649 13.7513C54.1248 13.0731 54.4076 12.3795 54.7133 11.6704C55.0496 10.8689 55.4088 10.0519 55.791 9.21952C56.1885 8.37174 56.7158 7.36981 57.3732 6.21374C58.0305 5.04226 58.5808 4.25613 59.0241 3.85536C59.4521 3.45459 59.8572 3.3544 60.2394 3.55478C60.3158 3.58561 60.3846 3.63956 60.4458 3.71663C61.4394 5.11933 60.8203 7.29274 58.5884 10.2369C57.9617 11.0693 57.2814 11.8785 56.5477 12.6646C55.8139 13.4508 55.2407 14.0211 54.828 14.3756C54.4458 15.3467 54.1324 16.2176 53.8878 16.9883C54.3311 16.4951 54.6827 16.1714 54.9426 16.0172C55.2025 15.8631 55.4471 15.8014 55.6764 15.8323C55.8751 15.8477 56.0356 15.9248 56.1579 16.0635C56.2802 16.2176 56.3566 16.3486 56.3872 16.4565C56.4178 16.5799 56.4407 16.7417 56.456 16.9421C56.5018 17.2812 56.5706 17.5201 56.6623 17.6589C56.7541 17.7976 56.9528 17.8901 57.2585 17.9363C57.6865 17.9826 58.3744 17.944 59.3222 17.8207C60.27 17.6974 61.3629 17.497 62.6012 17.2196C63.8546 16.9421 65.2457 16.5028 66.7744 15.9016C68.3183 15.3159 69.74 14.6377 71.0393 13.867C71.1769 13.7899 71.3221 13.7745 71.475 13.8207ZM56.0662 11.3698C56.0203 11.4623 55.9744 11.5625 55.9286 11.6704C56.6623 10.8689 57.3197 10.0828 57.9006 9.31201C58.4814 8.5413 58.9706 7.71663 59.3681 6.83802C59.7655 5.95941 59.8802 5.25806 59.712 4.73397C59.3757 5.07309 58.8865 5.80527 58.2445 6.93051C57.6025 8.04033 56.8764 9.5201 56.0662 11.3698Z" stroke="url(#paint15_linear_61_29)"/>
<path d="M90.9216 13.4972C91.0745 13.4972 91.2044 13.5512 91.3114 13.6591C91.4337 13.767 91.4948 13.898 91.4948 14.0521C91.4948 14.2063 91.4413 14.3373 91.3343 14.4452C89.4541 16.3874 87.2146 17.7284 84.6159 18.4683C83.4388 18.8228 82.3 19.0001 81.1994 19.0001C80.0682 19.0001 79.0822 18.8151 78.2414 18.4452C76.8809 17.8594 76.0402 16.9038 75.7191 15.5781C75.1841 16.0868 74.6262 16.5492 74.0453 16.9654C72.5166 18.029 71.4083 18.3296 70.7204 17.8672C70.5982 17.7747 70.4835 17.6591 70.3765 17.5203C70.2695 17.397 70.1701 17.2198 70.0784 16.9885C69.9867 16.7573 69.9714 16.4567 70.0326 16.0868C70.0937 15.7323 70.2466 15.3392 70.4912 14.9076C70.858 14.214 71.3931 13.528 72.0962 12.8498C72.7994 12.1562 73.5408 11.6167 74.3204 11.2313C75.1153 10.8305 75.7574 10.7458 76.2465 10.977C76.7051 11.1774 76.965 11.5011 77.0261 11.9481C77.1026 12.4876 76.858 13.081 76.2924 13.7284C76.2924 13.7438 76.3 13.7515 76.3153 13.7515C76.5752 13.8286 76.7051 14.0136 76.7051 14.3065C76.6593 15.7862 77.3166 16.819 78.6771 17.4047C79.3803 17.713 80.2134 17.8672 81.1764 17.8672C82.1548 17.8672 83.1713 17.7207 84.2261 17.4278C85.2962 17.1504 86.3891 16.6803 87.5051 16.0174C88.621 15.37 89.6299 14.5839 90.5318 13.6591C90.6388 13.5512 90.7687 13.4972 90.9216 13.4972ZM74.9395 13.4972C75.2605 13.2198 75.5051 12.95 75.6733 12.688C75.8567 12.4105 75.9408 12.2178 75.9255 12.1099C75.9255 12.0791 75.8797 12.0406 75.7879 11.9943C75.7421 11.9789 75.6886 11.9712 75.6274 11.9712C75.1688 11.9712 74.4733 12.3411 73.5408 13.081C72.6236 13.8055 71.9281 14.5993 71.4542 15.4625C71.0415 16.2178 71.0032 16.7034 71.3395 16.9192C71.416 16.9192 71.5077 16.9192 71.6147 16.9192C71.7217 16.9346 71.9434 16.8575 72.2797 16.688C72.616 16.5338 72.9905 16.318 73.4032 16.0406C74.0911 15.5627 74.7026 15.0463 75.2376 14.4914C75.0847 14.476 74.9548 14.4067 74.8478 14.2833C74.7561 14.16 74.7179 14.0213 74.7332 13.8672C74.7484 13.713 74.8172 13.5897 74.9395 13.4972Z" stroke="url(#paint16_linear_61_29)"/>
<path d="M112.993 13.7283C113.146 13.6975 113.284 13.7283 113.406 13.8208C113.544 13.8979 113.628 14.0135 113.658 14.1676C113.704 14.3218 113.681 14.4605 113.59 14.5838C113.269 15.0925 112.565 15.6243 111.48 16.1792C110.41 16.7495 109.241 17.2428 107.972 17.659C104.639 18.738 101.888 19 99.7171 18.4451C97.9592 17.9981 97.2025 16.7495 97.4471 14.6994C97.2789 14.8227 97.0267 15.0385 96.6904 15.3468C95.8191 16.1021 95.1923 16.58 94.8102 16.7803C94.6267 16.8728 94.4433 16.8728 94.2598 16.7803C93.7554 16.4875 93.6407 15.9326 93.9159 15.1156C93.977 14.9615 94.0535 14.7842 94.1452 14.5838C92.6471 16.1869 91.2178 17.8285 89.8573 19.5087C89.7503 19.6474 89.6051 19.7168 89.4217 19.7168C89.4064 19.7168 89.3834 19.7168 89.3529 19.7168C89.1541 19.7013 89.0089 19.6012 88.9172 19.4162C88.7949 19.1696 88.8561 18.7071 89.1006 18.0289C89.3299 17.3507 89.8803 16.1098 90.7516 14.3064C90.721 14.2909 90.6981 14.2755 90.6828 14.2601C90.5605 14.1522 90.4917 14.0212 90.4764 13.8671C90.4611 13.7129 90.507 13.5819 90.614 13.474C90.9044 13.1195 91.2866 12.7572 91.7605 12.3873C92.0051 12.2023 92.2344 12.2023 92.4484 12.3873C92.6777 12.5723 92.7312 12.8035 92.6089 13.0809C92.563 13.1734 92.4407 13.42 92.242 13.8208C91.7376 14.8227 91.3172 15.6936 90.9809 16.4335C91.4089 15.9249 91.8216 15.4547 92.2191 15.0231C93.0293 14.1137 93.6866 13.4123 94.1911 12.9191C94.6191 12.5029 94.9554 12.2254 95.2 12.0867C95.4445 11.948 95.6738 11.9249 95.8879 12.0173C96.1936 12.1407 96.3235 12.3873 96.2777 12.7572C96.2624 12.8035 96.2471 12.842 96.2318 12.8728C96.1554 13.0886 95.9643 13.4894 95.6586 14.0751C95.3834 14.5838 95.1923 14.9692 95.0853 15.2312C95.2688 15.0771 95.5592 14.8304 95.9566 14.4913C96.7668 13.7823 97.3324 13.3584 97.6535 13.2197C97.898 13.0193 98.1426 12.9807 98.3872 13.104C98.5706 13.2119 98.67 13.3738 98.6853 13.5896C98.7159 13.8054 98.7006 14.0212 98.6394 14.237C98.5783 14.6994 98.5324 15.131 98.5019 15.5318C98.4866 15.948 98.6012 16.3179 98.8458 16.6416C99.0904 16.9807 99.4725 17.2197 99.9923 17.3584C101.062 17.6204 102.278 17.659 103.638 17.474C104.999 17.3044 106.313 17.0116 107.582 16.5954C108.851 16.1946 109.959 15.7476 110.907 15.2543C111.855 14.7611 112.436 14.3372 112.65 13.9827C112.741 13.8439 112.856 13.7592 112.993 13.7283Z" stroke="url(#paint17_linear_61_29)"/>
<path d="M130.278 13.6819C130.431 13.6665 130.561 13.7127 130.668 13.8206C130.79 13.9285 130.851 14.0595 130.851 14.2137C130.866 14.3678 130.821 14.5065 130.714 14.6299C130.423 14.9381 130.01 15.2618 129.475 15.601C128.94 15.9401 128.321 16.2638 127.618 16.5721C126.93 16.8958 126.166 17.1963 125.325 17.4738C124.5 17.7667 123.651 18.021 122.78 18.2368C120.945 18.6838 119.295 18.9073 117.827 18.9073C115.947 18.9073 114.51 18.5297 113.516 17.7744C112.951 17.3582 112.568 16.8418 112.37 16.2252C112.171 15.6087 112.186 14.9767 112.416 14.3293C112.63 13.7127 112.974 13.1963 113.447 12.7801C113.921 12.364 114.395 12.1636 114.869 12.179C115.312 12.1944 115.679 12.3563 115.97 12.6645C116.23 12.9574 116.352 13.3274 116.337 13.7744C116.321 14.3447 116.092 14.838 115.649 15.2541C115.19 15.6857 114.716 15.8861 114.227 15.8553C113.906 15.8399 113.623 15.7705 113.379 15.6472C113.455 16.125 113.723 16.5335 114.181 16.8726C114.9 17.4121 115.993 17.705 117.46 17.7512C118.943 17.7975 120.632 17.5894 122.528 17.127C124.133 16.7416 125.638 16.2329 127.045 15.601C128.451 14.9844 129.399 14.4064 129.888 13.8669C129.995 13.7435 130.125 13.6819 130.278 13.6819ZM114.846 13.3119C114.647 13.3119 114.426 13.4198 114.181 13.6356C113.937 13.8514 113.738 14.1135 113.585 14.4218C113.738 14.6222 113.967 14.73 114.273 14.7455C114.456 14.7455 114.663 14.6376 114.892 14.4218C115.106 14.2214 115.221 13.9902 115.236 13.7281C115.236 13.5894 115.205 13.4892 115.144 13.4275C115.083 13.3505 114.984 13.3119 114.846 13.3119Z" stroke="url(#paint18_linear_61_29)"/>
<path d="M150.59 13.7053C150.743 13.7361 150.857 13.8209 150.934 13.9596C151.01 14.083 151.026 14.2217 150.98 14.3758C150.949 14.53 150.873 14.6456 150.75 14.7226C146.302 17.4356 142.779 19.054 140.18 19.5781C139.553 19.7014 138.98 19.7631 138.46 19.7631C136.962 19.7631 135.884 19.2467 135.227 18.214C134.6 17.2583 134.424 15.8941 134.7 14.1215C132.835 16.5724 131.398 18.029 130.389 18.4914C129.823 18.7535 129.349 18.7304 128.967 18.4221C128.402 17.9596 128.371 17.1504 128.875 15.9943C129.151 15.3469 129.594 14.6225 130.205 13.8209C130.802 13.004 131.474 12.2949 132.223 11.6937C132.972 11.0772 133.591 10.7997 134.08 10.8614C134.539 10.923 134.883 11.1774 135.112 11.6244C135.219 11.4548 135.334 11.2853 135.456 11.1157C135.502 10.9616 135.556 10.7997 135.617 10.6302C136.06 9.41244 136.572 8.26408 137.153 7.18508C137.749 6.09067 138.215 5.42786 138.552 5.19664C138.735 5.05791 138.926 5.0425 139.125 5.1504C139.339 5.2583 139.438 5.42786 139.423 5.65907C139.423 6.15233 139.14 6.94616 138.575 8.04057C138.024 9.13499 137.321 10.3296 136.465 11.6244C135.517 14.4914 135.426 16.4953 136.19 17.6359C136.893 18.7149 138.445 18.9153 140.845 18.2371C143.26 17.5743 146.371 16.0791 150.177 13.7515C150.299 13.6745 150.437 13.6591 150.59 13.7053ZM134.172 12.8498C134.203 12.5724 134.18 12.3411 134.103 12.1562C134.058 12.0483 133.996 11.9866 133.92 11.9712C133.844 11.9712 133.729 12.0097 133.576 12.0868C133.423 12.1639 133.201 12.318 132.911 12.5492C132.636 12.7804 132.338 13.0579 132.017 13.3816C131.038 14.4298 130.335 15.4548 129.907 16.4567C129.663 17.0117 129.586 17.3739 129.678 17.5435C129.892 17.528 130.221 17.3354 130.664 16.9654C131.642 16.1639 132.812 14.8305 134.172 12.9654C134.172 12.9192 134.172 12.8806 134.172 12.8498Z" stroke="url(#paint19_linear_61_29)"/>
<path d="M197.222 13.7052C197.375 13.6281 197.52 13.6204 197.658 13.6821C197.811 13.7283 197.918 13.8208 197.979 13.9595C198.04 14.0983 198.048 14.2447 198.002 14.3988C197.849 14.7996 197.383 15.4085 196.603 16.2254C195.839 17.0578 194.921 17.921 193.851 18.815C192.797 19.7091 191.604 20.5645 190.274 21.3815C188.944 22.2139 187.737 22.7996 186.651 23.1387C184.848 23.6936 183.411 23.5857 182.341 22.815C182.31 22.7996 182.287 22.7842 182.272 22.7688C181.936 22.4451 181.668 22.0674 181.469 21.6358C181.286 21.2042 181.148 20.7803 181.057 20.3642C180.98 19.9634 180.965 19.4778 181.011 18.9075C181.057 18.3372 181.11 17.8439 181.171 17.4277C181.232 17.0116 181.355 16.4798 181.538 15.8324C181.722 15.2004 181.867 14.7148 181.974 14.3757C182.096 14.0366 182.264 13.5588 182.478 12.9422C182.998 11.447 183.258 10.5376 183.258 10.2139C183.151 10.2447 183.006 10.2987 182.822 10.3757C181.263 11.1002 177.9 14.5067 172.733 20.5954C172.534 20.8112 172.305 20.8574 172.045 20.7341C171.801 20.6108 171.701 20.4027 171.747 20.1098C171.992 19 173.604 15.0848 176.585 8.36416C177.212 6.96146 177.609 6.05973 177.778 5.65896C176.157 7.15414 173.987 9.72832 171.266 13.3815C169.294 16.0173 167.597 18.5067 166.175 20.8497C164.769 23.1927 163.798 25.1118 163.263 26.6069C163.187 26.8381 163.034 26.9692 162.805 27C162.789 27 162.766 27 162.736 27C162.537 27 162.384 26.9075 162.277 26.7225C162.216 26.6455 162.178 26.5684 162.162 26.4913C162.147 26.4143 162.17 26.237 162.231 25.9595C162.292 25.6975 162.415 25.3353 162.598 24.8728C162.782 24.4104 163.057 23.7553 163.424 22.9075C163.806 22.0597 164.287 21.0193 164.868 19.7861C165.969 17.4432 167.818 13.6358 170.417 8.36416C170.952 7.28516 171.327 6.51445 171.541 6.05202C169.997 8.24085 169.064 9.61272 168.743 10.1676C168.667 10.2909 168.552 10.3757 168.399 10.422C168.262 10.4528 168.124 10.4297 167.987 10.3526C167.849 10.2755 167.757 10.1676 167.711 10.0289C167.681 9.87476 167.704 9.72832 167.78 9.5896C168.101 9.03468 169.11 7.56262 170.807 5.17341C172.504 2.7842 173.559 1.43545 173.971 1.12717C174.201 0.95761 174.422 0.95761 174.636 1.12717C174.85 1.29672 174.911 1.50482 174.82 1.75145C174.713 2.10597 173.582 4.47977 171.426 8.87283C169.836 12.0944 168.621 14.5761 167.78 16.3179C168.652 15.0539 169.546 13.7977 170.463 12.5491C170.845 12.0559 171.289 11.4855 171.793 10.8382C172.313 10.1753 173.039 9.2736 173.971 8.13295C174.919 6.97688 175.79 6.01349 176.585 5.24277C177.395 4.45665 177.984 4.03276 178.351 3.9711C178.641 3.90944 178.871 3.98651 179.039 4.20231C179.268 4.47977 179.253 4.95761 178.993 5.63584C178.886 5.9133 178.42 6.97688 177.594 8.82659C175.76 12.9576 174.499 15.8863 173.811 17.6127C175.966 15.1464 177.732 13.2505 179.108 11.9249C180.483 10.5838 181.561 9.72832 182.341 9.35838C183.12 8.98844 183.686 8.97303 184.037 9.31214C184.206 9.46628 184.313 9.65125 184.358 9.86705C184.404 10.0829 184.381 10.3911 184.29 10.7919C184.213 11.1927 184.122 11.5472 184.015 11.8555C183.923 12.1638 183.762 12.6493 183.533 13.3121C183.304 13.975 183.128 14.4836 183.006 14.8382C182.899 15.2081 182.746 15.7245 182.547 16.3873C182.364 17.0501 182.249 17.5973 182.203 18.0289C182.157 18.4759 182.127 18.9615 182.111 19.4855C182.111 20.0096 182.188 20.4721 182.341 20.8728C182.494 21.2736 182.723 21.6204 183.029 21.9133C183.793 22.4528 184.894 22.5067 186.33 22.0751C187.385 21.736 188.555 21.158 189.839 20.341C191.123 19.5395 192.254 18.7148 193.232 17.8671C194.211 17.0193 195.044 16.2254 195.732 15.4856C196.435 14.7611 196.84 14.2678 196.947 14.0058C196.993 13.8671 197.085 13.7669 197.222 13.7052Z" stroke="url(#paint20_linear_61_29)"/>
<path d="M216.991 13.4972C217.144 13.4972 217.273 13.5512 217.38 13.6591C217.503 13.767 217.564 13.898 217.564 14.0521C217.564 14.2063 217.51 14.3373 217.403 14.4452C215.523 16.3874 213.284 17.7284 210.685 18.4683C209.508 18.8228 208.369 19.0001 207.268 19.0001C206.137 19.0001 205.151 18.8151 204.31 18.4452C202.95 17.8594 202.109 16.9038 201.788 15.5781C201.253 16.0868 200.695 16.5492 200.114 16.9654C198.586 18.029 197.477 18.3296 196.789 17.8672C196.667 17.7747 196.553 17.6591 196.446 17.5203C196.339 17.397 196.239 17.2198 196.147 16.9885C196.056 16.7573 196.04 16.4567 196.102 16.0868C196.163 15.7323 196.316 15.3392 196.56 14.9076C196.927 14.214 197.462 13.528 198.165 12.8498C198.868 12.1562 199.61 11.6167 200.389 11.2313C201.184 10.8305 201.826 10.7458 202.316 10.977C202.774 11.1774 203.034 11.5011 203.095 11.9481C203.172 12.4876 202.927 13.081 202.361 13.7284C202.361 13.7438 202.369 13.7515 202.384 13.7515C202.644 13.8286 202.774 14.0136 202.774 14.3065C202.728 15.7862 203.386 16.819 204.746 17.4047C205.449 17.713 206.282 17.8672 207.245 17.8672C208.224 17.8672 209.24 17.7207 210.295 17.4278C211.365 17.1504 212.458 16.6803 213.574 16.0174C214.69 15.37 215.699 14.5839 216.601 13.6591C216.708 13.5512 216.838 13.4972 216.991 13.4972ZM201.009 13.4972C201.33 13.2198 201.574 12.95 201.742 12.688C201.926 12.4105 202.01 12.2178 201.995 12.1099C201.995 12.0791 201.949 12.0406 201.857 11.9943C201.811 11.9789 201.758 11.9712 201.696 11.9712C201.238 11.9712 200.542 12.3411 199.61 13.081C198.693 13.8055 197.997 14.5993 197.523 15.4625C197.111 16.2178 197.072 16.7034 197.409 16.9192C197.485 16.9192 197.577 16.9192 197.684 16.9192C197.791 16.9346 198.012 16.8575 198.349 16.688C198.685 16.5338 199.06 16.318 199.472 16.0406C200.16 15.5627 200.772 15.0463 201.307 14.4914C201.154 14.476 201.024 14.4067 200.917 14.2833C200.825 14.16 200.787 14.0213 200.802 13.8672C200.817 13.713 200.886 13.5897 201.009 13.4972Z" stroke="url(#paint21_linear_61_29)"/>
<path d="M237.916 13.7745C238.069 13.7745 238.199 13.8284 238.306 13.9363C238.413 14.0442 238.466 14.1752 238.466 14.3294C238.466 14.4835 238.413 14.6145 238.306 14.7224C237.985 15.0461 237.587 15.3544 237.113 15.6473C236.655 15.9556 236.089 16.2485 235.417 16.5259C234.759 16.8034 234.148 17.0423 233.582 17.2427C233.017 17.4585 232.26 17.6974 231.312 17.9594C230.364 18.2215 229.6 18.4219 229.019 18.5606C228.454 18.7147 227.613 18.9305 226.497 19.208C224.433 19.7321 222.905 20.1328 221.911 20.4103C221.193 21.4431 220.207 22.445 218.953 23.4161C218.372 23.8631 217.776 24.2716 217.165 24.6415C216.553 25.0115 216.018 25.2889 215.559 25.4739C215.101 25.6743 214.734 25.7976 214.459 25.8438C214.306 25.8592 214.176 25.867 214.069 25.867C213.641 25.867 213.32 25.7513 213.106 25.5201C212.907 25.2889 212.854 24.996 212.945 24.6415C213.052 24.0404 213.335 23.4777 213.794 22.9537C214.252 22.445 214.872 21.9826 215.651 21.5664C216.431 21.1502 217.256 20.7725 218.128 20.4334C219.014 20.1097 220.046 19.7783 221.223 19.4392C221.621 18.8072 221.888 18.1907 222.026 17.5895C222.072 17.4045 222.041 17.2504 221.934 17.1271C221.858 17.0346 221.728 16.996 221.544 17.0115C221.086 17.0577 220.474 17.1733 219.71 17.3583C218.961 17.5433 218.258 17.813 217.6 18.1675C217.34 18.2908 217.111 18.2446 216.912 18.0288C216.729 17.8284 216.714 17.6049 216.866 17.3583C217.096 17.0038 218.059 16.0249 219.756 14.4219C221.544 12.7263 222.729 11.5471 223.31 10.8843C222.377 11.1155 221.315 11.5009 220.123 12.0404C218.945 12.5644 218.051 13.0731 217.44 13.5664C217.333 13.6589 217.272 13.7591 217.256 13.867C217.256 13.9286 217.264 13.9671 217.279 13.9826C217.402 14.075 217.478 14.1907 217.509 14.3294C217.539 14.4835 217.509 14.6223 217.417 14.7456C217.34 14.8843 217.226 14.9691 217.073 14.9999C216.935 15.0307 216.798 15.0076 216.66 14.9305C216.339 14.7147 216.163 14.391 216.133 13.9594C216.117 13.4508 216.316 13.0269 216.729 12.6878C217.6 11.9941 218.892 11.3005 220.604 10.6068C222.331 9.89781 223.631 9.5664 224.502 9.61265C224.701 9.62806 224.854 9.72055 224.961 9.8901C225.068 10.0442 225.083 10.2138 225.007 10.3987C224.838 10.8149 224.403 11.393 223.7 12.1328C222.996 12.8573 221.934 13.8901 220.512 15.2311C220.038 15.6935 219.679 16.0404 219.435 16.2716C220.199 16.0712 220.864 15.9479 221.43 15.9016C222.01 15.84 222.461 16.0018 222.782 16.3872C223.134 16.8034 223.241 17.2966 223.103 17.867C223.012 18.2523 222.882 18.6377 222.714 19.023C223.478 18.8226 224.647 18.5221 226.222 18.1213C227.475 17.813 228.423 17.5741 229.065 17.4045C229.722 17.235 230.578 16.9883 231.633 16.6646C232.703 16.3564 233.544 16.0789 234.156 15.8323C234.782 15.5856 235.409 15.2928 236.036 14.9537C236.678 14.6145 237.167 14.2754 237.503 13.9363C237.626 13.8284 237.763 13.7745 237.916 13.7745ZM218.288 22.5144C218.915 22.0211 219.48 21.5124 219.985 20.9883C216.393 22.1598 214.421 23.4084 214.069 24.734C214.13 24.734 214.207 24.734 214.298 24.734C214.619 24.6878 215.17 24.4565 215.949 24.0404C216.714 23.6242 217.493 23.1155 218.288 22.5144Z" stroke="url(#paint22_linear_61_29)"/>
<path d="M255.968 13.6819C256.12 13.7435 256.22 13.8437 256.266 13.9825C256.327 14.1212 256.327 14.2599 256.266 14.3986C256.204 14.5528 256.105 14.6607 255.968 14.7223C255.555 14.8765 255.104 15.0306 254.615 15.1848C254.125 15.3543 253.415 15.547 252.482 15.7628C251.55 15.9786 250.61 16.1405 249.662 16.2484C248.729 16.3717 247.621 16.4179 246.337 16.3871C245.068 16.3717 243.822 16.2561 242.599 16.0403C242.019 15.9324 241.499 15.7551 241.04 15.5085C241.04 15.5393 241.04 15.5701 241.04 15.601C240.994 15.7705 240.933 15.9709 240.857 16.2021C240.78 16.4487 240.597 16.811 240.306 17.2888C240.031 17.7667 239.718 18.0981 239.366 18.283C239.122 18.4372 238.862 18.5143 238.587 18.5143C238.434 18.5143 238.281 18.4911 238.128 18.4449C237.624 18.2753 237.272 17.9439 237.073 17.4507C236.859 16.9574 236.813 16.3485 236.936 15.6241C237.119 14.3447 237.593 13.2734 238.357 12.4102C239.122 11.5316 239.856 11.1385 240.559 11.231C240.819 11.2618 241.01 11.3852 241.132 11.601C241.27 11.8168 241.338 12.0634 241.338 12.3408C241.338 12.4796 241.292 12.6029 241.201 12.7108C241.109 12.8033 241.002 12.8649 240.88 12.8958C241.094 13.1886 241.201 13.6433 241.201 14.2599C241.583 14.5836 242.118 14.8071 242.806 14.9304C243.784 15.1154 244.77 15.231 245.764 15.2773C246.773 15.3235 247.705 15.3081 248.561 15.231C249.417 15.1539 250.212 15.0538 250.946 14.9304C251.68 14.8225 252.368 14.6761 253.01 14.4911C253.652 14.3216 254.156 14.1751 254.523 14.0518C254.905 13.9285 255.249 13.8052 255.555 13.6819C255.692 13.6202 255.83 13.6202 255.968 13.6819ZM239.596 13.8437C239.443 13.3351 239.504 12.9574 239.779 12.7108C239.917 12.5721 240.077 12.5104 240.261 12.5258C240.23 12.4796 240.215 12.4256 240.215 12.364C239.817 12.4873 239.382 12.8649 238.908 13.4969C238.449 14.1289 238.159 14.8919 238.036 15.7859C238.036 15.7859 238.036 15.7936 238.036 15.809C237.884 16.7031 238.021 17.2195 238.449 17.3582C238.571 17.4044 238.694 17.389 238.816 17.3119C239.061 17.1732 239.282 16.9035 239.481 16.5027C239.695 16.1019 239.848 15.7089 239.94 15.3235C239.985 15.1385 240.024 14.9304 240.054 14.6992C239.84 14.4218 239.687 14.1366 239.596 13.8437Z" stroke="url(#paint23_linear_61_29)"/>
<path d="M275.577 13.7747C275.729 13.8055 275.844 13.8903 275.921 14.029C276.012 14.1523 276.043 14.2833 276.012 14.4221C275.982 14.5762 275.905 14.6995 275.783 14.792C274.484 15.686 272.512 16.4799 269.867 17.1735C267.238 17.8672 264.922 18.214 262.919 18.214C262.629 18.214 262.346 18.2063 262.071 18.1909C260.665 18.083 259.732 17.6359 259.274 16.8498C259.075 16.4953 258.975 16.0868 258.975 15.6244C257.921 16.9038 257.065 17.8209 256.407 18.3758C255.765 18.9462 255.238 19.2313 254.825 19.2313C254.672 19.2313 254.519 19.1851 254.367 19.0926C254.107 18.9539 253.954 18.7149 253.908 18.3758C253.847 17.9905 253.939 17.4278 254.183 16.688C254.412 15.9481 254.695 15.2313 255.032 14.5377C255.368 13.844 255.681 13.2352 255.972 12.7111C256.262 12.1716 256.446 11.8556 256.522 11.7631C256.614 11.6552 256.736 11.5935 256.889 11.5781C257.057 11.5627 257.195 11.609 257.302 11.7169C257.424 11.8093 257.485 11.9327 257.485 12.0868C257.5 12.2409 257.462 12.3797 257.37 12.503C257.049 12.95 256.568 13.8672 255.926 15.2544C255.33 16.5492 255.024 17.4741 255.009 18.029C255.437 17.8132 256.094 17.2198 256.981 16.2487C257.623 15.5242 258.456 14.5068 259.48 13.1966C259.724 12.9038 259.87 12.7265 259.916 12.6648C260.007 12.5569 260.122 12.4953 260.259 12.4799C260.397 12.449 260.527 12.4722 260.649 12.5492C260.772 12.6263 260.848 12.7342 260.879 12.8729C260.924 12.9962 260.917 13.1273 260.856 13.266C260.153 14.7612 259.946 15.7708 260.237 16.2949C260.496 16.7419 261.131 16.9962 262.14 17.0579C263.944 17.1966 266.237 16.9192 269.019 16.2255C271.801 15.5473 273.849 14.7612 275.164 13.8672C275.286 13.7747 275.424 13.7438 275.577 13.7747Z" stroke="url(#paint24_linear_61_29)"/>
<path d="M296.45 13.7745C296.603 13.7745 296.732 13.8284 296.839 13.9363C296.946 14.0442 297 14.1752 297 14.3294C297 14.4835 296.946 14.6145 296.839 14.7224C296.518 15.0461 296.121 15.3544 295.647 15.6473C295.189 15.9556 294.623 16.2485 293.95 16.5259C293.293 16.8034 292.682 17.0423 292.116 17.2427C291.55 17.4585 290.794 17.6974 289.846 17.9594C288.898 18.2215 288.134 18.4219 287.553 18.5606C286.987 18.7147 286.147 18.9305 285.031 19.208C282.967 19.7321 281.438 20.1328 280.445 20.4103C279.726 21.4431 278.74 22.445 277.487 23.4161C276.906 23.8631 276.31 24.2716 275.698 24.6415C275.087 25.0115 274.552 25.2889 274.093 25.4739C273.635 25.6743 273.268 25.7976 272.993 25.8438C272.84 25.8592 272.71 25.867 272.603 25.867C272.175 25.867 271.854 25.7513 271.64 25.5201C271.441 25.2889 271.387 24.996 271.479 24.6415C271.586 24.0404 271.869 23.4777 272.328 22.9537C272.786 22.445 273.405 21.9826 274.185 21.5664C274.964 21.1502 275.79 20.7725 276.661 20.4334C277.548 20.1097 278.58 19.7783 279.757 19.4392C280.154 18.8072 280.422 18.1907 280.559 17.5895C280.605 17.4045 280.575 17.2504 280.468 17.1271C280.391 17.0346 280.261 16.996 280.078 17.0115C279.619 17.0577 279.008 17.1733 278.243 17.3583C277.494 17.5433 276.791 17.813 276.134 18.1675C275.874 18.2908 275.645 18.2446 275.446 18.0288C275.263 17.8284 275.247 17.6049 275.4 17.3583C275.629 17.0038 276.592 16.0249 278.289 14.4219C280.078 12.7263 281.263 11.5471 281.843 10.8843C280.911 11.1155 279.849 11.5009 278.656 12.0404C277.479 12.5644 276.585 13.0731 275.973 13.5664C275.866 13.6589 275.805 13.7591 275.79 13.867C275.79 13.9286 275.798 13.9671 275.813 13.9826C275.935 14.075 276.012 14.1907 276.042 14.3294C276.073 14.4835 276.042 14.6223 275.95 14.7456C275.874 14.8843 275.759 14.9691 275.607 14.9999C275.469 15.0307 275.331 15.0076 275.194 14.9305C274.873 14.7147 274.697 14.391 274.666 13.9594C274.651 13.4508 274.85 13.0269 275.263 12.6878C276.134 11.9941 277.426 11.3005 279.138 10.6068C280.865 9.89781 282.164 9.5664 283.036 9.61265C283.234 9.62806 283.387 9.72055 283.494 9.8901C283.601 10.0442 283.617 10.2138 283.54 10.3987C283.372 10.8149 282.936 11.393 282.233 12.1328C281.53 12.8573 280.468 13.8901 279.046 15.2311C278.572 15.6935 278.213 16.0404 277.968 16.2716C278.733 16.0712 279.398 15.9479 279.963 15.9016C280.544 15.84 280.995 16.0018 281.316 16.3872C281.668 16.8034 281.775 17.2966 281.637 17.867C281.545 18.2523 281.415 18.6377 281.247 19.023C282.012 18.8226 283.181 18.5221 284.755 18.1213C286.009 17.813 286.957 17.5741 287.599 17.4045C288.256 17.235 289.112 16.9883 290.167 16.6646C291.237 16.3564 292.078 16.0789 292.689 15.8323C293.316 15.5856 293.943 15.2928 294.569 14.9537C295.211 14.6145 295.701 14.2754 296.037 13.9363C296.159 13.8284 296.297 13.7745 296.45 13.7745ZM276.822 22.5144C277.449 22.0211 278.014 21.5124 278.519 20.9883C274.926 22.1598 272.954 23.4084 272.603 24.734C272.664 24.734 272.74 24.734 272.832 24.734C273.153 24.6878 273.703 24.4565 274.483 24.0404C275.247 23.6242 276.027 23.1155 276.822 22.5144Z" stroke="url(#paint25_linear_61_29)"/>
<defs>
<linearGradient id="paint0_linear_61_29" x1="18.9367" y1="1" x2="18.9367" y2="27" gradientUnits="userSpaceOnUse">
<stop stop-color="#404040"/>
<stop offset="1"/>
</linearGradient>
<linearGradient id="paint1_linear_61_29" x1="45.1485" y1="11.2178" x2="45.1485" y2="18.5143" gradientUnits="userSpaceOnUse">
<stop stop-color="#404040"/>
<stop offset="1"/>
</linearGradient>
<linearGradient id="paint2_linear_61_29" x1="62.1288" y1="3.45459" x2="62.1288" y2="19.5779" gradientUnits="userSpaceOnUse">
<stop stop-color="#404040"/>
<stop offset="1"/>
</linearGradient>
<linearGradient id="paint3_linear_61_29" x1="80.7453" y1="10.8501" x2="80.7453" y2="19.0001" gradientUnits="userSpaceOnUse">
<stop stop-color="#404040"/>
<stop offset="1"/>
</linearGradient>
<linearGradient id="paint4_linear_61_29" x1="101.269" y1="11.9619" x2="101.269" y2="19.7168" gradientUnits="userSpaceOnUse">
<stop stop-color="#404040"/>
<stop offset="1"/>
</linearGradient>
<linearGradient id="paint5_linear_61_29" x1="121.543" y1="12.1782" x2="121.543" y2="18.9073" gradientUnits="userSpaceOnUse">
<stop stop-color="#404040"/>
<stop offset="1"/>
</linearGradient>
<linearGradient id="paint6_linear_61_29" x1="139.762" y1="5.07959" x2="139.762" y2="19.7631" gradientUnits="userSpaceOnUse">
<stop stop-color="#404040"/>
<stop offset="1"/>
</linearGradient>
<linearGradient id="paint7_linear_61_29" x1="180.095" y1="1" x2="180.095" y2="27" gradientUnits="userSpaceOnUse">
<stop stop-color="#404040"/>
<stop offset="1"/>
</linearGradient>
<linearGradient id="paint8_linear_61_29" x1="206.814" y1="10.8501" x2="206.814" y2="19.0001" gradientUnits="userSpaceOnUse">
<stop stop-color="#404040"/>
<stop offset="1"/>
</linearGradient>
<linearGradient id="paint9_linear_61_29" x1="225.684" y1="9.6084" x2="225.684" y2="25.867" gradientUnits="userSpaceOnUse">
<stop stop-color="#404040"/>
<stop offset="1"/>
</linearGradient>
<linearGradient id="paint10_linear_61_29" x1="246.59" y1="11.2178" x2="246.59" y2="18.5143" gradientUnits="userSpaceOnUse">
<stop stop-color="#404040"/>
<stop offset="1"/>
</linearGradient>
<linearGradient id="paint11_linear_61_29" x1="264.957" y1="11.5752" x2="264.957" y2="19.2313" gradientUnits="userSpaceOnUse">
<stop stop-color="#404040"/>
<stop offset="1"/>
</linearGradient>
<linearGradient id="paint12_linear_61_29" x1="284.218" y1="9.6084" x2="284.218" y2="25.867" gradientUnits="userSpaceOnUse">
<stop stop-color="#404040"/>
<stop offset="1"/>
</linearGradient>
<linearGradient id="paint13_linear_61_29" x1="18.9367" y1="1" x2="18.9367" y2="27" gradientUnits="userSpaceOnUse">
<stop stop-color="#404040"/>
<stop offset="1"/>
</linearGradient>
<linearGradient id="paint14_linear_61_29" x1="45.1485" y1="11.2178" x2="45.1485" y2="18.5143" gradientUnits="userSpaceOnUse">
<stop stop-color="#404040"/>
<stop offset="1"/>
</linearGradient>
<linearGradient id="paint15_linear_61_29" x1="62.1288" y1="3.45459" x2="62.1288" y2="19.5779" gradientUnits="userSpaceOnUse">
<stop stop-color="#404040"/>
<stop offset="1"/>
</linearGradient>
<linearGradient id="paint16_linear_61_29" x1="80.7453" y1="10.8501" x2="80.7453" y2="19.0001" gradientUnits="userSpaceOnUse">
<stop stop-color="#404040"/>
<stop offset="1"/>
</linearGradient>
<linearGradient id="paint17_linear_61_29" x1="101.269" y1="11.9619" x2="101.269" y2="19.7168" gradientUnits="userSpaceOnUse">
<stop stop-color="#404040"/>
<stop offset="1"/>
</linearGradient>
<linearGradient id="paint18_linear_61_29" x1="121.543" y1="12.1782" x2="121.543" y2="18.9073" gradientUnits="userSpaceOnUse">
<stop stop-color="#404040"/>
<stop offset="1"/>
</linearGradient>
<linearGradient id="paint19_linear_61_29" x1="139.762" y1="5.07959" x2="139.762" y2="19.7631" gradientUnits="userSpaceOnUse">
<stop stop-color="#404040"/>
<stop offset="1"/>
</linearGradient>
<linearGradient id="paint20_linear_61_29" x1="180.095" y1="1" x2="180.095" y2="27" gradientUnits="userSpaceOnUse">
<stop stop-color="#404040"/>
<stop offset="1"/>
</linearGradient>
<linearGradient id="paint21_linear_61_29" x1="206.814" y1="10.8501" x2="206.814" y2="19.0001" gradientUnits="userSpaceOnUse">
<stop stop-color="#404040"/>
<stop offset="1"/>
</linearGradient>
<linearGradient id="paint22_linear_61_29" x1="225.684" y1="9.6084" x2="225.684" y2="25.867" gradientUnits="userSpaceOnUse">
<stop stop-color="#404040"/>
<stop offset="1"/>
</linearGradient>
<linearGradient id="paint23_linear_61_29" x1="246.59" y1="11.2178" x2="246.59" y2="18.5143" gradientUnits="userSpaceOnUse">
<stop stop-color="#404040"/>
<stop offset="1"/>
</linearGradient>
<linearGradient id="paint24_linear_61_29" x1="264.957" y1="11.5752" x2="264.957" y2="19.2313" gradientUnits="userSpaceOnUse">
<stop stop-color="#404040"/>
<stop offset="1"/>
</linearGradient>
<linearGradient id="paint25_linear_61_29" x1="284.218" y1="9.6084" x2="284.218" y2="25.867" gradientUnits="userSpaceOnUse">
<stop stop-color="#404040"/>
<stop offset="1"/>
</linearGradient>
</defs>
</svg>
