<svg width="298" height="28" viewBox="0 0 298 28" fill="none" xmlns="http://www.w3.org/2000/svg">
<path d="M36.0642 13.7052C36.2171 13.6281 36.3623 13.6204 36.4999 13.6821C36.6528 13.7283 36.7598 13.8208 36.8209 13.9595C36.8821 14.0983 36.8897 14.2447 36.8438 14.3988C36.691 14.7996 36.2247 15.4085 35.4451 16.2254C34.6808 17.0578 33.7636 17.921 32.6936 18.815C31.6388 19.7091 30.4464 20.5645 29.1165 21.3815C27.7866 22.2139 26.5789 22.7996 25.4936 23.1387C23.6898 23.6936 22.2529 23.5857 21.1828 22.815C21.1522 22.7996 21.1293 22.7842 21.114 22.7688C20.7777 22.4451 20.5102 22.0674 20.3115 21.6358C20.128 21.2042 19.9904 20.7803 19.8987 20.3642C19.8223 19.9634 19.807 19.4778 19.8529 18.9075C19.8987 18.3372 19.9522 17.8439 20.0134 17.4277C20.0745 17.0116 20.1968 16.4798 20.3803 15.8324C20.5637 15.2004 20.7089 14.7148 20.8159 14.3757C20.9382 14.0366 21.1064 13.5588 21.3204 12.9422C21.8401 11.447 22.1 10.5376 22.1 10.2139C21.993 10.2447 21.8478 10.2987 21.6643 10.3757C20.1051 11.1002 16.7421 14.5067 11.5752 20.5954C11.3765 20.8112 11.1472 20.8574 10.8873 20.7341C10.6427 20.6108 10.5434 20.4027 10.5892 20.1098C10.8338 19 12.4465 15.0848 15.4274 8.36416C16.0542 6.96146 16.4516 6.05973 16.6198 5.65896C14.9994 7.15414 12.8287 9.72832 10.1077 13.3815C8.13575 16.0173 6.43895 18.5067 5.0173 20.8497C3.61094 23.1927 2.64024 25.1118 2.10522 26.6069C2.02878 26.8381 1.87592 26.9692 1.64662 27C1.63133 27 1.6084 27 1.57783 27C1.37911 27 1.22624 26.9075 1.11923 26.7225C1.05809 26.6455 1.01987 26.5684 1.00459 26.4913C0.989299 26.4143 1.01223 26.237 1.07338 25.9595C1.13452 25.6975 1.25681 25.3353 1.44025 24.8728C1.62369 24.4104 1.89885 23.7553 2.26572 22.9075C2.64789 22.0597 3.12941 21.0193 3.7103 19.7861C4.81093 17.4432 6.6606 13.6358 9.25931 8.36416C9.79434 7.28516 10.1689 6.51445 10.3829 6.05202C8.83893 8.24085 7.90645 9.61272 7.58544 10.1676C7.509 10.2909 7.39435 10.3757 7.24149 10.422C7.10391 10.4528 6.96633 10.4297 6.82875 10.3526C6.69117 10.2755 6.59945 10.1676 6.55359 10.0289C6.52302 9.87476 6.54595 9.72832 6.62238 9.5896C6.9434 9.03468 7.95231 7.56262 9.64912 5.17341C11.3459 2.7842 12.4007 1.43545 12.8134 1.12717C13.0427 0.957611 13.2644 0.957611 13.4784 1.12717C13.6924 1.29672 13.7535 1.50482 13.6618 1.75145C13.5548 2.10597 12.4236 4.47977 10.2682 8.87283C8.67842 12.0944 7.46314 14.5761 6.62238 16.3179C7.49372 15.0539 8.38798 13.7977 9.30517 12.5491C9.68733 12.0559 10.1306 11.4855 10.6351 10.8382C11.1548 10.1753 11.8809 9.2736 12.8134 8.13295C13.7612 6.97688 14.6325 6.01349 15.4274 5.24277C16.2376 4.45665 16.8261 4.03276 17.193 3.9711C17.4835 3.90944 17.7128 3.98651 17.8809 4.20231C18.1102 4.47977 18.0949 4.95761 17.835 5.63584C17.728 5.9133 17.2618 6.97688 16.4363 8.82659C14.6019 12.9576 13.3408 15.8863 12.6529 17.6127C14.8083 15.1464 16.5739 13.2505 17.9497 11.9249C19.3255 10.5838 20.4032 9.72832 21.1828 9.35838C21.9624 8.98844 22.528 8.97303 22.8796 9.31214C23.0478 9.46628 23.1548 9.65125 23.2006 9.86705C23.2465 10.0829 23.2235 10.3911 23.1318 10.7919C23.0554 11.1927 22.9637 11.5472 22.8567 11.8555C22.765 12.1638 22.6044 12.6493 22.3751 13.3121C22.1458 13.975 21.9701 14.4836 21.8478 14.8382C21.7408 15.2081 21.5879 15.7245 21.3892 16.3873C21.2057 17.0501 21.0911 17.5973 21.0452 18.0289C20.9994 18.4759 20.9688 18.9615 20.9535 19.4855C20.9535 20.0096 21.0299 20.4721 21.1828 20.8728C21.3357 21.2736 21.565 21.6204 21.8707 21.9133C22.635 22.4528 23.7356 22.5067 25.1726 22.0751C26.2274 21.736 27.3968 21.158 28.6808 20.341C29.9649 19.5395 31.0961 18.7148 32.0744 17.8671C33.0528 17.0193 33.8859 16.2254 34.5738 15.4856C35.277 14.7611 35.6821 14.2678 35.7891 14.0058C35.8349 13.8671 35.9267 13.7669 36.0642 13.7052Z" fill="black"/>
<path d="M54.5258 13.6821C54.6786 13.7437 54.778 13.8439 54.8238 13.9827C54.885 14.1214 54.885 14.2601 54.8238 14.3988C54.7627 14.553 54.6633 14.6609 54.5258 14.7225C54.113 14.8767 53.6621 15.0308 53.1729 15.185C52.6837 15.3545 51.9729 15.5472 51.0404 15.763C50.1079 15.9788 49.1678 16.1407 48.2201 16.2486C47.2876 16.3719 46.1793 16.4181 44.8952 16.3873C43.6265 16.3719 42.3806 16.2563 41.1577 16.0405C40.5768 15.9326 40.0571 15.7553 39.5985 15.5087C39.5985 15.5395 39.5985 15.5703 39.5985 15.6012C39.5526 15.7707 39.4915 15.9711 39.415 16.2023C39.3386 16.4489 39.1552 16.8112 38.8647 17.289C38.5896 17.7669 38.2762 18.0983 37.9246 18.2832C37.68 18.4374 37.4201 18.5145 37.145 18.5145C36.9921 18.5145 36.8392 18.4913 36.6864 18.4451C36.1819 18.2755 35.8303 17.9441 35.6316 17.4509C35.4176 16.9576 35.3717 16.3487 35.494 15.6243C35.6775 14.3449 36.1513 13.2736 36.9157 12.4104C37.68 11.5318 38.4138 11.1387 39.1169 11.2312C39.3768 11.262 39.5679 11.3854 39.6902 11.6012C39.8278 11.817 39.8965 12.0636 39.8965 12.341C39.8965 12.4798 39.8507 12.6031 39.759 12.711C39.6673 12.8035 39.5602 12.8651 39.438 12.896C39.652 13.1888 39.759 13.6435 39.759 14.2601C40.1411 14.5838 40.6762 14.8073 41.3641 14.9306C42.3424 15.1156 43.3284 15.2312 44.322 15.2775C45.3309 15.3237 46.2634 15.3083 47.1194 15.2312C47.9755 15.1541 48.7704 15.054 49.5041 14.9306C50.2379 14.8227 50.9258 14.6763 51.5678 14.4913C52.2098 14.3218 52.7143 14.1753 53.0812 14.052C53.4633 13.9287 53.8073 13.8054 54.113 13.6821C54.2506 13.6204 54.3882 13.6204 54.5258 13.6821ZM38.1539 13.8439C38.001 13.3353 38.0622 12.9576 38.3373 12.711C38.4749 12.5723 38.6354 12.5106 38.8188 12.526C38.7883 12.4798 38.773 12.4258 38.773 12.3642C38.3755 12.4875 37.9399 12.8651 37.466 13.4971C37.0074 14.1291 36.717 14.8921 36.5947 15.7861C36.5947 15.7861 36.5947 15.7938 36.5947 15.8092C36.4418 16.7033 36.5794 17.2197 37.0074 17.3584C37.1297 17.4046 37.252 17.3892 37.3743 17.3121C37.6189 17.1734 37.8405 16.9037 38.0392 16.5029C38.2532 16.1021 38.4061 15.7091 38.4978 15.3237C38.5437 15.1387 38.5819 14.9306 38.6125 14.6994C38.3985 14.422 38.2456 14.1368 38.1539 13.8439Z" fill="black"/>
<path d="M71.475 13.8208C71.6278 13.8516 71.7425 13.9364 71.8189 14.0751C71.8954 14.2139 71.9106 14.3526 71.8648 14.4913C71.8342 14.6455 71.7501 14.7611 71.6126 14.8382C70.2368 15.6551 68.7463 16.3719 67.1412 16.9884C65.5362 17.605 64.0763 18.052 62.7617 18.3295C61.4623 18.6224 60.3158 18.8304 59.3222 18.9538C58.3286 19.0771 57.5948 19.1079 57.1209 19.0462C56.7693 19 56.4713 18.8998 56.2267 18.7457C55.9821 18.6069 55.7987 18.422 55.6764 18.1908C55.5694 17.975 55.4929 17.79 55.4471 17.6358C55.4165 17.4971 55.3859 17.3198 55.3553 17.104C54.9426 17.4586 54.2853 18.2139 53.3834 19.3699C53.2611 19.5087 53.1159 19.578 52.9477 19.578C52.9171 19.578 52.8866 19.578 52.856 19.578C52.642 19.5472 52.4968 19.4239 52.4203 19.2081C52.2675 18.8073 52.4433 17.8362 52.9477 16.2948C53.177 15.5857 53.4675 14.7842 53.819 13.8902C53.8343 13.8439 53.8496 13.7977 53.8649 13.7514C54.1248 13.0732 54.4076 12.3796 54.7133 11.6705C55.0496 10.869 55.4088 10.052 55.791 9.21965C56.1885 8.37187 56.7158 7.36994 57.3732 6.21387C58.0305 5.04239 58.5808 4.25626 59.0241 3.85549C59.4521 3.45472 59.8572 3.35453 60.2394 3.55491C60.3158 3.58574 60.3846 3.63969 60.4458 3.71676C61.4394 5.11946 60.8203 7.29287 58.5884 10.237C57.9617 11.0694 57.2814 11.8786 56.5477 12.6647C55.8139 13.4509 55.2407 14.0212 54.828 14.3757C54.4458 15.3468 54.1324 16.2177 53.8878 16.9884C54.3311 16.4952 54.6827 16.1715 54.9426 16.0173C55.2025 15.8632 55.4471 15.8015 55.6764 15.8324C55.8751 15.8478 56.0356 15.9249 56.1579 16.0636C56.2802 16.2177 56.3566 16.3487 56.3872 16.4566C56.4178 16.58 56.4407 16.7418 56.456 16.9422C56.5018 17.2813 56.5706 17.5202 56.6623 17.659C56.7541 17.7977 56.9528 17.8902 57.2585 17.9364C57.6865 17.9827 58.3744 17.9441 59.3222 17.8208C60.27 17.6975 61.3629 17.4971 62.6012 17.2197C63.8546 16.9422 65.2457 16.5029 66.7744 15.9017C68.3183 15.316 69.74 14.6378 71.0393 13.8671C71.1769 13.79 71.3221 13.7746 71.475 13.8208ZM56.0662 11.3699C56.0203 11.4624 55.9744 11.5626 55.9286 11.6705C56.6623 10.869 57.3197 10.0829 57.9006 9.31214C58.4814 8.54143 58.9706 7.71676 59.3681 6.83815C59.7655 5.95954 59.8802 5.25819 59.712 4.7341C59.3757 5.07322 58.8865 5.8054 58.2445 6.93064C57.6025 8.04046 56.8764 9.52023 56.0662 11.3699Z" fill="black"/>
<path d="M90.9216 13.4971C91.0745 13.4971 91.2044 13.5511 91.3114 13.659C91.4337 13.7669 91.4948 13.8979 91.4948 14.052C91.4948 14.2062 91.4413 14.3372 91.3343 14.4451C89.4541 16.3873 87.2146 17.7283 84.6159 18.4682C83.4388 18.8227 82.3 19 81.1994 19C80.0682 19 79.0822 18.815 78.2414 18.4451C76.8809 17.8593 76.0402 16.9037 75.7191 15.578C75.1841 16.0867 74.6262 16.5491 74.0453 16.9653C72.5166 18.0289 71.4083 18.3295 70.7204 17.8671C70.5982 17.7746 70.4835 17.659 70.3765 17.5202C70.2695 17.3969 70.1701 17.2197 70.0784 16.9884C69.9867 16.7572 69.9714 16.4566 70.0326 16.0867C70.0937 15.7322 70.2466 15.3391 70.4912 14.9075C70.858 14.2139 71.3931 13.5279 72.0962 12.8497C72.7994 12.1561 73.5408 11.6166 74.3204 11.2312C75.1153 10.8304 75.7574 10.7457 76.2465 10.9769C76.7051 11.1773 76.965 11.501 77.0261 11.948C77.1026 12.4875 76.858 13.0809 76.2924 13.7283C76.2924 13.7437 76.3 13.7514 76.3153 13.7514C76.5752 13.8285 76.7051 14.0135 76.7051 14.3064C76.6593 15.7861 77.3166 16.8189 78.6771 17.4046C79.3803 17.7129 80.2134 17.8671 81.1764 17.8671C82.1548 17.8671 83.1713 17.7206 84.2261 17.4277C85.2962 17.1503 86.3891 16.6802 87.5051 16.0173C88.621 15.3699 89.6299 14.5838 90.5318 13.659C90.6388 13.5511 90.7687 13.4971 90.9216 13.4971ZM74.9395 13.4971C75.2605 13.2197 75.5051 12.9499 75.6733 12.6879C75.8567 12.4104 75.9408 12.2177 75.9255 12.1098C75.9255 12.079 75.8797 12.0405 75.7879 11.9942C75.7421 11.9788 75.6886 11.9711 75.6274 11.9711C75.1688 11.9711 74.4733 12.341 73.5408 13.0809C72.6236 13.8054 71.9281 14.5992 71.4542 15.4624C71.0415 16.2177 71.0032 16.7033 71.3395 16.9191C71.416 16.9191 71.5077 16.9191 71.6147 16.9191C71.7217 16.9345 71.9434 16.8574 72.2797 16.6879C72.616 16.5337 72.9905 16.3179 73.4032 16.0405C74.0911 15.5626 74.7026 15.0462 75.2376 14.4913C75.0847 14.4759 74.9548 14.4066 74.8478 14.2832C74.7561 14.1599 74.7179 14.0212 74.7332 13.8671C74.7484 13.7129 74.8172 13.5896 74.9395 13.4971Z" fill="black"/>
<path d="M112.993 13.7283C113.146 13.6975 113.284 13.7283 113.406 13.8208C113.544 13.8979 113.628 14.0135 113.658 14.1676C113.704 14.3218 113.681 14.4605 113.59 14.5838C113.269 15.0925 112.565 15.6243 111.48 16.1792C110.41 16.7495 109.241 17.2428 107.972 17.659C104.639 18.738 101.888 19 99.7171 18.4451C97.9592 17.9981 97.2025 16.7495 97.4471 14.6994C97.2789 14.8227 97.0267 15.0385 96.6904 15.3468C95.8191 16.1021 95.1923 16.58 94.8102 16.7803C94.6267 16.8728 94.4433 16.8728 94.2598 16.7803C93.7554 16.4875 93.6407 15.9326 93.9159 15.1156C93.977 14.9615 94.0535 14.7842 94.1452 14.5838C92.6471 16.1869 91.2178 17.8285 89.8573 19.5087C89.7503 19.6474 89.6051 19.7168 89.4217 19.7168C89.4064 19.7168 89.3834 19.7168 89.3529 19.7168C89.1541 19.7013 89.0089 19.6012 88.9172 19.4162C88.7949 19.1696 88.8561 18.7071 89.1006 18.0289C89.3299 17.3507 89.8803 16.1098 90.7516 14.3064C90.721 14.2909 90.6981 14.2755 90.6828 14.2601C90.5605 14.1522 90.4917 14.0212 90.4764 13.8671C90.4611 13.7129 90.507 13.5819 90.614 13.474C90.9044 13.1195 91.2866 12.7572 91.7605 12.3873C92.0051 12.2023 92.2344 12.2023 92.4484 12.3873C92.6777 12.5723 92.7312 12.8035 92.6089 13.0809C92.563 13.1734 92.4407 13.42 92.242 13.8208C91.7376 14.8227 91.3172 15.6936 90.9809 16.4335C91.4089 15.9249 91.8216 15.4547 92.2191 15.0231C93.0293 14.1137 93.6866 13.4123 94.1911 12.9191C94.6191 12.5029 94.9554 12.2254 95.2 12.0867C95.4445 11.948 95.6738 11.9249 95.8879 12.0173C96.1936 12.1407 96.3235 12.3873 96.2777 12.7572C96.2624 12.8035 96.2471 12.842 96.2318 12.8728C96.1554 13.0886 95.9643 13.4894 95.6586 14.0751C95.3834 14.5838 95.1923 14.9692 95.0853 15.2312C95.2688 15.0771 95.5592 14.8304 95.9566 14.4913C96.7668 13.7823 97.3324 13.3584 97.6535 13.2197C97.898 13.0193 98.1426 12.9807 98.3872 13.104C98.5706 13.2119 98.67 13.3738 98.6853 13.5896C98.7159 13.8054 98.7006 14.0212 98.6394 14.237C98.5783 14.6994 98.5324 15.131 98.5019 15.5318C98.4866 15.948 98.6012 16.3179 98.8458 16.6416C99.0904 16.9807 99.4725 17.2197 99.9923 17.3584C101.062 17.6204 102.278 17.659 103.638 17.474C104.999 17.3044 106.313 17.0116 107.582 16.5954C108.851 16.1946 109.959 15.7476 110.907 15.2543C111.855 14.7611 112.436 14.3372 112.65 13.9827C112.741 13.8439 112.856 13.7592 112.993 13.7283Z" fill="black"/>
<path d="M130.278 13.6821C130.431 13.6667 130.561 13.7129 130.668 13.8208C130.79 13.9287 130.851 14.0597 130.851 14.2139C130.866 14.368 130.821 14.5067 130.714 14.6301C130.423 14.9383 130.01 15.262 129.475 15.6012C128.94 15.9403 128.321 16.264 127.618 16.5723C126.93 16.896 126.166 17.1965 125.325 17.474C124.5 17.7669 123.651 18.0212 122.78 18.237C120.945 18.684 119.295 18.9075 117.827 18.9075C115.947 18.9075 114.51 18.5299 113.516 17.7746C112.951 17.3584 112.568 16.842 112.37 16.2254C112.171 15.6089 112.186 14.9769 112.416 14.3295C112.63 13.7129 112.974 13.1965 113.447 12.7803C113.921 12.3642 114.395 12.1638 114.869 12.1792C115.312 12.1946 115.679 12.3565 115.97 12.6647C116.23 12.9576 116.352 13.3276 116.337 13.7746C116.321 14.3449 116.092 14.8382 115.649 15.2543C115.19 15.6859 114.716 15.8863 114.227 15.8555C113.906 15.8401 113.623 15.7707 113.379 15.6474C113.455 16.1252 113.723 16.5337 114.181 16.8728C114.9 17.4123 115.993 17.7052 117.46 17.7514C118.943 17.7977 120.632 17.5896 122.528 17.1272C124.133 16.7418 125.638 16.2331 127.045 15.6012C128.451 14.9846 129.399 14.4066 129.888 13.8671C129.995 13.7437 130.125 13.6821 130.278 13.6821ZM114.846 13.3121C114.647 13.3121 114.426 13.42 114.181 13.6358C113.937 13.8516 113.738 14.1137 113.585 14.422C113.738 14.6224 113.967 14.7302 114.273 14.7457C114.456 14.7457 114.663 14.6378 114.892 14.422C115.106 14.2216 115.221 13.9904 115.236 13.7283C115.236 13.5896 115.205 13.4894 115.144 13.4277C115.083 13.3507 114.984 13.3121 114.846 13.3121Z" fill="black"/>
<path d="M150.59 13.7052C150.743 13.736 150.857 13.8208 150.934 13.9595C151.01 14.0829 151.026 14.2216 150.98 14.3757C150.949 14.5299 150.873 14.6455 150.75 14.7225C146.302 17.4355 142.779 19.0539 140.18 19.578C139.553 19.7013 138.98 19.763 138.46 19.763C136.962 19.763 135.884 19.2466 135.227 18.2139C134.6 17.2582 134.424 15.894 134.7 14.1214C132.835 16.5723 131.398 18.0289 130.389 18.4913C129.823 18.7534 129.349 18.7303 128.967 18.422C128.402 17.9595 128.371 17.1503 128.875 15.9942C129.151 15.3468 129.594 14.6224 130.205 13.8208C130.802 13.0039 131.474 12.2948 132.223 11.6936C132.972 11.0771 133.591 10.7996 134.08 10.8613C134.539 10.9229 134.883 11.1773 135.112 11.6243C135.219 11.4547 135.334 11.2852 135.456 11.1156C135.502 10.9615 135.556 10.7996 135.617 10.6301C136.06 9.41233 136.572 8.26397 137.153 7.18497C137.749 6.09056 138.215 5.42775 138.552 5.19653C138.735 5.0578 138.926 5.04239 139.125 5.15029C139.339 5.25819 139.438 5.42775 139.423 5.65896C139.423 6.15222 139.14 6.94605 138.575 8.04046C138.024 9.13488 137.321 10.3295 136.465 11.6243C135.517 14.4913 135.426 16.4952 136.19 17.6358C136.893 18.7148 138.445 18.9152 140.845 18.237C143.26 17.5742 146.371 16.079 150.177 13.7514C150.299 13.6744 150.437 13.659 150.59 13.7052ZM134.172 12.8497C134.203 12.5723 134.18 12.341 134.103 12.1561C134.058 12.0482 133.996 11.9865 133.92 11.9711C133.844 11.9711 133.729 12.0096 133.576 12.0867C133.423 12.1638 133.201 12.3179 132.911 12.5491C132.636 12.7803 132.338 13.0578 132.017 13.3815C131.038 14.4297 130.335 15.4547 129.907 16.4566C129.663 17.0116 129.586 17.3738 129.678 17.5434C129.892 17.5279 130.221 17.3353 130.664 16.9653C131.642 16.1638 132.812 14.8304 134.172 12.9653C134.172 12.9191 134.172 12.8805 134.172 12.8497Z" fill="black"/>
<path d="M197.222 13.7052C197.375 13.6281 197.52 13.6204 197.658 13.6821C197.811 13.7283 197.918 13.8208 197.979 13.9595C198.04 14.0983 198.048 14.2447 198.002 14.3988C197.849 14.7996 197.383 15.4085 196.603 16.2254C195.839 17.0578 194.921 17.921 193.851 18.815C192.797 19.7091 191.604 20.5645 190.274 21.3815C188.944 22.2139 187.737 22.7996 186.651 23.1387C184.848 23.6936 183.411 23.5857 182.341 22.815C182.31 22.7996 182.287 22.7842 182.272 22.7688C181.936 22.4451 181.668 22.0674 181.469 21.6358C181.286 21.2042 181.148 20.7803 181.057 20.3642C180.98 19.9634 180.965 19.4778 181.011 18.9075C181.057 18.3372 181.11 17.8439 181.171 17.4277C181.232 17.0116 181.355 16.4798 181.538 15.8324C181.722 15.2004 181.867 14.7148 181.974 14.3757C182.096 14.0366 182.264 13.5588 182.478 12.9422C182.998 11.447 183.258 10.5376 183.258 10.2139C183.151 10.2447 183.006 10.2987 182.822 10.3757C181.263 11.1002 177.9 14.5067 172.733 20.5954C172.534 20.8112 172.305 20.8574 172.045 20.7341C171.801 20.6108 171.701 20.4027 171.747 20.1098C171.992 19 173.604 15.0848 176.585 8.36416C177.212 6.96146 177.609 6.05973 177.778 5.65896C176.157 7.15414 173.987 9.72832 171.266 13.3815C169.294 16.0173 167.597 18.5067 166.175 20.8497C164.769 23.1927 163.798 25.1118 163.263 26.6069C163.187 26.8381 163.034 26.9692 162.805 27C162.789 27 162.766 27 162.736 27C162.537 27 162.384 26.9075 162.277 26.7225C162.216 26.6455 162.178 26.5684 162.162 26.4913C162.147 26.4143 162.17 26.237 162.231 25.9595C162.292 25.6975 162.415 25.3353 162.598 24.8728C162.782 24.4104 163.057 23.7553 163.424 22.9075C163.806 22.0597 164.287 21.0193 164.868 19.7861C165.969 17.4432 167.818 13.6358 170.417 8.36416C170.952 7.28516 171.327 6.51445 171.541 6.05202C169.997 8.24085 169.064 9.61272 168.743 10.1676C168.667 10.2909 168.552 10.3757 168.399 10.422C168.262 10.4528 168.124 10.4297 167.987 10.3526C167.849 10.2755 167.757 10.1676 167.711 10.0289C167.681 9.87476 167.704 9.72832 167.78 9.5896C168.101 9.03468 169.11 7.56262 170.807 5.17341C172.504 2.7842 173.559 1.43545 173.971 1.12717C174.201 0.957611 174.422 0.957611 174.636 1.12717C174.85 1.29672 174.911 1.50482 174.82 1.75145C174.713 2.10597 173.582 4.47977 171.426 8.87283C169.836 12.0944 168.621 14.5761 167.78 16.3179C168.652 15.0539 169.546 13.7977 170.463 12.5491C170.845 12.0559 171.289 11.4855 171.793 10.8382C172.313 10.1753 173.039 9.2736 173.971 8.13295C174.919 6.97688 175.79 6.01349 176.585 5.24277C177.395 4.45665 177.984 4.03276 178.351 3.9711C178.641 3.90944 178.871 3.98651 179.039 4.20231C179.268 4.47977 179.253 4.95761 178.993 5.63584C178.886 5.9133 178.42 6.97688 177.594 8.82659C175.76 12.9576 174.499 15.8863 173.811 17.6127C175.966 15.1464 177.732 13.2505 179.108 11.9249C180.483 10.5838 181.561 9.72832 182.341 9.35838C183.12 8.98844 183.686 8.97303 184.037 9.31214C184.206 9.46628 184.313 9.65125 184.358 9.86705C184.404 10.0829 184.381 10.3911 184.29 10.7919C184.213 11.1927 184.122 11.5472 184.015 11.8555C183.923 12.1638 183.762 12.6493 183.533 13.3121C183.304 13.975 183.128 14.4836 183.006 14.8382C182.899 15.2081 182.746 15.7245 182.547 16.3873C182.364 17.0501 182.249 17.5973 182.203 18.0289C182.157 18.4759 182.127 18.9615 182.111 19.4855C182.111 20.0096 182.188 20.4721 182.341 20.8728C182.494 21.2736 182.723 21.6204 183.029 21.9133C183.793 22.4528 184.894 22.5067 186.33 22.0751C187.385 21.736 188.555 21.158 189.839 20.341C191.123 19.5395 192.254 18.7148 193.232 17.8671C194.211 17.0193 195.044 16.2254 195.732 15.4856C196.435 14.7611 196.84 14.2678 196.947 14.0058C196.993 13.8671 197.085 13.7669 197.222 13.7052Z" fill="black"/>
<path d="M216.991 13.4971C217.144 13.4971 217.273 13.5511 217.38 13.659C217.503 13.7669 217.564 13.8979 217.564 14.052C217.564 14.2062 217.51 14.3372 217.403 14.4451C215.523 16.3873 213.284 17.7283 210.685 18.4682C209.508 18.8227 208.369 19 207.268 19C206.137 19 205.151 18.815 204.31 18.4451C202.95 17.8593 202.109 16.9037 201.788 15.578C201.253 16.0867 200.695 16.5491 200.114 16.9653C198.586 18.0289 197.477 18.3295 196.789 17.8671C196.667 17.7746 196.553 17.659 196.446 17.5202C196.339 17.3969 196.239 17.2197 196.147 16.9884C196.056 16.7572 196.04 16.4566 196.102 16.0867C196.163 15.7322 196.316 15.3391 196.56 14.9075C196.927 14.2139 197.462 13.5279 198.165 12.8497C198.868 12.1561 199.61 11.6166 200.389 11.2312C201.184 10.8304 201.826 10.7457 202.316 10.9769C202.774 11.1773 203.034 11.501 203.095 11.948C203.172 12.4875 202.927 13.0809 202.361 13.7283C202.361 13.7437 202.369 13.7514 202.384 13.7514C202.644 13.8285 202.774 14.0135 202.774 14.3064C202.728 15.7861 203.386 16.8189 204.746 17.4046C205.449 17.7129 206.282 17.8671 207.245 17.8671C208.224 17.8671 209.24 17.7206 210.295 17.4277C211.365 17.1503 212.458 16.6802 213.574 16.0173C214.69 15.3699 215.699 14.5838 216.601 13.659C216.708 13.5511 216.838 13.4971 216.991 13.4971ZM201.009 13.4971C201.33 13.2197 201.574 12.9499 201.742 12.6879C201.926 12.4104 202.01 12.2177 201.995 12.1098C201.995 12.079 201.949 12.0405 201.857 11.9942C201.811 11.9788 201.758 11.9711 201.696 11.9711C201.238 11.9711 200.542 12.341 199.61 13.0809C198.693 13.8054 197.997 14.5992 197.523 15.4624C197.111 16.2177 197.072 16.7033 197.409 16.9191C197.485 16.9191 197.577 16.9191 197.684 16.9191C197.791 16.9345 198.012 16.8574 198.349 16.6879C198.685 16.5337 199.06 16.3179 199.472 16.0405C200.16 15.5626 200.772 15.0462 201.307 14.4913C201.154 14.4759 201.024 14.4066 200.917 14.2832C200.825 14.1599 200.787 14.0212 200.802 13.8671C200.817 13.7129 200.886 13.5896 201.009 13.4971Z" fill="black"/>
<path d="M237.916 13.7746C238.069 13.7746 238.199 13.8285 238.306 13.9364C238.413 14.0443 238.466 14.1753 238.466 14.3295C238.466 14.4836 238.413 14.6146 238.306 14.7225C237.985 15.0462 237.587 15.3545 237.113 15.6474C236.655 15.9557 236.089 16.2486 235.417 16.526C234.759 16.8035 234.148 17.0424 233.582 17.2428C233.017 17.4586 232.26 17.6975 231.312 17.9595C230.364 18.2216 229.6 18.422 229.019 18.5607C228.454 18.7148 227.613 18.9306 226.497 19.2081C224.433 19.7322 222.905 20.1329 221.911 20.4104C221.193 21.4432 220.207 22.4451 218.953 23.4162C218.372 23.8632 217.776 24.2717 217.165 24.6416C216.553 25.0116 216.018 25.289 215.559 25.474C215.101 25.6744 214.734 25.7977 214.459 25.8439C214.306 25.8593 214.176 25.8671 214.069 25.8671C213.641 25.8671 213.32 25.7514 213.106 25.5202C212.907 25.289 212.854 24.9961 212.945 24.6416C213.052 24.0405 213.335 23.4778 213.794 22.9538C214.252 22.4451 214.872 21.9827 215.651 21.5665C216.431 21.1503 217.256 20.7726 218.128 20.4335C219.014 20.1098 220.046 19.7784 221.223 19.4393C221.621 18.8073 221.888 18.1908 222.026 17.5896C222.072 17.4046 222.041 17.2505 221.934 17.1272C221.858 17.0347 221.728 16.9961 221.544 17.0116C221.086 17.0578 220.474 17.1734 219.71 17.3584C218.961 17.5434 218.258 17.8131 217.6 18.1676C217.34 18.2909 217.111 18.2447 216.912 18.0289C216.729 17.8285 216.714 17.605 216.866 17.3584C217.096 17.0039 218.059 16.025 219.756 14.422C221.544 12.7264 222.729 11.5472 223.31 10.8844C222.377 11.1156 221.315 11.501 220.123 12.0405C218.945 12.5645 218.051 13.0732 217.44 13.5665C217.333 13.659 217.272 13.7592 217.256 13.8671C217.256 13.9287 217.264 13.9672 217.279 13.9827C217.402 14.0751 217.478 14.1908 217.509 14.3295C217.539 14.4836 217.509 14.6224 217.417 14.7457C217.34 14.8844 217.226 14.9692 217.073 15C216.935 15.0308 216.798 15.0077 216.66 14.9306C216.339 14.7148 216.163 14.3911 216.133 13.9595C216.117 13.4509 216.316 13.027 216.729 12.6879C217.6 11.9942 218.892 11.3006 220.604 10.6069C222.331 9.89788 223.631 9.56647 224.502 9.61272C224.701 9.62813 224.854 9.72062 224.961 9.89017C225.068 10.0443 225.083 10.2139 225.007 10.3988C224.838 10.815 224.403 11.3931 223.7 12.1329C222.996 12.8574 221.934 13.8902 220.512 15.2312C220.038 15.6936 219.679 16.0405 219.435 16.2717C220.199 16.0713 220.864 15.948 221.43 15.9017C222.01 15.8401 222.461 16.0019 222.782 16.3873C223.134 16.8035 223.241 17.2967 223.103 17.8671C223.012 18.2524 222.882 18.6378 222.714 19.0231C223.478 18.8227 224.647 18.5222 226.222 18.1214C227.475 17.8131 228.423 17.5742 229.065 17.4046C229.722 17.2351 230.578 16.9884 231.633 16.6647C232.703 16.3565 233.544 16.079 234.156 15.8324C234.782 15.5857 235.409 15.2929 236.036 14.9538C236.678 14.6146 237.167 14.2755 237.503 13.9364C237.626 13.8285 237.763 13.7746 237.916 13.7746ZM218.288 22.5145C218.915 22.0212 219.48 21.5125 219.985 20.9884C216.393 22.1599 214.421 23.4085 214.069 24.7341C214.13 24.7341 214.207 24.7341 214.298 24.7341C214.619 24.6879 215.17 24.4566 215.949 24.0405C216.714 23.6243 217.493 23.1156 218.288 22.5145Z" fill="black"/>
<path d="M255.968 13.6821C256.12 13.7437 256.22 13.8439 256.266 13.9827C256.327 14.1214 256.327 14.2601 256.266 14.3988C256.204 14.553 256.105 14.6609 255.968 14.7225C255.555 14.8767 255.104 15.0308 254.615 15.185C254.125 15.3545 253.415 15.5472 252.482 15.763C251.55 15.9788 250.61 16.1407 249.662 16.2486C248.729 16.3719 247.621 16.4181 246.337 16.3873C245.068 16.3719 243.822 16.2563 242.599 16.0405C242.019 15.9326 241.499 15.7553 241.04 15.5087C241.04 15.5395 241.04 15.5703 241.04 15.6012C240.994 15.7707 240.933 15.9711 240.857 16.2023C240.78 16.4489 240.597 16.8112 240.306 17.289C240.031 17.7669 239.718 18.0983 239.366 18.2832C239.122 18.4374 238.862 18.5145 238.587 18.5145C238.434 18.5145 238.281 18.4913 238.128 18.4451C237.624 18.2755 237.272 17.9441 237.073 17.4509C236.859 16.9576 236.813 16.3487 236.936 15.6243C237.119 14.3449 237.593 13.2736 238.357 12.4104C239.122 11.5318 239.856 11.1387 240.559 11.2312C240.819 11.262 241.01 11.3854 241.132 11.6012C241.27 11.817 241.338 12.0636 241.338 12.341C241.338 12.4798 241.292 12.6031 241.201 12.711C241.109 12.8035 241.002 12.8651 240.88 12.896C241.094 13.1888 241.201 13.6435 241.201 14.2601C241.583 14.5838 242.118 14.8073 242.806 14.9306C243.784 15.1156 244.77 15.2312 245.764 15.2775C246.773 15.3237 247.705 15.3083 248.561 15.2312C249.417 15.1541 250.212 15.054 250.946 14.9306C251.68 14.8227 252.368 14.6763 253.01 14.4913C253.652 14.3218 254.156 14.1753 254.523 14.052C254.905 13.9287 255.249 13.8054 255.555 13.6821C255.692 13.6204 255.83 13.6204 255.968 13.6821ZM239.596 13.8439C239.443 13.3353 239.504 12.9576 239.779 12.711C239.917 12.5723 240.077 12.5106 240.261 12.526C240.23 12.4798 240.215 12.4258 240.215 12.3642C239.817 12.4875 239.382 12.8651 238.908 13.4971C238.449 14.1291 238.159 14.8921 238.036 15.7861C238.036 15.7861 238.036 15.7938 238.036 15.8092C237.884 16.7033 238.021 17.2197 238.449 17.3584C238.571 17.4046 238.694 17.3892 238.816 17.3121C239.061 17.1734 239.282 16.9037 239.481 16.5029C239.695 16.1021 239.848 15.7091 239.94 15.3237C239.985 15.1387 240.024 14.9306 240.054 14.6994C239.84 14.422 239.687 14.1368 239.596 13.8439Z" fill="black"/>
<path d="M275.577 13.7746C275.729 13.8054 275.844 13.8902 275.921 14.0289C276.012 14.1522 276.043 14.2832 276.012 14.422C275.982 14.5761 275.905 14.6994 275.783 14.7919C274.484 15.6859 272.512 16.4798 269.867 17.1734C267.238 17.8671 264.922 18.2139 262.919 18.2139C262.629 18.2139 262.346 18.2062 262.071 18.1908C260.665 18.0829 259.732 17.6358 259.274 16.8497C259.075 16.4952 258.975 16.0867 258.975 15.6243C257.921 16.9037 257.065 17.8208 256.407 18.3757C255.765 18.9461 255.238 19.2312 254.825 19.2312C254.672 19.2312 254.519 19.185 254.367 19.0925C254.107 18.9538 253.954 18.7148 253.908 18.3757C253.847 17.9904 253.939 17.4277 254.183 16.6879C254.412 15.948 254.695 15.2312 255.032 14.5376C255.368 13.8439 255.681 13.2351 255.972 12.711C256.262 12.1715 256.446 11.8555 256.522 11.763C256.614 11.6551 256.736 11.5934 256.889 11.578C257.057 11.5626 257.195 11.6089 257.302 11.7168C257.424 11.8092 257.485 11.9326 257.485 12.0867C257.5 12.2408 257.462 12.3796 257.37 12.5029C257.049 12.9499 256.568 13.8671 255.926 15.2543C255.33 16.5491 255.024 17.474 255.009 18.0289C255.437 17.8131 256.094 17.2197 256.981 16.2486C257.623 15.5241 258.456 14.5067 259.48 13.1965C259.724 12.9037 259.87 12.7264 259.916 12.6647C260.007 12.5568 260.122 12.4952 260.259 12.4798C260.397 12.4489 260.527 12.4721 260.649 12.5491C260.772 12.6262 260.848 12.7341 260.879 12.8728C260.924 12.9961 260.917 13.1272 260.856 13.2659C260.153 14.7611 259.946 15.7707 260.237 16.2948C260.496 16.7418 261.131 16.9961 262.14 17.0578C263.944 17.1965 266.237 16.9191 269.019 16.2254C271.801 15.5472 273.849 14.7611 275.164 13.8671C275.286 13.7746 275.424 13.7437 275.577 13.7746Z" fill="black"/>
<path d="M296.45 13.7746C296.603 13.7746 296.732 13.8285 296.839 13.9364C296.946 14.0443 297 14.1753 297 14.3295C297 14.4836 296.946 14.6146 296.839 14.7225C296.518 15.0462 296.121 15.3545 295.647 15.6474C295.189 15.9557 294.623 16.2486 293.95 16.526C293.293 16.8035 292.682 17.0424 292.116 17.2428C291.55 17.4586 290.794 17.6975 289.846 17.9595C288.898 18.2216 288.134 18.422 287.553 18.5607C286.987 18.7148 286.147 18.9306 285.031 19.2081C282.967 19.7322 281.438 20.1329 280.445 20.4104C279.726 21.4432 278.74 22.4451 277.487 23.4162C276.906 23.8632 276.31 24.2717 275.698 24.6416C275.087 25.0116 274.552 25.289 274.093 25.474C273.635 25.6744 273.268 25.7977 272.993 25.8439C272.84 25.8593 272.71 25.8671 272.603 25.8671C272.175 25.8671 271.854 25.7514 271.64 25.5202C271.441 25.289 271.387 24.9961 271.479 24.6416C271.586 24.0405 271.869 23.4778 272.328 22.9538C272.786 22.4451 273.405 21.9827 274.185 21.5665C274.964 21.1503 275.79 20.7726 276.661 20.4335C277.548 20.1098 278.58 19.7784 279.757 19.4393C280.154 18.8073 280.422 18.1908 280.559 17.5896C280.605 17.4046 280.575 17.2505 280.468 17.1272C280.391 17.0347 280.261 16.9961 280.078 17.0116C279.619 17.0578 279.008 17.1734 278.243 17.3584C277.494 17.5434 276.791 17.8131 276.134 18.1676C275.874 18.2909 275.645 18.2447 275.446 18.0289C275.263 17.8285 275.247 17.605 275.4 17.3584C275.629 17.0039 276.592 16.025 278.289 14.422C280.078 12.7264 281.263 11.5472 281.843 10.8844C280.911 11.1156 279.849 11.501 278.656 12.0405C277.479 12.5645 276.585 13.0732 275.973 13.5665C275.866 13.659 275.805 13.7592 275.79 13.8671C275.79 13.9287 275.798 13.9672 275.813 13.9827C275.935 14.0751 276.012 14.1908 276.042 14.3295C276.073 14.4836 276.042 14.6224 275.95 14.7457C275.874 14.8844 275.759 14.9692 275.607 15C275.469 15.0308 275.331 15.0077 275.194 14.9306C274.873 14.7148 274.697 14.3911 274.666 13.9595C274.651 13.4509 274.85 13.027 275.263 12.6879C276.134 11.9942 277.426 11.3006 279.138 10.6069C280.865 9.89788 282.164 9.56647 283.036 9.61272C283.234 9.62813 283.387 9.72062 283.494 9.89017C283.601 10.0443 283.617 10.2139 283.54 10.3988C283.372 10.815 282.936 11.3931 282.233 12.1329C281.53 12.8574 280.468 13.8902 279.046 15.2312C278.572 15.6936 278.213 16.0405 277.968 16.2717C278.733 16.0713 279.398 15.948 279.963 15.9017C280.544 15.8401 280.995 16.0019 281.316 16.3873C281.668 16.8035 281.775 17.2967 281.637 17.8671C281.545 18.2524 281.415 18.6378 281.247 19.0231C282.012 18.8227 283.181 18.5222 284.755 18.1214C286.009 17.8131 286.957 17.5742 287.599 17.4046C288.256 17.2351 289.112 16.9884 290.167 16.6647C291.237 16.3565 292.078 16.079 292.689 15.8324C293.316 15.5857 293.943 15.2929 294.569 14.9538C295.211 14.6146 295.701 14.2755 296.037 13.9364C296.159 13.8285 296.297 13.7746 296.45 13.7746ZM276.822 22.5145C277.449 22.0212 278.014 21.5125 278.519 20.9884C274.926 22.1599 272.954 23.4085 272.603 24.7341C272.664 24.7341 272.74 24.7341 272.832 24.7341C273.153 24.6879 273.703 24.4566 274.483 24.0405C275.247 23.6243 276.027 23.1156 276.822 22.5145Z" fill="black"/>
<path d="M36.0642 13.7052C36.2171 13.6281 36.3623 13.6204 36.4999 13.6821C36.6528 13.7283 36.7598 13.8208 36.8209 13.9595C36.8821 14.0983 36.8897 14.2447 36.8438 14.3988C36.691 14.7996 36.2247 15.4085 35.4451 16.2254C34.6808 17.0578 33.7636 17.921 32.6936 18.815C31.6388 19.7091 30.4464 20.5645 29.1165 21.3815C27.7866 22.2139 26.5789 22.7996 25.4936 23.1387C23.6898 23.6936 22.2529 23.5857 21.1828 22.815C21.1522 22.7996 21.1293 22.7842 21.114 22.7688C20.7777 22.4451 20.5102 22.0674 20.3115 21.6358C20.128 21.2042 19.9904 20.7803 19.8987 20.3642C19.8223 19.9634 19.807 19.4778 19.8529 18.9075C19.8987 18.3372 19.9522 17.8439 20.0134 17.4277C20.0745 17.0116 20.1968 16.4798 20.3803 15.8324C20.5637 15.2004 20.7089 14.7148 20.8159 14.3757C20.9382 14.0366 21.1064 13.5588 21.3204 12.9422C21.8401 11.447 22.1 10.5376 22.1 10.2139C21.993 10.2447 21.8478 10.2987 21.6643 10.3757C20.1051 11.1002 16.7421 14.5067 11.5752 20.5954C11.3765 20.8112 11.1472 20.8574 10.8873 20.7341C10.6427 20.6108 10.5434 20.4027 10.5892 20.1098C10.8338 19 12.4465 15.0848 15.4274 8.36416C16.0542 6.96146 16.4516 6.05973 16.6198 5.65896C14.9994 7.15414 12.8287 9.72832 10.1077 13.3815C8.13575 16.0173 6.43895 18.5067 5.0173 20.8497C3.61094 23.1927 2.64024 25.1118 2.10522 26.6069C2.02878 26.8381 1.87592 26.9692 1.64662 27C1.63133 27 1.6084 27 1.57783 27C1.37911 27 1.22624 26.9075 1.11923 26.7225C1.05809 26.6455 1.01987 26.5684 1.00459 26.4913C0.989299 26.4143 1.01223 26.237 1.07338 25.9595C1.13452 25.6975 1.25681 25.3353 1.44025 24.8728C1.62369 24.4104 1.89885 23.7553 2.26572 22.9075C2.64789 22.0597 3.12941 21.0193 3.7103 19.7861C4.81093 17.4432 6.6606 13.6358 9.25931 8.36416C9.79434 7.28516 10.1689 6.51445 10.3829 6.05202C8.83893 8.24085 7.90645 9.61272 7.58544 10.1676C7.509 10.2909 7.39435 10.3757 7.24149 10.422C7.10391 10.4528 6.96633 10.4297 6.82875 10.3526C6.69117 10.2755 6.59945 10.1676 6.55359 10.0289C6.52302 9.87476 6.54595 9.72832 6.62238 9.5896C6.9434 9.03468 7.95231 7.56262 9.64912 5.17341C11.3459 2.7842 12.4007 1.43545 12.8134 1.12717C13.0427 0.957611 13.2644 0.957611 13.4784 1.12717C13.6924 1.29672 13.7535 1.50482 13.6618 1.75145C13.5548 2.10597 12.4236 4.47977 10.2682 8.87283C8.67842 12.0944 7.46314 14.5761 6.62238 16.3179C7.49372 15.0539 8.38798 13.7977 9.30517 12.5491C9.68733 12.0559 10.1306 11.4855 10.6351 10.8382C11.1548 10.1753 11.8809 9.2736 12.8134 8.13295C13.7612 6.97688 14.6325 6.01349 15.4274 5.24277C16.2376 4.45665 16.8261 4.03276 17.193 3.9711C17.4835 3.90944 17.7128 3.98651 17.8809 4.20231C18.1102 4.47977 18.0949 4.95761 17.835 5.63584C17.728 5.9133 17.2618 6.97688 16.4363 8.82659C14.6019 12.9576 13.3408 15.8863 12.6529 17.6127C14.8083 15.1464 16.5739 13.2505 17.9497 11.9249C19.3255 10.5838 20.4032 9.72832 21.1828 9.35838C21.9624 8.98844 22.528 8.97303 22.8796 9.31214C23.0478 9.46628 23.1548 9.65125 23.2006 9.86705C23.2465 10.0829 23.2235 10.3911 23.1318 10.7919C23.0554 11.1927 22.9637 11.5472 22.8567 11.8555C22.765 12.1638 22.6044 12.6493 22.3751 13.3121C22.1458 13.975 21.9701 14.4836 21.8478 14.8382C21.7408 15.2081 21.5879 15.7245 21.3892 16.3873C21.2057 17.0501 21.0911 17.5973 21.0452 18.0289C20.9994 18.4759 20.9688 18.9615 20.9535 19.4855C20.9535 20.0096 21.0299 20.4721 21.1828 20.8728C21.3357 21.2736 21.565 21.6204 21.8707 21.9133C22.635 22.4528 23.7356 22.5067 25.1726 22.0751C26.2274 21.736 27.3968 21.158 28.6808 20.341C29.9649 19.5395 31.0961 18.7148 32.0744 17.8671C33.0528 17.0193 33.8859 16.2254 34.5738 15.4856C35.277 14.7611 35.6821 14.2678 35.7891 14.0058C35.8349 13.8671 35.9267 13.7669 36.0642 13.7052Z" stroke="black" stroke-width="0.8"/>
<path d="M54.5258 13.6821C54.6786 13.7437 54.778 13.8439 54.8238 13.9827C54.885 14.1214 54.885 14.2601 54.8238 14.3988C54.7627 14.553 54.6633 14.6609 54.5258 14.7225C54.113 14.8767 53.6621 15.0308 53.1729 15.185C52.6837 15.3545 51.9729 15.5472 51.0404 15.763C50.1079 15.9788 49.1678 16.1407 48.2201 16.2486C47.2876 16.3719 46.1793 16.4181 44.8952 16.3873C43.6265 16.3719 42.3806 16.2563 41.1577 16.0405C40.5768 15.9326 40.0571 15.7553 39.5985 15.5087C39.5985 15.5395 39.5985 15.5703 39.5985 15.6012C39.5526 15.7707 39.4915 15.9711 39.415 16.2023C39.3386 16.4489 39.1552 16.8112 38.8647 17.289C38.5896 17.7669 38.2762 18.0983 37.9246 18.2832C37.68 18.4374 37.4201 18.5145 37.145 18.5145C36.9921 18.5145 36.8392 18.4913 36.6864 18.4451C36.1819 18.2755 35.8303 17.9441 35.6316 17.4509C35.4176 16.9576 35.3717 16.3487 35.494 15.6243C35.6775 14.3449 36.1513 13.2736 36.9157 12.4104C37.68 11.5318 38.4138 11.1387 39.1169 11.2312C39.3768 11.262 39.5679 11.3854 39.6902 11.6012C39.8278 11.817 39.8965 12.0636 39.8965 12.341C39.8965 12.4798 39.8507 12.6031 39.759 12.711C39.6673 12.8035 39.5602 12.8651 39.438 12.896C39.652 13.1888 39.759 13.6435 39.759 14.2601C40.1411 14.5838 40.6762 14.8073 41.3641 14.9306C42.3424 15.1156 43.3284 15.2312 44.322 15.2775C45.3309 15.3237 46.2634 15.3083 47.1194 15.2312C47.9755 15.1541 48.7704 15.054 49.5041 14.9306C50.2379 14.8227 50.9258 14.6763 51.5678 14.4913C52.2098 14.3218 52.7143 14.1753 53.0812 14.052C53.4633 13.9287 53.8073 13.8054 54.113 13.6821C54.2506 13.6204 54.3882 13.6204 54.5258 13.6821ZM38.1539 13.8439C38.001 13.3353 38.0622 12.9576 38.3373 12.711C38.4749 12.5723 38.6354 12.5106 38.8188 12.526C38.7883 12.4798 38.773 12.4258 38.773 12.3642C38.3755 12.4875 37.9399 12.8651 37.466 13.4971C37.0074 14.1291 36.717 14.8921 36.5947 15.7861C36.5947 15.7861 36.5947 15.7938 36.5947 15.8092C36.4418 16.7033 36.5794 17.2197 37.0074 17.3584C37.1297 17.4046 37.252 17.3892 37.3743 17.3121C37.6189 17.1734 37.8405 16.9037 38.0392 16.5029C38.2532 16.1021 38.4061 15.7091 38.4978 15.3237C38.5437 15.1387 38.5819 14.9306 38.6125 14.6994C38.3985 14.422 38.2456 14.1368 38.1539 13.8439Z" stroke="black" stroke-width="0.8"/>
<path d="M71.475 13.8208C71.6278 13.8516 71.7425 13.9364 71.8189 14.0751C71.8954 14.2139 71.9106 14.3526 71.8648 14.4913C71.8342 14.6455 71.7501 14.7611 71.6126 14.8382C70.2368 15.6551 68.7463 16.3719 67.1412 16.9884C65.5362 17.605 64.0763 18.052 62.7617 18.3295C61.4623 18.6224 60.3158 18.8304 59.3222 18.9538C58.3286 19.0771 57.5948 19.1079 57.1209 19.0462C56.7693 19 56.4713 18.8998 56.2267 18.7457C55.9821 18.6069 55.7987 18.422 55.6764 18.1908C55.5694 17.975 55.4929 17.79 55.4471 17.6358C55.4165 17.4971 55.3859 17.3198 55.3553 17.104C54.9426 17.4586 54.2853 18.2139 53.3834 19.3699C53.2611 19.5087 53.1159 19.578 52.9477 19.578C52.9171 19.578 52.8866 19.578 52.856 19.578C52.642 19.5472 52.4968 19.4239 52.4203 19.2081C52.2675 18.8073 52.4433 17.8362 52.9477 16.2948C53.177 15.5857 53.4675 14.7842 53.819 13.8902C53.8343 13.8439 53.8496 13.7977 53.8649 13.7514C54.1248 13.0732 54.4076 12.3796 54.7133 11.6705C55.0496 10.869 55.4088 10.052 55.791 9.21965C56.1885 8.37187 56.7158 7.36994 57.3732 6.21387C58.0305 5.04239 58.5808 4.25626 59.0241 3.85549C59.4521 3.45472 59.8572 3.35453 60.2394 3.55491C60.3158 3.58574 60.3846 3.63969 60.4458 3.71676C61.4394 5.11946 60.8203 7.29287 58.5884 10.237C57.9617 11.0694 57.2814 11.8786 56.5477 12.6647C55.8139 13.4509 55.2407 14.0212 54.828 14.3757C54.4458 15.3468 54.1324 16.2177 53.8878 16.9884C54.3311 16.4952 54.6827 16.1715 54.9426 16.0173C55.2025 15.8632 55.4471 15.8015 55.6764 15.8324C55.8751 15.8478 56.0356 15.9249 56.1579 16.0636C56.2802 16.2177 56.3566 16.3487 56.3872 16.4566C56.4178 16.58 56.4407 16.7418 56.456 16.9422C56.5018 17.2813 56.5706 17.5202 56.6623 17.659C56.7541 17.7977 56.9528 17.8902 57.2585 17.9364C57.6865 17.9827 58.3744 17.9441 59.3222 17.8208C60.27 17.6975 61.3629 17.4971 62.6012 17.2197C63.8546 16.9422 65.2457 16.5029 66.7744 15.9017C68.3183 15.316 69.74 14.6378 71.0393 13.8671C71.1769 13.79 71.3221 13.7746 71.475 13.8208ZM56.0662 11.3699C56.0203 11.4624 55.9744 11.5626 55.9286 11.6705C56.6623 10.869 57.3197 10.0829 57.9006 9.31214C58.4814 8.54143 58.9706 7.71676 59.3681 6.83815C59.7655 5.95954 59.8802 5.25819 59.712 4.7341C59.3757 5.07322 58.8865 5.8054 58.2445 6.93064C57.6025 8.04046 56.8764 9.52023 56.0662 11.3699Z" stroke="black" stroke-width="0.8"/>
<path d="M90.9216 13.4971C91.0745 13.4971 91.2044 13.5511 91.3114 13.659C91.4337 13.7669 91.4948 13.8979 91.4948 14.052C91.4948 14.2062 91.4413 14.3372 91.3343 14.4451C89.4541 16.3873 87.2146 17.7283 84.6159 18.4682C83.4388 18.8227 82.3 19 81.1994 19C80.0682 19 79.0822 18.815 78.2414 18.4451C76.8809 17.8593 76.0402 16.9037 75.7191 15.578C75.1841 16.0867 74.6262 16.5491 74.0453 16.9653C72.5166 18.0289 71.4083 18.3295 70.7204 17.8671C70.5982 17.7746 70.4835 17.659 70.3765 17.5202C70.2695 17.3969 70.1701 17.2197 70.0784 16.9884C69.9867 16.7572 69.9714 16.4566 70.0326 16.0867C70.0937 15.7322 70.2466 15.3391 70.4912 14.9075C70.858 14.2139 71.3931 13.5279 72.0962 12.8497C72.7994 12.1561 73.5408 11.6166 74.3204 11.2312C75.1153 10.8304 75.7574 10.7457 76.2465 10.9769C76.7051 11.1773 76.965 11.501 77.0261 11.948C77.1026 12.4875 76.858 13.0809 76.2924 13.7283C76.2924 13.7437 76.3 13.7514 76.3153 13.7514C76.5752 13.8285 76.7051 14.0135 76.7051 14.3064C76.6593 15.7861 77.3166 16.8189 78.6771 17.4046C79.3803 17.7129 80.2134 17.8671 81.1764 17.8671C82.1548 17.8671 83.1713 17.7206 84.2261 17.4277C85.2962 17.1503 86.3891 16.6802 87.5051 16.0173C88.621 15.3699 89.6299 14.5838 90.5318 13.659C90.6388 13.5511 90.7687 13.4971 90.9216 13.4971ZM74.9395 13.4971C75.2605 13.2197 75.5051 12.9499 75.6733 12.6879C75.8567 12.4104 75.9408 12.2177 75.9255 12.1098C75.9255 12.079 75.8797 12.0405 75.7879 11.9942C75.7421 11.9788 75.6886 11.9711 75.6274 11.9711C75.1688 11.9711 74.4733 12.341 73.5408 13.0809C72.6236 13.8054 71.9281 14.5992 71.4542 15.4624C71.0415 16.2177 71.0032 16.7033 71.3395 16.9191C71.416 16.9191 71.5077 16.9191 71.6147 16.9191C71.7217 16.9345 71.9434 16.8574 72.2797 16.6879C72.616 16.5337 72.9905 16.3179 73.4032 16.0405C74.0911 15.5626 74.7026 15.0462 75.2376 14.4913C75.0847 14.4759 74.9548 14.4066 74.8478 14.2832C74.7561 14.1599 74.7179 14.0212 74.7332 13.8671C74.7484 13.7129 74.8172 13.5896 74.9395 13.4971Z" stroke="black" stroke-width="0.8"/>
<path d="M112.993 13.7283C113.146 13.6975 113.284 13.7283 113.406 13.8208C113.544 13.8979 113.628 14.0135 113.658 14.1676C113.704 14.3218 113.681 14.4605 113.59 14.5838C113.269 15.0925 112.565 15.6243 111.48 16.1792C110.41 16.7495 109.241 17.2428 107.972 17.659C104.639 18.738 101.888 19 99.7171 18.4451C97.9592 17.9981 97.2025 16.7495 97.4471 14.6994C97.2789 14.8227 97.0267 15.0385 96.6904 15.3468C95.8191 16.1021 95.1923 16.58 94.8102 16.7803C94.6267 16.8728 94.4433 16.8728 94.2598 16.7803C93.7554 16.4875 93.6407 15.9326 93.9159 15.1156C93.977 14.9615 94.0535 14.7842 94.1452 14.5838C92.6471 16.1869 91.2178 17.8285 89.8573 19.5087C89.7503 19.6474 89.6051 19.7168 89.4217 19.7168C89.4064 19.7168 89.3834 19.7168 89.3529 19.7168C89.1541 19.7013 89.0089 19.6012 88.9172 19.4162C88.7949 19.1696 88.8561 18.7071 89.1006 18.0289C89.3299 17.3507 89.8803 16.1098 90.7516 14.3064C90.721 14.2909 90.6981 14.2755 90.6828 14.2601C90.5605 14.1522 90.4917 14.0212 90.4764 13.8671C90.4611 13.7129 90.507 13.5819 90.614 13.474C90.9044 13.1195 91.2866 12.7572 91.7605 12.3873C92.0051 12.2023 92.2344 12.2023 92.4484 12.3873C92.6777 12.5723 92.7312 12.8035 92.6089 13.0809C92.563 13.1734 92.4407 13.42 92.242 13.8208C91.7376 14.8227 91.3172 15.6936 90.9809 16.4335C91.4089 15.9249 91.8216 15.4547 92.2191 15.0231C93.0293 14.1137 93.6866 13.4123 94.1911 12.9191C94.6191 12.5029 94.9554 12.2254 95.2 12.0867C95.4445 11.948 95.6738 11.9249 95.8879 12.0173C96.1936 12.1407 96.3235 12.3873 96.2777 12.7572C96.2624 12.8035 96.2471 12.842 96.2318 12.8728C96.1554 13.0886 95.9643 13.4894 95.6586 14.0751C95.3834 14.5838 95.1923 14.9692 95.0853 15.2312C95.2688 15.0771 95.5592 14.8304 95.9566 14.4913C96.7668 13.7823 97.3324 13.3584 97.6535 13.2197C97.898 13.0193 98.1426 12.9807 98.3872 13.104C98.5706 13.2119 98.67 13.3738 98.6853 13.5896C98.7159 13.8054 98.7006 14.0212 98.6394 14.237C98.5783 14.6994 98.5324 15.131 98.5019 15.5318C98.4866 15.948 98.6012 16.3179 98.8458 16.6416C99.0904 16.9807 99.4725 17.2197 99.9923 17.3584C101.062 17.6204 102.278 17.659 103.638 17.474C104.999 17.3044 106.313 17.0116 107.582 16.5954C108.851 16.1946 109.959 15.7476 110.907 15.2543C111.855 14.7611 112.436 14.3372 112.65 13.9827C112.741 13.8439 112.856 13.7592 112.993 13.7283Z" stroke="black" stroke-width="0.8"/>
<path d="M130.278 13.6821C130.431 13.6667 130.561 13.7129 130.668 13.8208C130.79 13.9287 130.851 14.0597 130.851 14.2139C130.866 14.368 130.821 14.5067 130.714 14.6301C130.423 14.9383 130.01 15.262 129.475 15.6012C128.94 15.9403 128.321 16.264 127.618 16.5723C126.93 16.896 126.166 17.1965 125.325 17.474C124.5 17.7669 123.651 18.0212 122.78 18.237C120.945 18.684 119.295 18.9075 117.827 18.9075C115.947 18.9075 114.51 18.5299 113.516 17.7746C112.951 17.3584 112.568 16.842 112.37 16.2254C112.171 15.6089 112.186 14.9769 112.416 14.3295C112.63 13.7129 112.974 13.1965 113.447 12.7803C113.921 12.3642 114.395 12.1638 114.869 12.1792C115.312 12.1946 115.679 12.3565 115.97 12.6647C116.23 12.9576 116.352 13.3276 116.337 13.7746C116.321 14.3449 116.092 14.8382 115.649 15.2543C115.19 15.6859 114.716 15.8863 114.227 15.8555C113.906 15.8401 113.623 15.7707 113.379 15.6474C113.455 16.1252 113.723 16.5337 114.181 16.8728C114.9 17.4123 115.993 17.7052 117.46 17.7514C118.943 17.7977 120.632 17.5896 122.528 17.1272C124.133 16.7418 125.638 16.2331 127.045 15.6012C128.451 14.9846 129.399 14.4066 129.888 13.8671C129.995 13.7437 130.125 13.6821 130.278 13.6821ZM114.846 13.3121C114.647 13.3121 114.426 13.42 114.181 13.6358C113.937 13.8516 113.738 14.1137 113.585 14.422C113.738 14.6224 113.967 14.7302 114.273 14.7457C114.456 14.7457 114.663 14.6378 114.892 14.422C115.106 14.2216 115.221 13.9904 115.236 13.7283C115.236 13.5896 115.205 13.4894 115.144 13.4277C115.083 13.3507 114.984 13.3121 114.846 13.3121Z" stroke="black" stroke-width="0.8"/>
<path d="M150.59 13.7052C150.743 13.736 150.857 13.8208 150.934 13.9595C151.01 14.0829 151.026 14.2216 150.98 14.3757C150.949 14.5299 150.873 14.6455 150.75 14.7225C146.302 17.4355 142.779 19.0539 140.18 19.578C139.553 19.7013 138.98 19.763 138.46 19.763C136.962 19.763 135.884 19.2466 135.227 18.2139C134.6 17.2582 134.424 15.894 134.7 14.1214C132.835 16.5723 131.398 18.0289 130.389 18.4913C129.823 18.7534 129.349 18.7303 128.967 18.422C128.402 17.9595 128.371 17.1503 128.875 15.9942C129.151 15.3468 129.594 14.6224 130.205 13.8208C130.802 13.0039 131.474 12.2948 132.223 11.6936C132.972 11.0771 133.591 10.7996 134.08 10.8613C134.539 10.9229 134.883 11.1773 135.112 11.6243C135.219 11.4547 135.334 11.2852 135.456 11.1156C135.502 10.9615 135.556 10.7996 135.617 10.6301C136.06 9.41233 136.572 8.26397 137.153 7.18497C137.749 6.09056 138.215 5.42775 138.552 5.19653C138.735 5.0578 138.926 5.04239 139.125 5.15029C139.339 5.25819 139.438 5.42775 139.423 5.65896C139.423 6.15222 139.14 6.94605 138.575 8.04046C138.024 9.13488 137.321 10.3295 136.465 11.6243C135.517 14.4913 135.426 16.4952 136.19 17.6358C136.893 18.7148 138.445 18.9152 140.845 18.237C143.26 17.5742 146.371 16.079 150.177 13.7514C150.299 13.6744 150.437 13.659 150.59 13.7052ZM134.172 12.8497C134.203 12.5723 134.18 12.341 134.103 12.1561C134.058 12.0482 133.996 11.9865 133.92 11.9711C133.844 11.9711 133.729 12.0096 133.576 12.0867C133.423 12.1638 133.201 12.3179 132.911 12.5491C132.636 12.7803 132.338 13.0578 132.017 13.3815C131.038 14.4297 130.335 15.4547 129.907 16.4566C129.663 17.0116 129.586 17.3738 129.678 17.5434C129.892 17.5279 130.221 17.3353 130.664 16.9653C131.642 16.1638 132.812 14.8304 134.172 12.9653C134.172 12.9191 134.172 12.8805 134.172 12.8497Z" stroke="black" stroke-width="0.8"/>
<path d="M197.222 13.7052C197.375 13.6281 197.52 13.6204 197.658 13.6821C197.811 13.7283 197.918 13.8208 197.979 13.9595C198.04 14.0983 198.048 14.2447 198.002 14.3988C197.849 14.7996 197.383 15.4085 196.603 16.2254C195.839 17.0578 194.921 17.921 193.851 18.815C192.797 19.7091 191.604 20.5645 190.274 21.3815C188.944 22.2139 187.737 22.7996 186.651 23.1387C184.848 23.6936 183.411 23.5857 182.341 22.815C182.31 22.7996 182.287 22.7842 182.272 22.7688C181.936 22.4451 181.668 22.0674 181.469 21.6358C181.286 21.2042 181.148 20.7803 181.057 20.3642C180.98 19.9634 180.965 19.4778 181.011 18.9075C181.057 18.3372 181.11 17.8439 181.171 17.4277C181.232 17.0116 181.355 16.4798 181.538 15.8324C181.722 15.2004 181.867 14.7148 181.974 14.3757C182.096 14.0366 182.264 13.5588 182.478 12.9422C182.998 11.447 183.258 10.5376 183.258 10.2139C183.151 10.2447 183.006 10.2987 182.822 10.3757C181.263 11.1002 177.9 14.5067 172.733 20.5954C172.534 20.8112 172.305 20.8574 172.045 20.7341C171.801 20.6108 171.701 20.4027 171.747 20.1098C171.992 19 173.604 15.0848 176.585 8.36416C177.212 6.96146 177.609 6.05973 177.778 5.65896C176.157 7.15414 173.987 9.72832 171.266 13.3815C169.294 16.0173 167.597 18.5067 166.175 20.8497C164.769 23.1927 163.798 25.1118 163.263 26.6069C163.187 26.8381 163.034 26.9692 162.805 27C162.789 27 162.766 27 162.736 27C162.537 27 162.384 26.9075 162.277 26.7225C162.216 26.6455 162.178 26.5684 162.162 26.4913C162.147 26.4143 162.17 26.237 162.231 25.9595C162.292 25.6975 162.415 25.3353 162.598 24.8728C162.782 24.4104 163.057 23.7553 163.424 22.9075C163.806 22.0597 164.287 21.0193 164.868 19.7861C165.969 17.4432 167.818 13.6358 170.417 8.36416C170.952 7.28516 171.327 6.51445 171.541 6.05202C169.997 8.24085 169.064 9.61272 168.743 10.1676C168.667 10.2909 168.552 10.3757 168.399 10.422C168.262 10.4528 168.124 10.4297 167.987 10.3526C167.849 10.2755 167.757 10.1676 167.711 10.0289C167.681 9.87476 167.704 9.72832 167.78 9.5896C168.101 9.03468 169.11 7.56262 170.807 5.17341C172.504 2.7842 173.559 1.43545 173.971 1.12717C174.201 0.957611 174.422 0.957611 174.636 1.12717C174.85 1.29672 174.911 1.50482 174.82 1.75145C174.713 2.10597 173.582 4.47977 171.426 8.87283C169.836 12.0944 168.621 14.5761 167.78 16.3179C168.652 15.0539 169.546 13.7977 170.463 12.5491C170.845 12.0559 171.289 11.4855 171.793 10.8382C172.313 10.1753 173.039 9.2736 173.971 8.13295C174.919 6.97688 175.79 6.01349 176.585 5.24277C177.395 4.45665 177.984 4.03276 178.351 3.9711C178.641 3.90944 178.871 3.98651 179.039 4.20231C179.268 4.47977 179.253 4.95761 178.993 5.63584C178.886 5.9133 178.42 6.97688 177.594 8.82659C175.76 12.9576 174.499 15.8863 173.811 17.6127C175.966 15.1464 177.732 13.2505 179.108 11.9249C180.483 10.5838 181.561 9.72832 182.341 9.35838C183.12 8.98844 183.686 8.97303 184.037 9.31214C184.206 9.46628 184.313 9.65125 184.358 9.86705C184.404 10.0829 184.381 10.3911 184.29 10.7919C184.213 11.1927 184.122 11.5472 184.015 11.8555C183.923 12.1638 183.762 12.6493 183.533 13.3121C183.304 13.975 183.128 14.4836 183.006 14.8382C182.899 15.2081 182.746 15.7245 182.547 16.3873C182.364 17.0501 182.249 17.5973 182.203 18.0289C182.157 18.4759 182.127 18.9615 182.111 19.4855C182.111 20.0096 182.188 20.4721 182.341 20.8728C182.494 21.2736 182.723 21.6204 183.029 21.9133C183.793 22.4528 184.894 22.5067 186.33 22.0751C187.385 21.736 188.555 21.158 189.839 20.341C191.123 19.5395 192.254 18.7148 193.232 17.8671C194.211 17.0193 195.044 16.2254 195.732 15.4856C196.435 14.7611 196.84 14.2678 196.947 14.0058C196.993 13.8671 197.085 13.7669 197.222 13.7052Z" stroke="black" stroke-width="0.8"/>
<path d="M216.991 13.4971C217.144 13.4971 217.273 13.5511 217.38 13.659C217.503 13.7669 217.564 13.8979 217.564 14.052C217.564 14.2062 217.51 14.3372 217.403 14.4451C215.523 16.3873 213.284 17.7283 210.685 18.4682C209.508 18.8227 208.369 19 207.268 19C206.137 19 205.151 18.815 204.31 18.4451C202.95 17.8593 202.109 16.9037 201.788 15.578C201.253 16.0867 200.695 16.5491 200.114 16.9653C198.586 18.0289 197.477 18.3295 196.789 17.8671C196.667 17.7746 196.553 17.659 196.446 17.5202C196.339 17.3969 196.239 17.2197 196.147 16.9884C196.056 16.7572 196.04 16.4566 196.102 16.0867C196.163 15.7322 196.316 15.3391 196.56 14.9075C196.927 14.2139 197.462 13.5279 198.165 12.8497C198.868 12.1561 199.61 11.6166 200.389 11.2312C201.184 10.8304 201.826 10.7457 202.316 10.9769C202.774 11.1773 203.034 11.501 203.095 11.948C203.172 12.4875 202.927 13.0809 202.361 13.7283C202.361 13.7437 202.369 13.7514 202.384 13.7514C202.644 13.8285 202.774 14.0135 202.774 14.3064C202.728 15.7861 203.386 16.8189 204.746 17.4046C205.449 17.7129 206.282 17.8671 207.245 17.8671C208.224 17.8671 209.24 17.7206 210.295 17.4277C211.365 17.1503 212.458 16.6802 213.574 16.0173C214.69 15.3699 215.699 14.5838 216.601 13.659C216.708 13.5511 216.838 13.4971 216.991 13.4971ZM201.009 13.4971C201.33 13.2197 201.574 12.9499 201.742 12.6879C201.926 12.4104 202.01 12.2177 201.995 12.1098C201.995 12.079 201.949 12.0405 201.857 11.9942C201.811 11.9788 201.758 11.9711 201.696 11.9711C201.238 11.9711 200.542 12.341 199.61 13.0809C198.693 13.8054 197.997 14.5992 197.523 15.4624C197.111 16.2177 197.072 16.7033 197.409 16.9191C197.485 16.9191 197.577 16.9191 197.684 16.9191C197.791 16.9345 198.012 16.8574 198.349 16.6879C198.685 16.5337 199.06 16.3179 199.472 16.0405C200.16 15.5626 200.772 15.0462 201.307 14.4913C201.154 14.4759 201.024 14.4066 200.917 14.2832C200.825 14.1599 200.787 14.0212 200.802 13.8671C200.817 13.7129 200.886 13.5896 201.009 13.4971Z" stroke="black" stroke-width="0.8"/>
<path d="M237.916 13.7746C238.069 13.7746 238.199 13.8285 238.306 13.9364C238.413 14.0443 238.466 14.1753 238.466 14.3295C238.466 14.4836 238.413 14.6146 238.306 14.7225C237.985 15.0462 237.587 15.3545 237.113 15.6474C236.655 15.9557 236.089 16.2486 235.417 16.526C234.759 16.8035 234.148 17.0424 233.582 17.2428C233.017 17.4586 232.26 17.6975 231.312 17.9595C230.364 18.2216 229.6 18.422 229.019 18.5607C228.454 18.7148 227.613 18.9306 226.497 19.2081C224.433 19.7322 222.905 20.1329 221.911 20.4104C221.193 21.4432 220.207 22.4451 218.953 23.4162C218.372 23.8632 217.776 24.2717 217.165 24.6416C216.553 25.0116 216.018 25.289 215.559 25.474C215.101 25.6744 214.734 25.7977 214.459 25.8439C214.306 25.8593 214.176 25.8671 214.069 25.8671C213.641 25.8671 213.32 25.7514 213.106 25.5202C212.907 25.289 212.854 24.9961 212.945 24.6416C213.052 24.0405 213.335 23.4778 213.794 22.9538C214.252 22.4451 214.872 21.9827 215.651 21.5665C216.431 21.1503 217.256 20.7726 218.128 20.4335C219.014 20.1098 220.046 19.7784 221.223 19.4393C221.621 18.8073 221.888 18.1908 222.026 17.5896C222.072 17.4046 222.041 17.2505 221.934 17.1272C221.858 17.0347 221.728 16.9961 221.544 17.0116C221.086 17.0578 220.474 17.1734 219.71 17.3584C218.961 17.5434 218.258 17.8131 217.6 18.1676C217.34 18.2909 217.111 18.2447 216.912 18.0289C216.729 17.8285 216.714 17.605 216.866 17.3584C217.096 17.0039 218.059 16.025 219.756 14.422C221.544 12.7264 222.729 11.5472 223.31 10.8844C222.377 11.1156 221.315 11.501 220.123 12.0405C218.945 12.5645 218.051 13.0732 217.44 13.5665C217.333 13.659 217.272 13.7592 217.256 13.8671C217.256 13.9287 217.264 13.9672 217.279 13.9827C217.402 14.0751 217.478 14.1908 217.509 14.3295C217.539 14.4836 217.509 14.6224 217.417 14.7457C217.34 14.8844 217.226 14.9692 217.073 15C216.935 15.0308 216.798 15.0077 216.66 14.9306C216.339 14.7148 216.163 14.3911 216.133 13.9595C216.117 13.4509 216.316 13.027 216.729 12.6879C217.6 11.9942 218.892 11.3006 220.604 10.6069C222.331 9.89788 223.631 9.56647 224.502 9.61272C224.701 9.62813 224.854 9.72062 224.961 9.89017C225.068 10.0443 225.083 10.2139 225.007 10.3988C224.838 10.815 224.403 11.3931 223.7 12.1329C222.996 12.8574 221.934 13.8902 220.512 15.2312C220.038 15.6936 219.679 16.0405 219.435 16.2717C220.199 16.0713 220.864 15.948 221.43 15.9017C222.01 15.8401 222.461 16.0019 222.782 16.3873C223.134 16.8035 223.241 17.2967 223.103 17.8671C223.012 18.2524 222.882 18.6378 222.714 19.0231C223.478 18.8227 224.647 18.5222 226.222 18.1214C227.475 17.8131 228.423 17.5742 229.065 17.4046C229.722 17.2351 230.578 16.9884 231.633 16.6647C232.703 16.3565 233.544 16.079 234.156 15.8324C234.782 15.5857 235.409 15.2929 236.036 14.9538C236.678 14.6146 237.167 14.2755 237.503 13.9364C237.626 13.8285 237.763 13.7746 237.916 13.7746ZM218.288 22.5145C218.915 22.0212 219.48 21.5125 219.985 20.9884C216.393 22.1599 214.421 23.4085 214.069 24.7341C214.13 24.7341 214.207 24.7341 214.298 24.7341C214.619 24.6879 215.17 24.4566 215.949 24.0405C216.714 23.6243 217.493 23.1156 218.288 22.5145Z" stroke="black" stroke-width="0.8"/>
<path d="M255.968 13.6821C256.12 13.7437 256.22 13.8439 256.266 13.9827C256.327 14.1214 256.327 14.2601 256.266 14.3988C256.204 14.553 256.105 14.6609 255.968 14.7225C255.555 14.8767 255.104 15.0308 254.615 15.185C254.125 15.3545 253.415 15.5472 252.482 15.763C251.55 15.9788 250.61 16.1407 249.662 16.2486C248.729 16.3719 247.621 16.4181 246.337 16.3873C245.068 16.3719 243.822 16.2563 242.599 16.0405C242.019 15.9326 241.499 15.7553 241.04 15.5087C241.04 15.5395 241.04 15.5703 241.04 15.6012C240.994 15.7707 240.933 15.9711 240.857 16.2023C240.78 16.4489 240.597 16.8112 240.306 17.289C240.031 17.7669 239.718 18.0983 239.366 18.2832C239.122 18.4374 238.862 18.5145 238.587 18.5145C238.434 18.5145 238.281 18.4913 238.128 18.4451C237.624 18.2755 237.272 17.9441 237.073 17.4509C236.859 16.9576 236.813 16.3487 236.936 15.6243C237.119 14.3449 237.593 13.2736 238.357 12.4104C239.122 11.5318 239.856 11.1387 240.559 11.2312C240.819 11.262 241.01 11.3854 241.132 11.6012C241.27 11.817 241.338 12.0636 241.338 12.341C241.338 12.4798 241.292 12.6031 241.201 12.711C241.109 12.8035 241.002 12.8651 240.88 12.896C241.094 13.1888 241.201 13.6435 241.201 14.2601C241.583 14.5838 242.118 14.8073 242.806 14.9306C243.784 15.1156 244.77 15.2312 245.764 15.2775C246.773 15.3237 247.705 15.3083 248.561 15.2312C249.417 15.1541 250.212 15.054 250.946 14.9306C251.68 14.8227 252.368 14.6763 253.01 14.4913C253.652 14.3218 254.156 14.1753 254.523 14.052C254.905 13.9287 255.249 13.8054 255.555 13.6821C255.692 13.6204 255.83 13.6204 255.968 13.6821ZM239.596 13.8439C239.443 13.3353 239.504 12.9576 239.779 12.711C239.917 12.5723 240.077 12.5106 240.261 12.526C240.23 12.4798 240.215 12.4258 240.215 12.3642C239.817 12.4875 239.382 12.8651 238.908 13.4971C238.449 14.1291 238.159 14.8921 238.036 15.7861C238.036 15.7861 238.036 15.7938 238.036 15.8092C237.884 16.7033 238.021 17.2197 238.449 17.3584C238.571 17.4046 238.694 17.3892 238.816 17.3121C239.061 17.1734 239.282 16.9037 239.481 16.5029C239.695 16.1021 239.848 15.7091 239.94 15.3237C239.985 15.1387 240.024 14.9306 240.054 14.6994C239.84 14.422 239.687 14.1368 239.596 13.8439Z" stroke="black" stroke-width="0.8"/>
<path d="M275.577 13.7746C275.729 13.8054 275.844 13.8902 275.921 14.0289C276.012 14.1522 276.043 14.2832 276.012 14.422C275.982 14.5761 275.905 14.6994 275.783 14.7919C274.484 15.6859 272.512 16.4798 269.867 17.1734C267.238 17.8671 264.922 18.2139 262.919 18.2139C262.629 18.2139 262.346 18.2062 262.071 18.1908C260.665 18.0829 259.732 17.6358 259.274 16.8497C259.075 16.4952 258.975 16.0867 258.975 15.6243C257.921 16.9037 257.065 17.8208 256.407 18.3757C255.765 18.9461 255.238 19.2312 254.825 19.2312C254.672 19.2312 254.519 19.185 254.367 19.0925C254.107 18.9538 253.954 18.7148 253.908 18.3757C253.847 17.9904 253.939 17.4277 254.183 16.6879C254.412 15.948 254.695 15.2312 255.032 14.5376C255.368 13.8439 255.681 13.2351 255.972 12.711C256.262 12.1715 256.446 11.8555 256.522 11.763C256.614 11.6551 256.736 11.5934 256.889 11.578C257.057 11.5626 257.195 11.6089 257.302 11.7168C257.424 11.8092 257.485 11.9326 257.485 12.0867C257.5 12.2408 257.462 12.3796 257.37 12.5029C257.049 12.9499 256.568 13.8671 255.926 15.2543C255.33 16.5491 255.024 17.474 255.009 18.0289C255.437 17.8131 256.094 17.2197 256.981 16.2486C257.623 15.5241 258.456 14.5067 259.48 13.1965C259.724 12.9037 259.87 12.7264 259.916 12.6647C260.007 12.5568 260.122 12.4952 260.259 12.4798C260.397 12.4489 260.527 12.4721 260.649 12.5491C260.772 12.6262 260.848 12.7341 260.879 12.8728C260.924 12.9961 260.917 13.1272 260.856 13.2659C260.153 14.7611 259.946 15.7707 260.237 16.2948C260.496 16.7418 261.131 16.9961 262.14 17.0578C263.944 17.1965 266.237 16.9191 269.019 16.2254C271.801 15.5472 273.849 14.7611 275.164 13.8671C275.286 13.7746 275.424 13.7437 275.577 13.7746Z" stroke="black" stroke-width="0.8"/>
<path d="M296.45 13.7746C296.603 13.7746 296.732 13.8285 296.839 13.9364C296.946 14.0443 297 14.1753 297 14.3295C297 14.4836 296.946 14.6146 296.839 14.7225C296.518 15.0462 296.121 15.3545 295.647 15.6474C295.189 15.9557 294.623 16.2486 293.95 16.526C293.293 16.8035 292.682 17.0424 292.116 17.2428C291.55 17.4586 290.794 17.6975 289.846 17.9595C288.898 18.2216 288.134 18.422 287.553 18.5607C286.987 18.7148 286.147 18.9306 285.031 19.2081C282.967 19.7322 281.438 20.1329 280.445 20.4104C279.726 21.4432 278.74 22.4451 277.487 23.4162C276.906 23.8632 276.31 24.2717 275.698 24.6416C275.087 25.0116 274.552 25.289 274.093 25.474C273.635 25.6744 273.268 25.7977 272.993 25.8439C272.84 25.8593 272.71 25.8671 272.603 25.8671C272.175 25.8671 271.854 25.7514 271.64 25.5202C271.441 25.289 271.387 24.9961 271.479 24.6416C271.586 24.0405 271.869 23.4778 272.328 22.9538C272.786 22.4451 273.405 21.9827 274.185 21.5665C274.964 21.1503 275.79 20.7726 276.661 20.4335C277.548 20.1098 278.58 19.7784 279.757 19.4393C280.154 18.8073 280.422 18.1908 280.559 17.5896C280.605 17.4046 280.575 17.2505 280.468 17.1272C280.391 17.0347 280.261 16.9961 280.078 17.0116C279.619 17.0578 279.008 17.1734 278.243 17.3584C277.494 17.5434 276.791 17.8131 276.134 18.1676C275.874 18.2909 275.645 18.2447 275.446 18.0289C275.263 17.8285 275.247 17.605 275.4 17.3584C275.629 17.0039 276.592 16.025 278.289 14.422C280.078 12.7264 281.263 11.5472 281.843 10.8844C280.911 11.1156 279.849 11.501 278.656 12.0405C277.479 12.5645 276.585 13.0732 275.973 13.5665C275.866 13.659 275.805 13.7592 275.79 13.8671C275.79 13.9287 275.798 13.9672 275.813 13.9827C275.935 14.0751 276.012 14.1908 276.042 14.3295C276.073 14.4836 276.042 14.6224 275.95 14.7457C275.874 14.8844 275.759 14.9692 275.607 15C275.469 15.0308 275.331 15.0077 275.194 14.9306C274.873 14.7148 274.697 14.3911 274.666 13.9595C274.651 13.4509 274.85 13.027 275.263 12.6879C276.134 11.9942 277.426 11.3006 279.138 10.6069C280.865 9.89788 282.164 9.56647 283.036 9.61272C283.234 9.62813 283.387 9.72062 283.494 9.89017C283.601 10.0443 283.617 10.2139 283.54 10.3988C283.372 10.815 282.936 11.3931 282.233 12.1329C281.53 12.8574 280.468 13.8902 279.046 15.2312C278.572 15.6936 278.213 16.0405 277.968 16.2717C278.733 16.0713 279.398 15.948 279.963 15.9017C280.544 15.8401 280.995 16.0019 281.316 16.3873C281.668 16.8035 281.775 17.2967 281.637 17.8671C281.545 18.2524 281.415 18.6378 281.247 19.0231C282.012 18.8227 283.181 18.5222 284.755 18.1214C286.009 17.8131 286.957 17.5742 287.599 17.4046C288.256 17.2351 289.112 16.9884 290.167 16.6647C291.237 16.3565 292.078 16.079 292.689 15.8324C293.316 15.5857 293.943 15.2929 294.569 14.9538C295.211 14.6146 295.701 14.2755 296.037 13.9364C296.159 13.8285 296.297 13.7746 296.45 13.7746ZM276.822 22.5145C277.449 22.0212 278.014 21.5125 278.519 20.9884C274.926 22.1599 272.954 23.4085 272.603 24.7341C272.664 24.7341 272.74 24.7341 272.832 24.7341C273.153 24.6879 273.703 24.4566 274.483 24.0405C275.247 23.6243 276.027 23.1156 276.822 22.5145Z" stroke="black" stroke-width="0.8"/>
</svg>
