<svg width="38" height="38" viewBox="0 0 38 38" fill="none" xmlns="http://www.w3.org/2000/svg">
<path d="M13.8024 32C10.6179 32 7.46421 31.1764 4.6798 29.6223L1 27.5622L5.29091 27.6306C5.37444 27.636 5.48435 27.6402 5.65435 27.6402C6.30062 27.6402 8.37426 27.5554 10.6662 26.6128C8.9253 25.8044 7.57851 24.3844 6.95275 22.6498L6.27571 20.7729L6.30649 20.7783C5.45798 19.7113 4.95238 18.4254 4.87324 17.0739L4.77359 15.3365L5.49314 15.6292C4.81609 14.1874 4.37059 12.0028 5.839 9.50342L6.68458 8.0725L7.7529 9.36525C10.1856 12.3009 13.7863 14.1833 17.7079 14.5896C17.7137 11.3393 20.3648 7.98222 24.7963 7.98222C26.5388 7.98222 28.2519 8.59918 29.543 9.68536C30.9792 9.31464 32.2952 8.56771 32.3113 8.5595L35.0254 7L33.9996 9.81805C33.9204 10.0315 33.8311 10.2421 33.7299 10.4446L36 9.40902L34.6326 12.1518C34.0494 13.3242 33.0866 14.3283 31.9069 15.0055C32.0695 18.9631 30.2802 23.3597 27.1851 26.5581C24.8095 29.0178 20.5773 31.9575 13.9123 31.9972L13.8024 32ZM5.08281 28.6511L5.24548 28.7415C7.85549 30.201 10.8143 30.9739 13.798 30.9739H13.905C20.1699 30.9357 24.1413 28.1792 26.3717 25.8728C29.3584 22.7852 31.051 18.5253 30.7945 14.7538L30.7712 14.4281L31.0774 14.2722C32.1941 13.7018 33.1027 12.7962 33.639 11.7223L33.6977 11.6006L33.3914 11.7428C33.0749 11.8714 32.7935 11.9712 32.5034 12.0588L30.7037 12.6087L31.9084 11.2462C32.3714 10.721 32.7261 10.1313 32.9591 9.48974L33.0031 9.36662L32.8858 9.43365C32.8727 9.44186 31.2445 10.3735 29.5123 10.7524L29.2191 10.8167L29.0023 10.6183C27.8929 9.59507 26.36 9.00684 24.7978 9.00684C21.0463 9.00684 18.807 11.8495 18.807 14.5992C18.807 14.6662 18.8245 14.8755 18.8495 15.104L18.911 15.7059L18.2662 15.6662C13.7892 15.3843 9.64187 13.316 6.88535 9.99316L6.83845 9.9357L6.80181 9.99863C5.04324 12.9863 6.497 15.4541 7.20188 16.3775L8.16178 17.632L6.58932 17.1627C6.40321 17.1081 6.22002 17.041 6.04123 16.9686L5.96356 16.937L5.96795 17.0164C6.06761 18.7168 6.96008 20.2913 8.4153 21.3338L10.5637 22.8741L7.96394 22.2394L7.99471 22.3228C8.641 24.1204 10.2018 25.5184 12.1669 26.0657L13.4038 26.4104L12.2798 27.0027C9.35612 28.543 6.47061 28.6635 5.65581 28.6635C5.46091 28.6635 5.33487 28.6593 5.25866 28.6566L5.08281 28.6511Z" fill="#A2A2A2" stroke="#A2A2A2" stroke-width="1.5"/>
</svg>
