<svg width="38" height="38" viewBox="0 0 38 38" fill="none" xmlns="http://www.w3.org/2000/svg">
<g clip-path="url(#clip0_753_1899)">
<path d="M14.4366 32C11.3431 32 8.27952 31.1764 5.57466 29.6223L2 27.5622L6.16831 27.6306C6.24946 27.636 6.35623 27.6402 6.52137 27.6402C7.14917 27.6402 9.16357 27.5554 11.39 26.6128C9.69886 25.8044 8.39055 24.3844 7.78267 22.6498L7.12498 20.7729L7.15488 20.7783C6.33061 19.7113 5.83945 18.4254 5.76258 17.0739L5.66577 15.3365L6.36476 15.6292C5.70706 14.1874 5.27429 12.0028 6.70074 9.50342L7.52216 8.0725L8.55996 9.36525C10.9232 12.3009 14.421 14.1833 18.2305 14.5896C18.2362 11.3393 20.8115 7.98222 25.1164 7.98222C26.8091 7.98222 28.4733 8.59918 29.7275 9.68536C31.1227 9.31464 32.401 8.56771 32.4167 8.5595L35.0532 7L34.0568 9.81805C33.9798 10.0315 33.8931 10.2421 33.7948 10.4446L36 9.40902L34.6717 12.1518C34.1051 13.3242 33.1698 14.3283 32.0238 15.0055C32.1818 18.9631 30.4436 23.3597 27.437 26.5581C25.1292 29.0178 21.0179 31.9575 14.5434 31.9972L14.4366 32ZM5.96616 28.6511L6.12418 28.7415C8.65962 30.201 11.5339 30.9739 14.4323 30.9739H14.5363C20.6222 30.9357 24.4801 28.1792 26.6468 25.8728C29.5482 22.7852 31.1924 18.5253 30.9432 14.7538L30.9206 14.4281L31.218 14.2722C32.3028 13.7018 33.1855 12.7962 33.7065 11.7223L33.7635 11.6006L33.4659 11.7428C33.1585 11.8714 32.8851 11.9712 32.6033 12.0588L30.855 12.6087L32.0253 11.2462C32.4751 10.721 32.8196 10.1313 33.046 9.48974L33.0887 9.36662L32.9748 9.43365C32.9621 9.44186 31.3804 10.3735 29.6977 10.7524L29.4128 10.8167L29.2022 10.6183C28.1245 9.59507 26.6354 9.00684 25.1179 9.00684C21.4735 9.00684 19.2982 11.8495 19.2982 14.5992C19.2982 14.6662 19.3152 14.8755 19.3395 15.104L19.3993 15.7059L18.7729 15.6662C14.4238 15.3843 10.395 13.316 7.7172 9.99316L7.67164 9.9357L7.63604 9.99863C5.92772 12.9863 7.33994 15.4541 8.02468 16.3775L8.95716 17.632L7.42963 17.1627C7.24883 17.1081 7.07088 17.041 6.8972 16.9686L6.82174 16.937L6.82601 17.0164C6.92282 18.7168 7.78979 20.2913 9.20343 21.3338L11.2905 22.8741L8.76497 22.2394L8.79486 22.3228C9.42269 24.1204 10.9389 25.5184 12.8478 26.0657L14.0494 26.4104L12.9575 27.0027C10.1174 28.543 7.31431 28.6635 6.52279 28.6635C6.33346 28.6635 6.21102 28.6593 6.13698 28.6566L5.96616 28.6511Z" fill="url(#paint0_linear_753_1899)" stroke="url(#paint1_linear_753_1899)" stroke-width="1.5"/>
</g>
<defs>
<linearGradient id="paint0_linear_753_1899" x1="19" y1="7" x2="19" y2="32" gradientUnits="userSpaceOnUse">
<stop stop-color="#36B0F4"/>
<stop offset="1" stop-color="#1577AE"/>
</linearGradient>
<linearGradient id="paint1_linear_753_1899" x1="19" y1="7" x2="19" y2="32" gradientUnits="userSpaceOnUse">
<stop stop-color="#36B0F4"/>
<stop offset="1" stop-color="#1577AE"/>
</linearGradient>
<clipPath id="clip0_753_1899">
<rect width="38" height="38" fill="white"/>
</clipPath>
</defs>
</svg>
